<?xml version="1.0" encoding="UTF-8"?>
<svg version="1.1" xmlns="http://www.w3.org/2000/svg" width="512" height="512">
<path d="M0 0 C0.94111446 -0.00085442 1.88222893 -0.00170885 2.85186201 -0.00258917 C5.99481255 -0.00423189 9.13770932 0.00125762 12.28065491 0.00672913 C14.53781635 0.00701128 16.79497789 0.0068527 19.05213928 0.00628662 C25.17343842 0.00599977 31.29471795 0.0118785 37.41601253 0.01886058 C43.81551816 0.02511266 50.21502425 0.02569939 56.61453247 0.02688599 C67.35366723 0.02964075 78.09279342 0.03588658 88.83192444 0.04481506 C99.89116887 0.0540001 110.95041134 0.06107559 122.00965881 0.06532288 C122.69184174 0.0655856 123.37402466 0.06584832 124.07687979 0.06611901 C127.49933766 0.06742409 130.92179553 0.06868778 134.34425342 0.06993091 C162.71767149 0.08029038 191.09108176 0.09797178 219.4644928 0.12025452 C219.4644928 5.40025452 219.4644928 10.68025452 219.4644928 16.12025452 C218.30142514 16.12172108 217.13835749 16.12318764 215.94004536 16.12469864 C188.29022551 16.16045152 160.64050915 16.21676593 132.99078446 16.29817547 C129.58268832 16.30819213 126.1745917 16.3180364 122.76649475 16.32777405 C122.08804462 16.32971542 121.40959449 16.33165679 120.71058526 16.333657 C109.74567707 16.36462239 98.78078977 16.38164235 87.81584612 16.39344874 C76.55289291 16.40588868 65.29004811 16.43374876 54.02715701 16.47486758 C47.70595214 16.49746161 41.38490277 16.51316641 35.06365395 16.51213837 C29.10709909 16.51139056 23.15088772 16.52939043 17.19442177 16.56142235 C15.01488309 16.56990191 12.83530581 16.57168458 10.6557579 16.56605721 C-5.40513438 16.53013101 -19.54757396 17.32136095 -32.1605072 28.43275452 C-32.9442572 29.31962952 -33.7280072 30.20650452 -34.5355072 31.12025452 C-35.02921814 31.67197327 -35.52292908 32.22369202 -36.03160095 32.79212952 C-43.27341596 41.53287382 -45.26081793 51.33011444 -44.9183197 62.50697327 C-43.69415981 74.06154372 -37.7183481 84.17806457 -28.82066345 91.54994202 C-21.03901017 96.89733453 -13.33161489 99.24956953 -4.01304626 99.32557678 C-2.88563271 99.34042618 -2.88563271 99.34042618 -1.73544312 99.35557556 C0.74262876 99.38709917 3.22071978 99.41191174 5.6988678 99.43666077 C7.41951488 99.45723819 9.140157 99.47823487 10.86079407 99.49963379 C15.38496372 99.55477303 19.90917837 99.60421818 24.4334259 99.65248108 C29.0518951 99.70275565 33.6702991 99.75841061 38.28871155 99.81361389 C47.34725163 99.92109581 56.40584722 100.02206552 65.4644928 100.12025452 C65.4644928 105.40025452 65.4644928 110.68025452 65.4644928 116.12025452 C63.53129181 116.1323848 63.53129181 116.1323848 61.55903625 116.14476013 C49.37772016 116.22244646 37.19651266 116.3102416 25.0153389 116.4077816 C18.75378357 116.45759985 12.49224393 116.50393069 6.23060608 116.54212952 C0.18102973 116.57916568 -5.86841049 116.62557429 -11.91786957 116.67831802 C-14.21894681 116.69676495 -16.52005313 116.71190818 -18.82117462 116.72359848 C-40.88826507 116.8396579 -60.8111725 117.9811281 -77.5355072 134.12025452 C-89.58437964 147.60954143 -93.48614192 162.4574939 -92.68345642 180.1285553 C-91.78160447 192.26932796 -85.59226804 203.29618312 -77.5355072 212.12025452 C-77.5355072 212.78025452 -77.5355072 213.44025452 -77.5355072 214.12025452 C-76.94898376 214.3922467 -76.36246033 214.66423889 -75.75816345 214.94447327 C-73.57862387 216.09744587 -71.87641011 217.37467741 -69.9730072 218.93275452 C-54.86373914 230.44055831 -37.38326955 230.26845612 -19.27424622 230.2784729 C-17.52082397 230.2830443 -15.76740281 230.28804516 -14.01398289 230.29343647 C-9.21371303 230.30696118 -4.41345021 230.31441943 0.38683367 230.32086313 C5.57008211 230.32889208 10.75331601 230.34258122 15.93655396 230.35557556 C24.9109209 230.37730299 33.88528933 230.39546108 42.85966873 230.4111805 C55.83504372 230.43391319 68.81040257 230.46205127 81.78576384 230.49149977 C102.83849709 230.53913405 123.89123695 230.5824095 144.94398499 230.62294006 C165.3922324 230.66231619 185.84047395 230.70374749 206.28871155 230.74794006 C207.54958344 230.75066434 208.81045534 230.75338861 210.10953547 230.75619543 C216.43509134 230.76987526 222.76064712 230.78359547 229.08620286 230.79733574 C281.54562062 230.91123509 334.00505117 231.0179862 386.4644928 231.12025452 C386.4644928 226.17025452 386.4644928 221.22025452 386.4644928 216.12025452 C368.3144928 216.12025452 350.1644928 216.12025452 331.4644928 216.12025452 C331.4644928 210.84025452 331.4644928 205.56025452 331.4644928 200.12025452 C344.3344928 200.12025452 357.2044928 200.12025452 370.4644928 200.12025452 C370.4644928 195.50025452 370.4644928 190.88025452 370.4644928 186.12025452 C260.5744928 186.12025452 150.6844928 186.12025452 37.4644928 186.12025452 C37.4644928 180.84025452 37.4644928 175.56025452 37.4644928 170.12025452 C147.3544928 170.12025452 257.2444928 170.12025452 370.4644928 170.12025452 C370.4644928 162.20025452 370.4644928 154.28025452 370.4644928 146.12025452 C318.40310159 146.17935722 266.34175312 146.25367404 214.28041527 146.3492408 C208.13458064 146.36050901 201.98874578 146.37164745 195.84291077 146.38270569 C194.61938181 146.38490937 193.39585286 146.38711306 192.13524728 146.38938352 C172.32210595 146.42475925 152.50896467 146.44962184 132.69580348 146.47060154 C112.36680682 146.49236137 92.03785116 146.52541357 71.70888937 146.56895608 C59.16409366 146.59546958 46.61934905 146.61316719 34.07452671 146.61960056 C25.47294895 146.62485533 16.87143548 146.64107541 8.26989217 146.66592018 C3.30671891 146.67993197 -1.65633926 146.68910714 -6.61953354 146.68526268 C-11.16602775 146.6818478 -15.71227632 146.69224419 -20.25872023 146.71349003 C-21.90087079 146.71875021 -23.5430469 146.71900095 -25.18519716 146.71365014 C-37.2690255 146.67829587 -47.54142674 147.05853902 -56.61753845 155.89369202 C-61.96357873 162.09988949 -63.17026742 168.16852703 -62.85191345 176.26087952 C-62.03286154 183.66268196 -59.06883038 189.14336304 -53.5355072 194.12025452 C-45.65150595 199.62088292 -37.96225345 199.83482651 -28.62800598 199.75949097 C-27.13031205 199.76581109 -25.63262604 199.77431911 -24.13495553 199.7848112 C-20.04139755 199.80721796 -15.94840654 199.79878907 -11.8548317 199.78512561 C-7.4322859 199.77583581 -3.00985472 199.79542543 1.41265869 199.81144714 C9.06765607 199.83525508 16.72249248 199.84090394 24.37752151 199.83410072 C35.44527199 199.82429096 46.51284428 199.84205147 57.58056591 199.86646803 C75.53862362 199.90533997 93.49663028 199.92201953 111.45472717 199.92469788 C128.89583453 199.92734674 146.33688225 199.94047537 163.77796936 199.96766663 C164.85364753 199.96934 165.9293257 199.97101338 167.03760017 199.97273747 C172.43414384 199.98119715 177.83068714 199.98986252 183.22723031 199.99863017 C227.9729748 200.07106159 272.71869456 200.10708738 317.4644928 200.12025452 C317.4644928 205.40025452 317.4644928 210.68025452 317.4644928 216.12025452 C271.40769788 216.21152259 225.35091491 216.28230237 179.29404731 216.32451583 C173.85550099 216.32951861 168.41695486 216.3346959 162.97840881 216.33998108 C161.89570107 216.34103032 160.81299332 216.34207956 159.69747625 216.3431606 C142.17089309 216.36056155 124.64436246 216.39209755 107.11781045 216.4288657 C89.13135323 216.46628372 71.14492351 216.4884922 53.15842897 216.4966085 C42.06153088 216.50209447 30.96478128 216.51941591 19.8679289 216.55192038 C12.25639405 216.57307887 4.64493586 216.57945152 -2.96662626 216.57426003 C-7.35684349 216.57170034 -11.74680141 216.57559932 -16.13697243 216.59707642 C-20.16112159 216.61661861 -24.18483839 216.61747518 -28.20900794 216.6038501 C-29.66007763 216.60216748 -31.11117489 216.60717671 -32.56219075 216.61978725 C-46.35498043 216.73262833 -57.44155762 213.61411019 -67.69566345 204.12025452 C-77.38797124 193.97503515 -80.04691072 183.06446135 -79.81285095 169.46009827 C-79.31245673 157.96596826 -72.86433088 147.5454069 -64.6370697 139.75306702 C-51.89529742 129.85332573 -37.41401794 129.82301968 -22.0401001 129.87974548 C-20.27344091 129.87887227 -18.50678197 129.87711915 -16.7401244 129.87456715 C-11.9078733 129.87011244 -7.07571148 129.87807142 -2.24347174 129.88812327 C2.97587915 129.8967826 8.19522524 129.89383586 13.4145813 129.89231873 C22.45006179 129.89127144 31.48551334 129.89753166 40.52098656 129.9087944 C53.58466451 129.92506769 66.6483285 129.93025928 79.71201549 129.93277039 C100.90840583 129.93714462 122.10478075 129.95044635 143.30116272 129.96937561 C163.888076 129.98774144 184.47498509 130.00189451 205.06190491 130.01039124 C206.33147506 130.01091668 207.60104522 130.01144213 208.9090872 130.0119835 C215.27832455 130.01459363 221.64756193 130.01712103 228.01679933 130.01960731 C280.83270791 130.04033134 333.64859936 130.07569844 386.4644928 130.12025452 C386.4644928 125.50025452 386.4644928 120.88025452 386.4644928 116.12025452 C285.1544928 116.12025452 183.8444928 116.12025452 79.4644928 116.12025452 C79.4644928 110.84025452 79.4644928 105.56025452 79.4644928 100.12025452 C164.9344928 100.12025452 250.4044928 100.12025452 338.4644928 100.12025452 C338.4644928 95.50025452 338.4644928 90.88025452 338.4644928 86.12025452 C336.67413636 86.12394169 334.88377993 86.12762886 333.03917027 86.13142776 C290.54028981 86.21805804 248.04141904 86.28401602 205.54246843 86.32451583 C200.31164242 86.32951866 195.08081658 86.33469595 189.84999084 86.33998108 C188.2879452 86.34155494 188.2879452 86.34155494 186.69434308 86.3431606 C169.83245994 86.36056609 152.97063135 86.39210459 136.10878057 86.4288657 C118.80712065 86.46627108 101.5054893 86.48848952 84.20379061 86.4966085 C73.5276039 86.50209709 62.85157138 86.51943277 52.17543214 86.55192038 C44.85452031 86.57306327 37.5336882 86.57945506 30.21274806 86.57426003 C25.98884655 86.5716979 21.76521447 86.57562705 17.54136086 86.59707642 C13.67151263 86.61658434 9.80211428 86.61749729 5.93224507 86.6038501 C4.53504608 86.60216415 3.13781867 86.60720264 1.74067534 86.61978725 C-8.06231273 86.7029256 -14.66205908 85.40045998 -22.7855072 79.93275452 C-29.7509289 72.80902778 -31.91761478 65.31547544 -31.8089447 55.54603577 C-31.18791036 47.76536269 -28.2260751 41.83066393 -22.4651947 36.58900452 C-16.32221324 31.9133749 -10.15703849 29.97533715 -2.45347595 30.02259827 C-1.5221283 30.02582092 -0.59078064 30.02904358 0.36878967 30.03236389 C1.3284967 30.0407428 2.28820374 30.0491217 3.2769928 30.05775452 C4.25603577 30.06226624 5.23507874 30.06677795 6.24378967 30.07142639 C8.65071711 30.0831675 11.05761293 30.10110163 13.4644928 30.12025452 C13.4644928 35.40025452 13.4644928 40.68025452 13.4644928 46.12025452 C12.16253967 46.15763733 10.86058655 46.19502014 9.5191803 46.23353577 C7.79259023 46.29922126 6.06602899 46.3656677 4.3394928 46.43275452 C3.05558655 46.46659241 3.05558655 46.46659241 1.7457428 46.50111389 C-3.37565208 46.71778829 -7.1027343 47.28743559 -11.5355072 50.12025452 C-13.97890911 53.05233681 -14.50210255 54.80847773 -14.9105072 58.62025452 C-14.50886218 62.36894141 -13.87596941 64.19467676 -11.5355072 67.12025452 C-8.29205922 69.18904186 -5.69592736 69.37330364 -1.88958359 69.38196754 C-0.73209885 69.38943304 0.42538588 69.39689853 1.61794591 69.40459025 C3.52648827 69.40168815 3.52648827 69.40168815 5.47358704 69.39872742 C6.83822675 69.40372939 8.2028635 69.4096049 9.56749606 69.41628015 C13.32099316 69.43210614 17.07441546 69.43551225 20.82794189 69.43692875 C24.87428425 69.44061827 28.92058536 69.45577149 32.96690369 69.46954346 C39.9786206 69.49183422 46.99032287 69.50683657 54.00206757 69.51691055 C64.13991019 69.5314864 74.27770182 69.55702013 84.41551456 69.58524184 C100.86281673 69.63072975 117.31012624 69.66733629 133.75746155 69.69837952 C149.73599028 69.72855687 165.71450106 69.7629034 181.69300842 69.8028717 C182.67766607 69.80533325 183.66232372 69.8077948 184.67681947 69.81033094 C189.61648062 69.82270539 194.55614156 69.83516195 199.4958024 69.84765935 C240.48534104 69.95125708 281.47490171 70.04030284 322.4644928 70.12025452 C322.4644928 62.20025452 322.4644928 54.28025452 322.4644928 46.12025452 C225.4444928 46.12025452 128.4244928 46.12025452 28.4644928 46.12025452 C28.4644928 40.84025452 28.4644928 35.56025452 28.4644928 30.12025452 C130.7644928 30.12025452 233.0644928 30.12025452 338.4644928 30.12025452 C338.4644928 25.50025452 338.4644928 20.88025452 338.4644928 16.12025452 C303.8144928 16.12025452 269.1644928 16.12025452 233.4644928 16.12025452 C233.4644928 10.84025452 233.4644928 5.56025452 233.4644928 0.12025452 C273.3944928 0.12025452 313.3244928 0.12025452 354.4644928 0.12025452 C354.4644928 15.30025452 354.4644928 30.48025452 354.4644928 46.12025452 C349.1844928 46.12025452 343.9044928 46.12025452 338.4644928 46.12025452 C338.4644928 54.04025452 338.4644928 61.96025452 338.4644928 70.12025452 C343.7444928 70.12025452 349.0244928 70.12025452 354.4644928 70.12025452 C354.4644928 80.02025452 354.4644928 89.92025452 354.4644928 100.12025452 C370.3044928 100.12025452 386.1444928 100.12025452 402.4644928 100.12025452 C402.4644928 115.30025452 402.4644928 130.48025452 402.4644928 146.12025452 C397.1844928 146.12025452 391.9044928 146.12025452 386.4644928 146.12025452 C386.4644928 163.94025452 386.4644928 181.76025452 386.4644928 200.12025452 C391.7444928 200.12025452 397.0244928 200.12025452 402.4644928 200.12025452 C402.4644928 215.30025452 402.4644928 230.48025452 402.4644928 246.12025452 C345.26509828 246.21070918 288.0657207 246.28231684 230.86626884 246.32451583 C224.11100547 246.32950497 217.35574226 246.33469122 210.60047913 246.33998108 C209.59216012 246.34076563 209.59216012 246.34076563 208.56347104 246.34156604 C186.79397939 246.35859679 165.02452941 246.38863107 143.25506298 246.4254434 C120.23994194 246.46429125 97.22483801 246.48824846 74.209683 246.4966085 C60.42880183 246.50209274 46.64804031 246.51940487 32.86719597 246.55192038 C23.41292994 246.57308909 13.95872562 246.5794492 4.50443762 246.57426003 C-0.94749506 246.57170195 -6.39921888 246.57558119 -11.85111427 246.59707642 C-16.85000198 246.61664093 -21.84854173 246.61746058 -26.84744596 246.6038501 C-28.6485155 246.60216966 -30.44960737 246.60715952 -32.25063343 246.61978725 C-54.05653397 246.76369147 -73.10313392 241.00347299 -89.08970642 225.5894928 C-104.0118185 210.42548224 -110.08251986 191.25552331 -109.95542908 170.35438538 C-109.40304012 149.6769794 -100.18667323 132.11070073 -85.3480072 117.93275452 C-73.57298013 107.94244409 -59.63015552 102.65829273 -44.5355072 100.12025452 C-45.04339783 99.60978577 -45.55128845 99.09931702 -46.0745697 98.57337952 C-57.59359925 86.40721347 -62.05250639 72.57133652 -61.88487244 56.10169983 C-61.46938866 41.89919675 -55.86730272 27.52467604 -45.8792572 17.21009827 C-32.46132114 5.24577195 -18.05601642 -0.06040898 0 0 Z " fill="#000000" transform="translate(109.53550720214844,265.87974548339844)"/>
<path d="M0 0 C0.89585815 0.29587006 1.79171631 0.59174011 2.71472168 0.89657593 C3.66419174 1.2202565 4.6136618 1.54393707 5.59190369 1.87742615 C7.13006241 2.38970764 7.13006241 2.38970764 8.69929504 2.91233826 C12.06216836 4.03468084 15.42061759 5.16968519 18.77915955 6.30491638 C21.12015897 7.08898266 23.46142594 7.87225054 25.802948 8.65475464 C31.94582341 10.70999247 38.08501681 12.77601847 44.22349548 14.84434509 C50.49571337 16.95559378 56.77136808 19.05657393 63.04673767 21.15843201 C75.34503559 25.27927285 87.6395867 29.41117596 99.9315033 33.55101013 C99.16083636 39.22486366 97.83165509 44.18101592 95.9315033 49.55101013 C86.03266788 47.13451744 76.45208566 43.7543543 66.8203392 40.46218109 C61.66592181 38.70311119 56.5051353 36.96286564 51.3455658 35.21897888 C44.80705503 33.00752347 38.27052347 30.79063335 31.74009705 28.55540466 C26.4352887 26.74022611 21.12475312 24.94280395 15.81000137 23.15695953 C13.79446692 22.47608057 11.78110847 21.78872325 9.77007675 21.0946579 C6.9573562 20.12479326 4.13785663 19.17781462 1.31578064 18.23558044 C0.49580093 17.94682541 -0.32417877 17.65807037 -1.16900635 17.36056519 C-11.94826923 13.83023344 -20.87059291 17.53629793 -31.2613678 21.07078552 C-32.67626492 21.5446225 -34.09143391 22.0176483 -35.5068512 22.4899292 C-38.53855494 23.50341649 -41.56828656 24.52252555 -44.59658432 25.54614449 C-49.38377448 27.16423319 -54.17523634 28.76939927 -58.96733093 30.37289429 C-66.5412417 32.90888422 -74.11229659 35.45328002 -81.68213618 38.00139374 C-95.25526821 42.57021423 -108.83183317 47.12879435 -122.41151869 51.67809862 C-127.17662491 53.27488019 -131.9399988 54.87670035 -136.70204616 56.4825803 C-139.65778864 57.47845269 -142.61473964 58.470698 -145.57200623 59.46203423 C-146.94519094 59.92323914 -148.31784986 60.38601288 -149.68994522 60.85044861 C-151.55907298 61.48291305 -153.43023352 62.10936059 -155.30149841 62.73547363 C-156.34894918 63.08814332 -157.39639996 63.44081301 -158.47559166 63.80416965 C-161.0684967 64.55101013 -161.0684967 64.55101013 -164.0684967 64.55101013 C-164.0684967 65.21101013 -164.0684967 65.87101013 -164.0684967 66.55101013 C-162.86858093 66.78701431 -161.66866516 67.02301849 -160.43238831 67.26617432 C-153.88228931 68.72746913 -147.59017429 70.9441527 -141.24623108 73.10838318 C-139.87051318 73.5737981 -138.49463895 74.03875113 -137.11862183 74.50328064 C-134.17141693 75.49894186 -131.22509859 76.4971693 -128.27938843 77.49724388 C-123.61597707 79.07970901 -118.94923655 80.6521863 -114.28175354 82.22259521 C-112.67937054 82.76186568 -111.07699173 83.30114857 -109.474617 83.84044361 C-108.2716191 84.24532125 -108.2716191 84.24532125 -107.0443182 84.65837824 C-96.19043983 88.31230306 -85.33951549 91.97481157 -74.49476624 95.65574646 C-67.1619681 98.14456215 -59.82494284 100.62045522 -52.48290682 103.0818904 C-48.60442837 104.38277051 -44.72844093 105.69019736 -40.85760498 107.01366234 C-37.21830379 108.25791473 -33.57370094 109.48515123 -29.92442894 110.69983673 C-28.59086058 111.14704485 -27.2593316 111.60039132 -25.9301548 112.06048775 C-12.21855804 116.79905559 -4.36662557 114.62028343 9.12437439 110.03123474 C10.53927151 109.55739777 11.9544405 109.08437196 13.36985779 108.61209106 C16.40156153 107.59860377 19.43129315 106.57949471 22.45959091 105.55587578 C27.24678107 103.93778708 32.03824293 102.33262099 36.83033752 100.72912598 C44.40424829 98.19313604 51.97530318 95.64874025 59.54514277 93.10062653 C73.1182748 88.53180603 86.69483976 83.97322591 100.27452528 79.42392164 C105.0396315 77.82714007 109.8030054 76.22531992 114.56505275 74.61943996 C117.52079523 73.62356757 120.47774623 72.63132226 123.43501282 71.63998604 C124.80819753 71.17878112 126.18085645 70.71600738 127.55295181 70.25157166 C129.42207957 69.61910721 131.29324011 68.99265967 133.164505 68.36654663 C134.73568116 67.8375421 134.73568116 67.8375421 136.33859825 67.29785061 C138.9315033 66.55101013 138.9315033 66.55101013 141.9315033 66.55101013 C141.9315033 65.89101013 141.9315033 65.23101013 141.9315033 64.55101013 C140.09265564 64.18362732 140.09265564 64.18362732 138.21665955 63.80882263 C132.1216066 62.45436642 126.2722863 60.44002953 120.3690033 58.42601013 C119.26492126 58.05347107 118.16083923 57.68093201 117.02330017 57.29710388 C114.32460957 56.3858577 111.62742296 55.4704149 108.9315033 54.55101013 C109.19286882 53.19498428 109.46622472 51.84126921 109.7440033 50.48851013 C109.89482361 49.73440857 110.04564392 48.98030701 110.20103455 48.20335388 C111.13466314 44.81333346 112.49729092 41.76128824 113.9315033 38.55101013 C140.32083209 47.05166854 166.64241635 55.74543264 192.9315033 64.55101013 C192.9315033 65.21101013 192.9315033 65.87101013 192.9315033 66.55101013 C188.97479214 67.88919173 185.01587802 69.22073213 181.0565033 70.55101013 C179.92857361 70.93257263 178.80064392 71.31413513 177.63853455 71.70726013 C176.56216736 72.06819763 175.48580017 72.42913513 174.3768158 72.80101013 C172.88432312 73.30374451 172.88432312 73.30374451 171.36167908 73.81663513 C168.9315033 74.55101013 168.9315033 74.55101013 166.9315033 74.55101013 C167.2615033 99.30101013 167.5915033 124.05101013 167.9315033 149.55101013 C170.5715033 150.87101013 173.2115033 152.19101013 175.9315033 153.55101013 C181.96891085 157.9161861 184.87304501 163.506964 186.9315033 170.55101013 C187.40527054 174.10476757 187.40363239 177.57248921 187.3221283 181.15257263 C187.31809998 182.00746277 187.31407166 182.86235291 187.30992126 183.7431488 C187.28924656 186.88765931 187.23340439 190.03186 187.1815033 193.17601013 C187.0990033 200.22976013 187.0165033 207.28351013 186.9315033 214.55101013 C168.4515033 214.55101013 149.9715033 214.55101013 130.9315033 214.55101013 C130.8386908 204.43444763 130.8386908 204.43444763 130.7440033 194.11351013 C130.71669128 192.00275085 130.68937927 189.89199158 130.66123962 187.7172699 C130.65246602 186.01732452 130.64482416 184.31737277 130.63853455 182.61741638 C130.6155127 181.32619873 130.6155127 181.32619873 130.59202576 180.00889587 C130.58842306 171.54615648 132.5968445 164.25743833 137.9315033 157.55101013 C141.85963418 153.87906169 145.00799701 152.01276327 149.9315033 149.55101013 C150.2615033 126.78101013 150.5915033 104.01101013 150.9315033 80.55101013 C137.19822746 85.15516119 137.19822746 85.15516119 123.46714783 89.76585388 C121.74961674 90.34031066 120.03201118 90.91454482 118.3143158 91.48851013 C117.41769226 91.79079529 116.52106873 92.09308044 115.59727478 92.40452576 C114.31856506 92.83088318 114.31856506 92.83088318 113.01402283 93.26585388 C112.27233856 93.51456238 111.5306543 93.76327087 110.76649475 94.01951599 C108.9315033 94.55101013 108.9315033 94.55101013 106.9315033 94.55101013 C106.94533019 95.5245 106.94533019 95.5245 106.95943642 96.51765633 C107.18038429 112.31701897 107.34580712 128.11584362 107.44962502 143.91636848 C107.50116709 151.55751689 107.57141796 159.19763348 107.68589783 166.83811951 C107.78564506 173.49851796 107.85010159 180.15816925 107.87238824 186.81929386 C107.88541534 190.34605284 107.9159655 193.87067464 107.98880386 197.39674759 C108.06950427 201.33545376 108.07139815 205.27207932 108.0667572 209.21165466 C108.12068634 210.96061287 108.12068634 210.96061287 108.17570496 212.74490356 C108.13445006 215.97661258 108.00413987 218.50009009 106.9315033 221.55101013 C103.92433846 224.38515905 100.72418032 225.9786138 96.9315033 227.55101013 C96.14381876 227.90287951 95.35613422 228.25474888 94.54458046 228.61728096 C92.42783334 229.53999097 90.29440499 230.33956687 88.1190033 231.11351013 C87.3040741 231.40524109 86.4891449 231.69697205 85.64952087 231.99754333 C55.01358328 242.63384569 22.18638572 244.7797168 -10.0059967 244.80101013 C-11.59429291 244.80252075 -11.59429291 244.80252075 -13.2146759 244.80406189 C-104.39331684 244.74562836 -104.39331684 244.74562836 -129.0684967 221.55101013 C-129.56068802 219.19846058 -129.56068802 219.19846058 -129.54951477 216.36883545 C-129.55501343 215.29611389 -129.56051208 214.22339233 -129.56617737 213.11816406 C-129.55179626 211.9414061 -129.53741516 210.76464813 -129.52259827 209.55223083 C-129.52318237 208.31308929 -129.52376648 207.07394775 -129.52436829 205.79725647 C-129.52205704 202.39840204 -129.50198224 199.00051647 -129.47407246 195.60183358 C-129.44908654 192.05043145 -129.44671904 188.49901675 -129.44197083 184.94754028 C-129.42953271 178.22202328 -129.39670004 171.49676601 -129.35657287 164.77136344 C-129.31188096 157.11488617 -129.28987466 149.45839656 -129.26979113 141.80182135 C-129.22796794 126.05140046 -129.15759994 110.30123878 -129.0684967 94.55101013 C-130.11804771 94.27203022 -130.11804771 94.27203022 -131.18880177 93.98741436 C-136.91810414 92.44764295 -142.58056122 90.80969959 -148.20204163 88.91551208 C-148.93516571 88.67123474 -149.66828979 88.4269574 -150.42362976 88.17527771 C-152.79970353 87.3827959 -155.174339 86.5860983 -157.54896545 85.78929138 C-159.21467428 85.23280916 -160.88047275 84.67659523 -162.5463562 84.12063599 C-166.89545177 82.66841225 -171.24333302 81.21258671 -175.59095764 79.75596619 C-180.04171674 78.2655164 -184.49363375 76.77853357 -188.94544983 75.29124451 C-197.65425844 72.38119409 -206.36178609 69.46733111 -215.0684967 66.55101013 C-215.0684967 65.89101013 -215.0684967 65.23101013 -215.0684967 64.55101013 C-189.02412713 55.77610315 -162.97290247 47.02182925 -136.91336918 38.29205227 C-124.81357492 34.23816426 -112.71611287 30.17756064 -100.62391663 26.10105896 C-90.0840857 22.54790722 -79.540094 19.00744136 -68.99091715 15.48212963 C-63.40559124 13.61514073 -57.82255072 11.74187786 -52.24444771 9.85340691 C-46.99248812 8.07557478 -41.73512345 6.31477921 -36.47315598 4.56679916 C-34.54458224 3.92284214 -32.61805207 3.27272652 -30.69380379 2.61595726 C-28.061647 1.71860531 -25.42296271 0.84391749 -22.78152466 -0.02566528 C-22.02565962 -0.28927166 -21.26979459 -0.55287804 -20.49102455 -0.82447249 C-13.39855127 -3.10996815 -7.02052373 -2.35707114 0 0 Z M-113.0684967 100.55101013 C-113.0684967 137.51101013 -113.0684967 174.47101013 -113.0684967 212.55101013 C-98.35400532 217.74436003 -84.71403414 222.05102434 -69.5059967 224.67601013 C-68.60421692 224.83472595 -67.70243713 224.99344177 -66.77333069 225.15696716 C-48.46929154 228.15638841 -30.08554423 228.93135721 -11.5684967 228.86351013 C-10.0062587 228.86077591 -10.0062587 228.86077591 -8.41246033 228.85798645 C25.57498116 228.75834699 59.20716402 225.52355972 90.9315033 212.55101013 C90.9315033 209.58101013 90.9315033 206.61101013 90.9315033 203.55101013 C80.3715033 203.55101013 69.8115033 203.55101013 58.9315033 203.55101013 C58.9315033 198.27101013 58.9315033 192.99101013 58.9315033 187.55101013 C69.4915033 187.55101013 80.0515033 187.55101013 90.9315033 187.55101013 C90.9315033 182.93101013 90.9315033 178.31101013 90.9315033 173.55101013 C84.9915033 173.55101013 79.0515033 173.55101013 72.9315033 173.55101013 C72.9315033 168.27101013 72.9315033 162.99101013 72.9315033 157.55101013 C78.8715033 157.55101013 84.8115033 157.55101013 90.9315033 157.55101013 C90.9315033 138.74101013 90.9315033 119.93101013 90.9315033 100.55101013 C84.0889279 102.00281382 84.0889279 102.00281382 77.49302673 103.93716431 C76.73638733 104.19378342 75.97974792 104.45040253 75.20018005 104.71479797 C74.40511047 104.98970062 73.61004089 105.26460327 72.7908783 105.5478363 C71.92619934 105.84234177 71.06152039 106.13684723 70.17063904 106.4402771 C68.30891448 107.0746122 66.44784799 107.7108814 64.58738708 108.34891319 C61.63746659 109.35905843 58.68487989 110.36099737 55.73130798 111.3604126 C47.33918534 114.20034658 38.94879704 117.04507028 30.56822205 119.91893005 C25.4278001 121.68101867 20.28163927 123.42533185 15.1313324 125.15830421 C13.17716904 125.81956163 11.22521295 126.48738113 9.27561951 127.16199303 C6.54649384 128.10558821 3.81059802 129.02630701 1.0721283 129.94236755 C0.27705872 130.2233429 -0.51801086 130.50431824 -1.33717346 130.79380798 C-10.37318516 133.75740382 -17.8295287 131.60060007 -26.57972717 128.59178162 C-27.4833046 128.2892749 -28.38688202 127.98676819 -29.31784058 127.6750946 C-32.27664895 126.68238151 -35.23105388 125.67717612 -38.1856842 124.67210388 C-40.25040828 123.97758649 -42.31544644 123.28400222 -44.38078308 122.59130859 C-49.79741913 120.77250534 -55.21061397 118.94368685 -60.62287903 117.11192322 C-69.30564793 114.17441666 -77.9925507 111.24922417 -86.68138504 108.32971382 C-89.71576567 107.3080194 -92.74802981 106.28022181 -95.78013611 105.25180054 C-97.63123273 104.62794317 -99.48239491 104.00428031 -101.33363342 103.38084412 C-102.17832687 103.09254227 -103.02302032 102.80424042 -103.89331055 102.50720215 C-104.66694443 102.24780853 -105.44057831 101.98841492 -106.23765564 101.72116089 C-107.24469449 101.38020213 -107.24469449 101.38020213 -108.27207756 101.03235531 C-110.24149505 100.42160158 -110.24149505 100.42160158 -113.0684967 100.55101013 Z M149.1190033 169.55101013 C146.99002584 173.13665637 146.81225864 176.01377106 146.83384705 180.09397888 C146.8363446 181.06101746 146.83884216 182.02805603 146.84141541 183.0243988 C146.85051941 184.25005554 146.85962341 185.47571228 146.8690033 186.73851013 C146.8896283 190.63663513 146.9102533 194.53476013 146.9315033 198.55101013 C154.8515033 198.55101013 162.7715033 198.55101013 170.9315033 198.55101013 C171.01246145 194.48811005 171.07198974 190.42682446 171.1190033 186.36351013 C171.14414001 185.21302185 171.16927673 184.06253357 171.19517517 182.87718201 C171.20484314 181.7653656 171.21451111 180.65354919 171.22447205 179.50804138 C171.2401825 178.48686218 171.25589294 177.46568298 171.27207947 176.41355896 C170.70478587 171.64544607 168.73820705 169.19988054 165.0565033 166.23851013 C159.02953329 162.98394633 153.75503826 164.43538534 149.1190033 169.55101013 Z " fill="#000000" transform="translate(267.06849670410156,2.4489898681640625)"/>
<path d="M0 0 C5.28 0 10.56 0 16 0 C16 5.28 16 10.56 16 16 C10.72 16 5.44 16 0 16 C0 10.72 0 5.44 0 0 Z " fill="#000000" transform="translate(117,436)"/>
<path d="M0 0 C5.28 0 10.56 0 16 0 C16 5.28 16 10.56 16 16 C10.72 16 5.44 16 0 16 C0 10.72 0 5.44 0 0 Z " fill="#000000" transform="translate(87,436)"/>
<path d="M0 0 C5.28 0 10.56 0 16 0 C16 5.28 16 10.56 16 16 C10.72 16 5.44 16 0 16 C0 10.72 0 5.44 0 0 Z " fill="#000000" transform="translate(296,190)"/>
</svg>
