<?xml version="1.0" encoding="UTF-8"?>
<svg version="1.1" xmlns="http://www.w3.org/2000/svg" width="512" height="512">
<path d="M0 0 C44.6248754 -1.00563099 86.58854353 16.42273686 118.90649414 46.83056641 C124.18542903 51.90701599 128.89532223 57.24697487 133.2734375 63.125 C133.87381836 63.92091553 133.87381836 63.92091553 134.48632812 64.73291016 C147.99853296 82.72323818 157.60161677 102.33095561 163.2734375 124.125 C163.47098633 124.87152832 163.66853516 125.61805664 163.87207031 126.38720703 C169.63038468 149.22726409 170.20749812 177.2614135 164.2734375 200.125 C163.96744629 201.3612915 163.96744629 201.3612915 163.65527344 202.62255859 C156.70114161 230.30243267 143.99904128 254.62748464 124.57828617 275.6174736 C123.20906543 277.10709728 121.85104165 278.60734904 120.51808071 280.12950516 C112.39801142 289.39122194 103.57605908 297.98651206 94.87719727 306.69824219 C93.01016295 308.57155022 91.14331077 310.44503835 89.27664185 312.31871033 C83.7026406 317.9123318 78.12392137 323.501236 72.54456487 329.08951509 C70.43923517 331.19836156 68.33422016 333.30752198 66.22922112 335.4166985 C56.93587081 344.72848967 47.64117647 354.03893684 38.34245396 363.34536362 C36.07489135 365.61483569 33.80733422 367.88431324 31.53979492 370.15380859 C30.97630012 370.71778714 30.41280532 371.28176568 29.83223491 371.86283448 C20.69224841 381.0111321 11.56082232 390.16792497 2.43291295 399.32827124 C-6.95935938 408.75364547 -16.35917485 418.17144341 -25.76641613 427.58187795 C-31.03993736 432.85755971 -36.31014933 438.13645524 -41.57192802 443.42385101 C-46.04896505 447.9226366 -50.53282305 452.41448243 -55.02559762 456.89755383 C-57.31448645 459.18191206 -59.59896078 461.47038985 -61.87692833 463.76564598 C-64.3532583 466.25971158 -66.84171469 468.74103519 -69.33348083 471.21966553 C-70.04138447 471.93853841 -70.7492881 472.65741128 -71.47864336 473.39806819 C-78.51699374 480.34756124 -85.88197424 485.92668703 -96.0625 486.28515625 C-104.40220701 485.78379556 -110.13511656 482.21638698 -115.7265625 476.125 C-119.6771292 470.51774404 -120.37165364 463.39358181 -119.359375 456.6953125 C-116.70609938 447.22868714 -108.28501946 440.53682243 -101.52893066 433.81384277 C-100.73159594 433.01635919 -99.93426122 432.21887561 -99.11276484 431.39722586 C-96.45840372 428.74355548 -93.80049299 426.09346994 -91.14257812 423.44335938 C-89.23152238 421.53422411 -87.32067027 419.6248871 -85.41007996 417.71528625 C-81.30402481 413.61210843 -77.19620089 409.51070846 -73.08720398 405.41047668 C-67.13826723 399.47413596 -61.19260792 393.53452112 -55.24781996 387.59402603 C-45.59031073 377.94357353 -35.93093533 368.2949914 -26.27001953 358.64794922 C-25.69264433 358.07140183 -25.11526914 357.49485445 -24.52039772 356.90083593 C-19.83616202 352.22334431 -15.15183562 347.54594351 -10.46750546 342.86854649 C-6.37266305 338.77975705 -2.27785688 334.69093134 1.81689453 330.60205078 C2.39356178 330.02621166 2.97022903 329.45037253 3.56437105 328.85708374 C13.19072533 319.24443081 22.81510424 309.62980245 32.43808413 300.01377153 C38.36580663 294.09052049 44.29529706 288.16904993 50.22710764 282.24989283 C54.29260072 278.19284679 58.35630601 274.13401585 62.41862953 270.07379615 C64.75946788 267.73429809 67.10139491 265.39590841 69.4450016 263.05918312 C71.99093127 260.52049279 74.53373082 257.97870667 77.07580566 255.43615723 C77.80937585 254.706182 78.54294604 253.97620677 79.29874563 253.22411108 C100.09999267 232.38136468 113.50848795 209.4426757 118.2734375 180.125 C118.4178125 179.25101563 118.5621875 178.37703125 118.7109375 177.4765625 C122.26973398 149.27310037 114.05163751 119.39571377 97.37109375 96.515625 C95.39596232 93.99684353 93.35899778 91.55296569 91.2734375 89.125 C90.561875 88.279375 89.8503125 87.43375 89.1171875 86.5625 C70.56239711 65.13302377 42.46359772 51.51300944 14.2734375 49.125 C-18.00118272 47.20073194 -48.20486068 56.20208513 -72.8667357 77.45819187 C-79.97953461 83.83280215 -86.63579499 90.72751299 -93.38641083 97.47942185 C-95.8988869 99.99023314 -98.41706549 102.49531534 -100.93441772 105.00123596 C-106.42092003 110.46502303 -111.9000748 115.93613809 -117.37776542 121.40875721 C-120.80410662 124.83182777 -124.2320749 128.25326571 -127.66037941 131.67436981 C-137.17149599 141.16594359 -146.68104842 150.65907641 -156.18385601 160.15896988 C-156.79025271 160.76517901 -157.39664942 161.37138815 -158.02142178 161.99596725 C-159.25042902 163.22460827 -160.479435 164.45325056 -161.70843973 165.68189409 C-162.31842659 166.29169814 -162.92841345 166.9015022 -163.55688477 167.52978516 C-164.16762302 168.14034286 -164.77836128 168.75090057 -165.40760676 169.37996003 C-175.30839212 179.27720214 -185.22087269 189.1626404 -195.13855018 199.04295269 C-205.34561998 209.21187685 -215.54324048 219.39019645 -225.73140651 229.57806087 C-231.4420514 235.28812286 -237.15653241 240.99421882 -242.8813839 246.69004059 C-247.75390255 251.53796234 -252.61760578 256.39452213 -257.47034343 261.26224765 C-259.94207534 263.74111263 -262.41753153 266.21590357 -264.90424919 268.67974281 C-282.72525617 286.36532551 -296.46646141 303.3965032 -297.0390625 329.8125 C-296.43250819 346.9223861 -290.31007334 364.64243516 -278.56640625 377.4140625 C-263.76507959 391.17835353 -246.07677465 398.82530402 -225.86083984 398.59765625 C-198.06732738 397.56389714 -181.15370425 380.85485617 -162.56469727 362.25366211 C-160.73599723 360.43095287 -158.90688983 358.60865228 -157.07740784 356.78672791 C-152.64302769 352.36886982 -148.21413026 347.94555567 -143.78744436 343.51998919 C-140.1893018 339.92280033 -136.58957733 336.32720212 -132.98875237 332.73269844 C-122.76568129 322.52720783 -112.54677979 312.31756856 -102.33324695 302.10253208 C-101.78410798 301.55331319 -101.234969 301.00409431 -100.66918945 300.43823242 C-99.84447085 299.61339118 -99.84447085 299.61339118 -99.00309127 298.77188648 C-90.07715729 289.84513824 -81.14126759 280.92842981 -72.20085991 272.01617961 C-63.00709391 262.85114002 -53.82080446 253.67866492 -44.64225429 244.49838644 C-39.49438974 239.3498584 -34.34349976 234.2044442 -29.1845417 229.06702995 C-24.3383104 224.24090894 -19.50251388 219.40454304 -14.67362022 214.56107521 C-12.89972062 212.78508088 -11.12239449 211.01250152 -9.34142303 209.24359894 C-6.91203163 206.82960907 -4.49527845 204.40363051 -2.08131409 201.97422791 C-1.37315743 201.27635837 -0.66500076 200.57848884 0.06461519 199.85947174 C5.50044599 194.34645214 8.57126819 189.18330054 9.34375 181.2421875 C9.15501642 175.55920976 6.89734622 170.43917705 3.2734375 166.125 C3.2734375 165.465 3.2734375 164.805 3.2734375 164.125 C-3.50006149 160.45602138 -9.9521598 157.95197005 -17.7265625 159.125 C-27.02139058 162.20001097 -33.28355246 169.02753481 -39.93408203 175.82836914 C-41.12341896 177.02567846 -42.31390174 178.22185047 -43.50543213 179.41697693 C-46.05536926 181.97926793 -48.59731252 184.5491388 -51.13324356 187.12529182 C-55.14699388 191.20220622 -59.1795034 195.26022046 -63.21481323 199.31578064 C-71.04812806 207.19341797 -78.86300365 215.08919698 -86.67538452 222.98758698 C-96.62534794 233.04607224 -106.58157704 243.09826303 -116.55853736 253.12997717 C-120.5649561 257.15968709 -124.56103985 261.19928798 -128.54928231 265.2469846 C-131.03445912 267.7652757 -133.52794121 270.27521908 -136.02365875 272.78306007 C-137.17525958 273.94371527 -138.32339799 275.10781822 -139.46770096 276.2756691 C-153.23824152 290.32129929 -153.23824152 290.32129929 -163.65234375 291.16015625 C-171.09689357 291.03397744 -177.00142868 288.79653478 -182.35546875 283.51953125 C-187.82756794 277.54637238 -188.91183159 272.24507746 -189.28515625 264.296875 C-187.35614064 253.34330385 -179.46242735 246.14293156 -171.90649414 238.65795898 C-170.69592546 237.44060354 -169.4864205 236.22218953 -168.27789307 235.00280762 C-165.0100207 231.71225206 -161.72666285 228.43757784 -158.43949819 225.16630816 C-154.98586845 221.72540595 -151.54453288 218.27224173 -148.10118103 214.82106018 C-142.31396343 209.02476105 -136.5163206 203.23904684 -130.71264648 197.45922852 C-124.02946595 190.80320464 -117.3644183 184.12943072 -110.70860201 177.44605201 C-104.9715039 171.68615966 -99.22458843 165.93619902 -93.46956915 160.1942125 C-90.042344 156.77473199 -86.6184651 153.35208422 -83.20344734 149.92040825 C-79.9865122 146.68887877 -76.75730214 143.47011009 -73.51878357 140.26021576 C-72.34156543 139.08953148 -71.16843627 137.91471634 -70.00007439 136.73519325 C-54.02036107 120.61713286 -36.12672128 110.55629681 -12.9140625 109.8125 C5.25719825 110.19255251 23.01977264 117.04213163 36.53125 129.29296875 C51.31189859 144.83584809 57.80852068 162.68843927 57.69555664 183.88623047 C57.11481334 206.09918566 46.48248097 222.24228074 31.16796875 237.50462341 C30.3924639 238.28536494 29.61695906 239.06610646 28.81795406 239.87050682 C26.24531088 242.45802583 23.66569319 245.0384701 21.0859375 247.61889648 C19.22857737 249.48388645 17.37159713 251.34924822 15.51502991 253.21502686 C10.48898911 258.26379156 5.45561337 263.3052001 0.42073441 268.3451488 C-2.73048568 271.49964018 -5.88007295 274.65575838 -9.02932739 277.81221199 C-17.77110309 286.57353593 -26.51444264 295.33329048 -35.26454163 304.08630276 C-35.82304941 304.64499811 -36.3815572 305.20369347 -36.95698947 305.77931899 C-38.08891965 306.9116154 -39.2208511 308.04391054 -40.3527838 309.17620444 C-41.19546783 310.01916268 -41.19546783 310.01916268 -42.05517578 310.87915039 C-42.89890544 311.72315088 -42.89890544 311.72315088 -43.75968015 312.58420188 C-52.86604727 321.6941079 -61.96061831 330.8156916 -71.05003476 339.94250726 C-80.41095418 349.34163023 -89.78132436 358.73124384 -99.16121483 368.11143547 C-104.41587575 373.3666782 -109.66660076 378.62571546 -114.90698242 383.89520073 C-119.37016265 388.3830565 -123.84207759 392.86198459 -128.32507616 397.33004694 C-130.60583014 399.60369792 -132.88115647 401.88232302 -135.14823723 404.16961861 C-161.18684092 430.42601642 -190.2112508 447.00000783 -228.0390625 447.4375 C-260.41056701 447.32447505 -289.44922222 434.21883493 -312.31640625 411.55859375 C-313.50943359 410.35396484 -313.50943359 410.35396484 -314.7265625 409.125 C-315.66048828 408.18720703 -315.66048828 408.18720703 -316.61328125 407.23046875 C-338.50492228 383.91420899 -345.86858377 353.31908749 -345.109375 322.1484375 C-344.46964319 307.24147917 -341.06927069 293.60509444 -334.7265625 280.125 C-334.2936792 279.19977539 -334.2936792 279.19977539 -333.85205078 278.25585938 C-325.07807157 259.82528325 -311.14801546 246.10010949 -296.84240329 231.86332583 C-294.28818414 229.31806204 -291.74274838 226.76403736 -289.19612122 224.21118164 C-284.22405687 219.22969382 -279.24407864 214.25619308 -274.26120084 209.2855242 C-268.44720068 203.48523289 -262.64093057 197.67722841 -256.83483572 191.86902575 C-246.47093917 181.501949 -236.09966774 171.14228166 -225.72436523 160.78662109 C-215.67627706 150.75755015 -205.63418541 140.72252309 -195.59838867 130.68115234 C-184.64186874 119.71856495 -173.68222235 108.75912171 -162.71699435 97.80524385 C-161.54640651 96.63586319 -160.37581926 95.46648193 -159.20523262 94.29710007 C-158.62942145 93.72189244 -158.05361028 93.1466848 -157.46035029 92.55404664 C-153.41815981 88.51572262 -149.37809383 84.47528072 -145.33878899 80.43407059 C-140.4136103 75.50676272 -135.48474147 70.58318023 -130.55127495 65.6641701 C-128.03816894 63.15827141 -125.52661957 60.65086719 -123.01941299 58.13906479 C-120.29420985 55.40898803 -117.56122636 52.6867833 -114.82749939 49.96524048 C-114.04703198 49.18099374 -113.26656457 48.39674701 -112.46244663 47.58873522 C-82.12665904 17.49054462 -42.30831581 1.93963625 0 0 Z " fill="#000000" transform="translate(344.7265625,12.875)"/>
</svg>
