<?xml version="1.0" encoding="UTF-8"?>
<svg version="1.1" xmlns="http://www.w3.org/2000/svg" width="512" height="512">
<path d="M0 0 C0.9355925 -0.00979385 1.871185 -0.01958771 2.83512878 -0.02967834 C51.9980709 -0.438291 97.10218667 7.16947624 134.7578125 41.17578125 C135.28391113 41.64862549 135.81000977 42.12146973 136.35205078 42.60864258 C137.61230048 43.77506192 138.81596274 45.00205411 140.0078125 46.23828125 C140.0078125 46.89828125 140.0078125 47.55828125 140.0078125 48.23828125 C138.945625 48.25246094 137.8834375 48.26664063 136.7890625 48.28125 C125.47217211 48.50350772 125.47217211 48.50350772 116.0078125 54.23828125 C111.64063097 58.95024027 109.91523834 62.8445191 109.1328125 69.17578125 C108.2428941 74.88377346 106.95557242 78.02746131 102.2578125 81.55078125 C98.16117447 82.80253176 94.13394532 83.10299774 90.14453125 81.48046875 C88.3643083 80.47785982 86.68730234 79.40130825 85.0078125 78.23828125 C78.76064655 74.03345802 74.51254881 72.38600836 67.0078125 73.23828125 C61.14596664 74.98355574 56.97836528 77.62731673 53.0078125 82.23828125 C49.45854832 80.73355422 47.23869438 78.67618583 44.56640625 75.921875 C43.32020508 74.6524707 43.32020508 74.6524707 42.04882812 73.35742188 C41.18966797 72.47248047 40.33050781 71.58753906 39.4453125 70.67578125 C37.74037161 68.91990859 36.03094023 67.16838165 34.31640625 65.421875 C33.56157959 64.64384521 32.80675293 63.86581543 32.02905273 63.06420898 C28.57613917 59.94495056 25.51408053 60.12445598 21.05517578 60.15991211 C19.83025421 60.16578842 18.60533264 60.17166473 17.34329224 60.17771912 C16.68923527 60.18239134 16.0351783 60.18706356 15.36130142 60.19187737 C11.89058208 60.21107756 8.41995408 60.19584361 4.94921875 60.18554688 C0.5355967 60.17329663 -3.87705544 60.17164829 -8.29052734 60.21411133 C-11.86076867 60.24755251 -15.42909626 60.24205299 -18.99933243 60.21054268 C-20.35727386 60.20562323 -21.71534531 60.21487888 -23.07308578 60.23875237 C-33.74718538 60.41542253 -33.74718538 60.41542253 -36.83477783 57.49612427 C-38.13330078 55.36157227 -38.13330078 55.36157227 -39.02859497 53.2412262 C-40.83669346 49.4828723 -44.24853145 47.77245904 -47.9921875 46.23828125 C-54.47662164 44.43410154 -59.7140364 45.15178317 -65.796875 47.9453125 C-70.88787772 50.94375005 -73.70408906 55.48561698 -75.546875 61.03515625 C-76.72942667 66.88567505 -75.81894384 72.35011984 -72.9296875 77.55078125 C-69.56156921 82.31826101 -65.40807858 85.26144561 -59.79296875 86.8671875 C-52.84900823 88.01845495 -47.07238509 86.15484864 -41.1796875 82.48828125 C-39.26001203 80.5137579 -38.16903567 78.96593204 -36.85546875 76.59765625 C-36.24058594 75.4890625 -35.62570313 74.38046875 -34.9921875 73.23828125 C-27.4826902 72.81653549 -19.97444798 72.49914767 -12.4557209 72.30566216 C-8.96111199 72.21264434 -5.47472973 72.08726544 -1.98486328 71.88037109 C22.34463783 70.47458799 22.34463783 70.47458799 30.96972656 77.32519531 C35.4959003 81.55823753 39.42670735 86.18545029 43.0078125 91.23828125 C42.59644043 91.78242676 42.18506836 92.32657227 41.76123047 92.88720703 C41.22127441 93.60376465 40.68131836 94.32032227 40.125 95.05859375 C39.58987793 95.76773926 39.05475586 96.47688477 38.50341797 97.20751953 C34.77286902 102.27293027 33.40250292 106.32461643 33.58203125 112.5703125 C34.41715079 117.80321754 36.8320234 123.07307993 40.61328125 126.8359375 C42.88449214 129.11987226 43.01916896 131.3563884 43.3203125 134.48828125 C42.9473408 138.96394169 41.97189713 141.85201246 39.0078125 145.23828125 C35.00553591 147.55960167 31.47173935 148.37259573 26.9453125 149.17578125 C20.80643872 150.31984409 16.08425474 153.14488401 12.09887695 158.0559082 C10.52062665 161.21276196 9.98555482 164.52547591 9.36328125 167.96875 C9.23062866 168.66754272 9.09797607 169.36633545 8.96130371 170.08630371 C8.63656943 171.80233747 8.3212529 173.52014873 8.0078125 175.23828125 C-2.07545365 175.42369743 -12.15831397 175.56581499 -22.24293804 175.65277863 C-26.92583642 175.69451939 -31.60756811 175.75112372 -36.28979492 175.84179688 C-40.80918124 175.92876813 -45.32744617 175.97656376 -49.84760475 175.99729919 C-51.57133456 176.01207367 -53.29500338 176.04092724 -55.01825523 176.0841217 C-68.57811409 176.41046858 -68.57811409 176.41046858 -72.10684204 173.48535156 C-73.38951964 171.42853924 -74.17974429 169.51112152 -74.9921875 167.23828125 C-78.90412153 163.21768239 -83.49840845 161.15532628 -88.9921875 160.23828125 C-96.16819723 160.27911203 -101.3166406 162.25674161 -106.3984375 167.328125 C-110.86458329 172.68093209 -111.48943041 177.91558252 -111.27734375 184.65625 C-110.60723452 190.72395139 -107.44617207 194.31453294 -102.9921875 198.23828125 C-97.6713691 201.87201089 -93.44238778 202.76698619 -86.9921875 202.23828125 C-78.75190305 199.85520247 -74.61147825 195.16721738 -69.9921875 188.23828125 C-67.44866267 187.95167922 -65.14931786 187.85970447 -62.60498047 187.89770508 C-61.46337463 187.89704796 -61.46337463 187.89704796 -60.29870605 187.89637756 C-57.77700357 187.89847166 -55.25596167 187.92183124 -52.734375 187.9453125 C-50.98845788 187.95090626 -49.24253606 187.9551774 -47.49661255 187.95817566 C-42.8966171 187.96964177 -38.29690487 187.99912398 -33.69702148 188.0322876 C-29.00508455 188.06295054 -24.31310195 188.0766729 -19.62109375 188.09179688 C-10.41133375 188.12399212 -1.20178416 188.17520966 8.0078125 188.23828125 C8.19899658 189.2010498 8.39018066 190.16381836 8.5871582 191.15576172 C8.84585693 192.41791504 9.10455566 193.68006836 9.37109375 194.98046875 C9.62415283 196.2319873 9.87721191 197.48350586 10.13793945 198.77294922 C11.44346154 203.97378573 13.32023896 207.284843 17.65234375 210.43359375 C21.8135636 212.79891872 26.02835776 213.72129672 30.6953125 214.67578125 C36.07617029 215.81679745 38.84028673 216.71324444 42.0078125 221.23828125 C43.70732792 226.33682751 43.64408911 229.94300386 41.2578125 234.80078125 C40.52662576 235.95871043 39.77645035 237.10486611 39.0078125 238.23828125 C34.58107882 244.81514272 33.16361248 249.33563108 34.0078125 257.23828125 C35.74423273 262.69290568 38.78064607 266.48079998 43.0078125 270.23828125 C39.09897197 278.45152011 33.07879997 285.87151564 25.0078125 290.23828125 C15.61178658 292.65353468 5.70413146 291.83995033 -3.90454102 291.33691406 C-7.41655169 291.17098583 -10.93048405 291.09970196 -14.4453125 291.01953125 C-21.29888466 290.8496982 -28.1449816 290.57798401 -34.9921875 290.23828125 C-35.39370277 289.40404884 -35.39370277 289.40404884 -35.80332947 288.55296326 C-36.15818924 287.82706497 -36.51304901 287.10116669 -36.87866211 286.35327148 C-37.22883896 285.63211655 -37.57901581 284.91096161 -37.93980408 284.16795349 C-39.16719257 281.91738829 -40.38702904 280.66344798 -42.5546875 279.30078125 C-43.13347656 278.92050781 -43.71226562 278.54023438 -44.30859375 278.1484375 C-49.94876646 275.09934181 -57.23893154 275.3170841 -63.34765625 276.81640625 C-69.09951397 279.26400528 -72.44650101 283.62899274 -74.9921875 289.23828125 C-76.77944268 295.73465259 -76.28230535 301.35403202 -72.9921875 307.23828125 C-69.93995554 311.84798774 -66.3728351 314.95596664 -61.1796875 316.92578125 C-53.81956831 317.97722685 -48.35101226 317.19434398 -41.9921875 313.23828125 C-38.84092096 310.37766551 -36.82456827 307.05094796 -34.9921875 303.23828125 C-34.21624237 303.23463562 -33.44029724 303.23098999 -32.64083862 303.22723389 C-25.31378874 303.18930358 -17.9872445 303.13239458 -10.66052055 303.05437851 C-6.89410584 303.01493688 -3.12792374 302.98273251 0.63867188 302.96728516 C4.27645045 302.95209618 7.91358938 302.91761244 11.55108261 302.86997223 C12.93602806 302.85518123 14.32106485 302.84724154 15.70608902 302.8463974 C25.73736185 303.07277705 25.73736185 303.07277705 34.0078125 298.23828125 C35.16289307 297.19559082 35.16289307 297.19559082 36.34130859 296.13183594 C37.06398926 295.39868164 37.78666992 294.66552734 38.53125 293.91015625 C39.32402344 293.1109375 40.11679687 292.31171875 40.93359375 291.48828125 C42.14595703 290.25078125 42.14595703 290.25078125 43.3828125 288.98828125 C44.21425781 288.1478125 45.04570312 287.30734375 45.90234375 286.44140625 C47.94212797 284.37817623 49.97707536 282.31041002 52.0078125 280.23828125 C52.47541992 280.64965332 52.94302734 281.06102539 53.42480469 281.48486328 C54.04516602 282.02481934 54.66552734 282.56477539 55.3046875 283.12109375 C55.91666992 283.65621582 56.52865234 284.19133789 57.15917969 284.74267578 C62.32038389 288.91826175 67.69575914 289.8905226 74.16015625 289.73046875 C79.18844023 288.86138263 82.89923909 286.11989161 87.0078125 283.23828125 C91.30821167 280.43452556 93.80198892 279.68051444 99.0078125 280.23828125 C103.15965884 282.072818 105.44744871 284.53140918 108.0078125 288.23828125 C108.87890625 291.54296875 108.87890625 291.54296875 109.4453125 295.11328125 C110.75770623 301.78694297 112.10403748 306.37853909 117.6875 310.46875 C123.34207691 313.718372 129.62332518 314.42957952 136.0078125 315.23828125 C132.14937975 321.6508878 127.98802648 327.67607706 123.4453125 333.61328125 C99.54044031 365.05387824 99.54044031 365.05387824 90.80249023 402.70043945 C90.79245751 403.5534901 90.78242479 404.40654074 90.77208805 405.2854414 C90.7407985 408.03662115 90.71597136 410.78781536 90.69140625 413.5390625 C90.672994 415.2416632 90.65415685 416.94425937 90.6348877 418.64685059 C90.56654803 424.94810708 90.50642614 431.24945053 90.4453125 437.55078125 C90.3009375 451.63765625 90.1565625 465.72453125 90.0078125 480.23828125 C34.2378125 480.23828125 -21.5321875 480.23828125 -78.9921875 480.23828125 C-78.9921875 455.81828125 -78.9921875 431.39828125 -78.9921875 406.23828125 C-84.2721875 405.90828125 -89.5521875 405.57828125 -94.9921875 405.23828125 C-116.34163722 400.79047922 -134.69659885 390.48330885 -147.12109375 372.0859375 C-162.46295426 346.67143232 -162.4781167 320.01774942 -161.9921875 291.23828125 C-162.81451622 291.248274 -162.81451622 291.248274 -163.65345764 291.25846863 C-169.38015861 291.3250474 -175.10674887 291.37017503 -180.83374023 291.40307617 C-182.96855132 291.41812487 -185.10333169 291.43856861 -187.23803711 291.46459961 C-190.31371664 291.50115511 -193.38898594 291.51804715 -196.46484375 291.53125 C-197.41303482 291.54673386 -198.36122589 291.56221771 -199.33815002 291.57817078 C-205.0139481 291.57959913 -208.98523522 290.97710252 -213.9921875 288.23828125 C-217.39470586 284.74851883 -218.26015932 281.93127844 -218.4140625 277.19140625 C-218.30547876 270.63964691 -216.00013551 266.09412275 -212.8046875 260.48828125 C-212.26585937 259.50021484 -211.72703125 258.51214844 -211.171875 257.49414062 C-209.4713378 254.39350755 -207.73714477 251.31410495 -205.9921875 248.23828125 C-205.17500244 246.78905273 -205.17500244 246.78905273 -204.34130859 245.31054688 C-202.18638618 241.49084126 -200.02689405 237.67391829 -197.85083008 233.86621094 C-193.54317929 226.30649864 -189.50853304 218.62714521 -185.52709961 210.8918457 C-181.3668699 202.8527711 -176.95698475 194.97050157 -172.44335938 187.125 C-171.42703948 185.35255871 -170.42036157 183.57454891 -169.42407227 181.79077148 C-168.49614523 180.13664069 -167.54222518 178.49672067 -166.55834961 176.87524414 C-162.77090678 170.20964671 -162.05145599 163.90679072 -161.56286621 156.32196045 C-161.33518022 152.86649691 -161.02756285 149.41812345 -160.72265625 145.96875 C-160.66377228 145.29221375 -160.60488831 144.61567749 -160.54421997 143.91864014 C-156.9624315 104.17607511 -136.93566717 65.82770707 -106.91796875 39.6328125 C-76.71886877 14.9171272 -39.25324899 0.34032583 0 0 Z " fill="#000000" transform="translate(233.9921875,15.76171875)"/>
<path d="M0 0 C0.69512695 -0.0038269 1.39025391 -0.00765381 2.10644531 -0.01159668 C3.57228041 -0.0143118 5.03816428 -0.00697835 6.50390625 0.00976562 C8.74328975 0.03118581 10.97946587 0.00995557 13.21875 -0.015625 C14.64584039 -0.01298165 16.07292879 -0.0078565 17.5 0 C19.44132812 0.00676758 19.44132812 0.00676758 21.421875 0.01367188 C25.28014911 0.6136969 26.45628395 1.42895527 28.75 4.53125 C29.5859375 7.66796875 29.5859375 7.66796875 30.125 11.21875 C31.58827853 18.70637736 33.63958567 24.56975356 40 29.15234375 C46.79080761 33.09503304 52.91617515 34.36071381 60.75 33.53125 C65.54584354 32.0987253 69.49053759 29.81937239 73.4375 26.78125 C75.69363558 25.12537067 76.89527171 24.49415935 79.6875 23.78125 C84.56423063 24.97555138 87.24551827 28.04930513 90.75 31.53125 C91.87229176 32.6277107 92.99469604 33.72405624 94.1171875 34.8203125 C104.54798489 45.0882849 104.54798489 45.0882849 105.1875 49.65625 C104.6627435 54.30409329 103.15239618 55.9752606 100.28515625 59.5 C96.52366268 64.47703983 95.16971206 69.97618203 95.39453125 76.1640625 C96.34835877 82.51592487 99.05817899 89.09304094 103.75 93.53125 C109.54801267 97.75922512 114.95401261 99.20169826 122.05078125 99.87890625 C125.50467492 100.71363887 126.58080166 101.72467035 128.75 104.53125 C129.26757812 107.859375 129.26757812 107.859375 129.28125 111.78125 C129.2850769 112.47637695 129.28890381 113.17150391 129.29284668 113.88769531 C129.2955618 115.35353041 129.28822835 116.81941428 129.27148438 118.28515625 C129.25006419 120.52453975 129.27129443 122.76071587 129.296875 125 C129.29423165 126.42709039 129.2891065 127.85417879 129.28125 129.28125 C129.27673828 130.57546875 129.27222656 131.8696875 129.26757812 133.203125 C128.66747078 137.06192847 127.85407555 138.23854648 124.75 140.53125 C121.578125 141.3671875 121.578125 141.3671875 118 141.90625 C110.09016157 143.41915049 105.9372577 146.2578502 100.4375 151.90625 C96.47966157 158.06288756 94.66071315 164.20882175 95.75 171.53125 C97.1601336 176.54253125 98.92355199 180.88756922 102.5 184.71875 C104.75 187.53125 104.75 187.53125 105.5 190.90625 C104.38899104 196.27612663 101.55331045 198.71584635 97.75 202.53125 C96.64713251 203.73589963 95.54710137 204.94314932 94.44921875 206.15234375 C93.23859482 207.44682538 92.02633949 208.73978313 90.8125 210.03125 C90.23999512 210.66748291 89.66749023 211.30371582 89.07763672 211.95922852 C86.07449358 215.06790123 83.99561216 216.9432589 79.55859375 217.11328125 C75.85445421 216.54721275 74.43560746 216.18255506 71.75 213.71875 C66.44257125 209.33390164 61.00869276 206.85416609 53.953125 207.1875 C45.56744624 208.49590378 38.85165602 211.65574232 33.75 218.53125 C30.71772006 223.94603561 29.88627221 229.54405781 28.88671875 235.640625 C27.75 238.53125 27.75 238.53125 25.45703125 240.3984375 C19.89335272 242.09861324 14.53366804 241.96395844 8.75 241.90625 C7.00589844 241.92365234 7.00589844 241.92365234 5.2265625 241.94140625 C-6.26949606 241.90194609 -6.26949606 241.90194609 -10.25 238.53125 C-11.26265507 235.78389882 -11.88647956 233.55473969 -12.375 230.71875 C-13.43146348 225.0441813 -14.79989053 221.31988742 -18.25 216.53125 C-18.25 215.87125 -18.25 215.21125 -18.25 214.53125 C-18.8275 214.24378906 -19.405 213.95632813 -20 213.66015625 C-21.42092503 212.94722685 -22.83815251 212.22683512 -24.25 211.49609375 C-25.24 210.98755859 -25.24 210.98755859 -26.25 210.46875 C-26.91 210.12714844 -27.57 209.78554688 -28.25 209.43359375 C-34.66133061 206.5409817 -40.89045505 206.79681152 -47.375 209.21875 C-50.53442566 210.56246914 -52.89567681 211.91646076 -55.375 214.28125 C-58.35727149 216.6152016 -60.1280885 217.33730397 -63.9140625 217.2265625 C-69.29341565 215.62535036 -72.96815362 210.63912932 -76.6875 206.65625 C-77.59693359 205.71910156 -78.50636719 204.78195312 -79.44335938 203.81640625 C-87.05651597 195.91327879 -87.05651597 195.91327879 -87.6875 191.40625 C-87.1627435 186.75840671 -85.65239618 185.0872394 -82.78515625 181.5625 C-79.02981533 176.59360107 -77.6373461 171.0702659 -77.9140625 164.88671875 C-79.09818769 156.58407356 -82.6140814 151.48834265 -88.93359375 146.125 C-93.87945089 142.72211684 -98.78848866 142.05050391 -104.62890625 141.2890625 C-107.96299668 140.32510789 -109.12035884 139.2719427 -111.25 136.53125 C-111.76757812 133.203125 -111.76757812 133.203125 -111.78125 129.28125 C-111.7850769 128.58612305 -111.78890381 127.89099609 -111.79284668 127.17480469 C-111.7955618 125.70896959 -111.78822835 124.24308572 -111.77148438 122.77734375 C-111.75006419 120.53796025 -111.77129443 118.30178413 -111.796875 116.0625 C-111.79423165 114.63540961 -111.7891065 113.20832121 -111.78125 111.78125 C-111.77673828 110.48703125 -111.77222656 109.1928125 -111.76757812 107.859375 C-111.16924916 104.01200689 -110.33689753 102.82540342 -107.25 100.53125 C-104.5859375 99.9140625 -104.5859375 99.9140625 -101.625 99.65625 C-94.11607937 98.57569801 -88.07975477 96.18514924 -83.33203125 90.0546875 C-79.13160757 83.2901097 -77.35557315 77.49413346 -78.25 69.53125 C-79.63648188 64.52032364 -81.43016698 60.16784463 -85 56.34375 C-87.25 53.53125 -87.25 53.53125 -88 50.15625 C-86.89512193 44.816006 -84.0547686 42.30523569 -80.25 38.53125 C-79.15266078 37.41112041 -78.05638713 36.28994636 -76.9609375 35.16796875 C-66.6324665 24.66565647 -66.6324665 24.66565647 -62.4375 24.2578125 C-58.6619399 24.58169633 -57.20105394 25.58891597 -54.25 27.90625 C-47.43234124 32.92818614 -41.68700309 34.53477019 -33.25 33.53125 C-27.06156567 31.86962395 -22.34537994 29.59024875 -18.25 24.53125 C-17.198125 23.3246875 -17.198125 23.3246875 -16.125 22.09375 C-13.35058399 17.86553999 -12.95645258 12.66941381 -12.15625 7.7734375 C-10.24946896 0.95176397 -6.71057166 0.02339343 0 0 Z M-34.25 81.53125 C-34.82363281 82.09457031 -35.39726562 82.65789062 -35.98828125 83.23828125 C-45.97069275 93.83975703 -49.76263936 108.38457624 -49.6015625 122.59960938 C-49.05955136 138.33298818 -42.3453984 152.4358516 -31.25 163.53125 C-16.66899511 175.69154331 -0.9204903 179.95247805 17.75 178.53125 C34.72815539 175.68728048 47.72895339 166.41793588 57.66796875 152.75390625 C60.79187149 147.91859713 62.93142494 142.9793341 64.75 137.53125 C65.11738281 136.44650391 65.11738281 136.44650391 65.4921875 135.33984375 C69.53784531 120.73668166 66.62060981 104.71136114 59.6796875 91.5546875 C50.76952701 77.59423362 37.08454124 66.96288897 20.8125 63.15625 C-0.67445338 59.7837023 -19.06061941 66.12053053 -34.25 81.53125 Z " fill="#000000" transform="translate(367.25,76.46875)"/>
</svg>
