<?xml version="1.0" encoding="UTF-8"?>
<svg version="1.1" xmlns="http://www.w3.org/2000/svg" width="512" height="512">
<path d="M0 0 C1.55906511 -0.00679667 1.55906511 -0.00679667 3.14962649 -0.01373065 C6.63167692 -0.02638869 10.11357121 -0.02475334 13.59564209 -0.02310181 C16.09258729 -0.0290862 18.58953064 -0.03589154 21.08647156 -0.04345703 C27.16504598 -0.0592978 33.24355906 -0.06556586 39.32214841 -0.06668179 C44.26519388 -0.06763312 49.20822658 -0.07174764 54.15126801 -0.07808304 C68.17623871 -0.09569176 82.20117884 -0.10492259 96.22616068 -0.10342209 C96.98182489 -0.10334218 97.73748911 -0.10326227 98.51605225 -0.10317993 C99.65093823 -0.10305729 99.65093823 -0.10305729 100.8087512 -0.10293217 C113.06543436 -0.10211958 125.32199455 -0.12125139 137.57864216 -0.14945666 C150.17400737 -0.17821186 162.76931266 -0.19199548 175.36471152 -0.19026911 C182.43189676 -0.18960608 189.4989531 -0.19506028 196.5661087 -0.21662521 C203.21456875 -0.23678298 209.86280353 -0.23613637 216.51129341 -0.22159195 C218.9485139 -0.21950188 221.38575137 -0.22421644 223.82294273 -0.23631287 C227.15628748 -0.25178271 230.48869642 -0.24244463 233.82202148 -0.22705078 C234.78099217 -0.23733791 235.73996285 -0.24762503 236.72799325 -0.25822389 C247.43398157 -0.14935501 255.24597289 3.7103924 262.66497803 11.26742554 C269.12503749 17.9069311 271.12083789 26.1463772 271.11816406 35.17614746 C271.09751892 36.24009735 271.07687378 37.30404724 271.05560303 38.40023804 C271.04994324 39.51808685 271.04428345 40.63593567 271.03845215 41.78765869 C271.01624023 45.32303515 270.96607114 48.85736058 270.91497803 52.39242554 C270.89489346 54.80386913 270.87664614 57.21532877 270.86029053 59.62680054 C270.81642539 65.50736142 270.74966678 71.38731836 270.66497803 77.26742554 C271.58786621 76.66196899 272.51075439 76.05651245 273.46160889 75.43270874 C293.7676883 62.18922375 313.93434173 54.84703379 338.41497803 54.95492554 C339.41142838 54.95815826 339.41142838 54.95815826 340.42800903 54.9614563 C350.21841395 55.01246258 359.2577412 55.37289113 368.66497803 58.26742554 C369.32143311 58.46078491 369.97788818 58.65414429 370.65423584 58.85336304 C385.96438912 63.44003864 399.63527197 70.6952436 411.66497803 81.26742554 C412.48224365 81.94160522 413.29950928 82.61578491 414.14154053 83.31039429 C434.87584979 100.93134751 447.21259423 127.69528011 450.41497803 154.45492554 C450.52596137 156.05741667 450.60728779 157.66213211 450.66497803 159.26742554 C450.70493896 160.31930054 450.7448999 161.37117554 450.78607178 162.45492554 C451.19365432 183.9369233 446.19125849 203.63440016 435.66497803 222.26742554 C435.10939209 223.26387085 434.55380615 224.26031616 433.98138428 225.28695679 C429.47833278 232.83523736 423.73887385 238.98226378 417.66497803 245.26742554 C416.9611499 246.02281616 416.25732178 246.77820679 415.53216553 247.55648804 C410.73204391 252.58981394 405.50739428 256.51219752 399.66497803 260.26742554 C398.79486084 260.84363647 397.92474365 261.41984741 397.02825928 262.01351929 C371.89059944 277.75523374 340.38962059 281.43646072 311.7008667 274.9546814 C307.52003745 273.91229202 303.63866605 272.52317719 299.71087646 270.74911499 C293.28891202 269.23711787 286.94042403 273.19815575 281.28997803 275.82992554 C280.36314209 276.25467163 279.43630615 276.67941772 278.48138428 277.11703491 C276.20622118 278.1607953 273.93430767 279.21105736 271.66497803 280.26742554 C271.66277819 281.84610192 271.66277819 281.84610192 271.66053391 283.45667076 C271.62391843 309.08002612 271.56444187 334.70325098 271.48107529 360.32649803 C271.44128736 372.71777943 271.40889356 385.10899733 271.39398193 397.50033569 C271.38096421 408.30221387 271.35399625 419.10395233 271.31036496 429.90575182 C271.2877531 435.62379738 271.2720672 441.34167063 271.27309418 447.05976486 C271.27384093 452.44588683 271.25588332 457.83162795 271.2238102 463.21765137 C271.21531743 465.19042854 271.21355701 467.16324846 271.21917534 469.13603592 C271.25160209 482.27621962 270.87783895 492.60470457 261.37591553 502.58773804 C254.34393145 509.49128405 246.61263026 512.68830719 236.74664164 512.80239916 C235.79039943 512.79347627 234.83415723 512.78455338 233.84893799 512.77536011 C232.80614355 512.78160007 231.7633491 512.78784003 230.68895483 512.79426908 C227.21913921 512.81013462 223.75003236 512.79761962 220.2802124 512.78500366 C217.78267509 512.79042761 215.28514099 512.7975518 212.78761292 512.8062439 C206.72287561 512.82255956 200.65841312 512.82021354 194.5936867 512.80859333 C189.66216766 512.7995378 184.73070406 512.79834414 179.79917908 512.8026886 C178.7439666 512.803608 178.7439666 512.803608 177.66743669 512.80454597 C176.23807433 512.80582495 174.80871198 512.8071218 173.37934965 512.80843633 C159.99495769 512.81982624 146.61067555 512.80675346 133.22630161 512.78523487 C121.75674946 512.7673653 110.28735929 512.77046986 98.81781006 512.78890991 C85.47936734 512.8103448 72.14102073 512.81872775 58.80256319 512.80646086 C57.37863447 512.80518674 55.95470573 512.80392926 54.53077698 512.8026886 C53.83028586 512.8020715 53.12979474 512.80145439 52.40807661 512.80081859 C47.48588959 512.79737353 42.56376383 512.80317576 37.6415863 512.81260681 C31.00946367 512.82503557 24.37759865 512.81611138 17.74548912 512.79302979 C15.31472467 512.78775085 12.88393443 512.78924244 10.45318031 512.79808044 C7.12878208 512.80905121 3.80535485 512.79525256 0.48101807 512.77536011 C-0.47522414 512.78428299 -1.43146634 512.79320588 -2.41668558 512.80239916 C-12.3194809 512.68788155 -21.16039239 509.17975683 -28.33502197 502.26742554 C-37.97169202 491.07927347 -37.77381096 477.86537605 -37.72270203 463.87243652 C-37.72687921 462.0077949 -37.73235884 460.14315582 -37.73902184 458.27852142 C-37.75344458 453.17490987 -37.74924162 448.07146025 -37.74185503 442.96783996 C-37.73711782 437.45578871 -37.7496381 431.94377222 -37.75987244 426.43173218 C-37.77705488 415.64107511 -37.77790159 404.8504763 -37.77265953 394.0598091 C-37.76861559 385.28776992 -37.77006406 376.51574793 -37.77540779 367.74370956 C-37.77615621 366.49449007 -37.77690464 365.24527058 -37.77767574 363.95819595 C-37.77920724 361.42028332 -37.78074559 358.8823707 -37.7822907 356.34445809 C-37.79211693 339.30866819 -37.79628588 322.2728841 -37.78866482 305.23709297 C-37.78836764 304.57139415 -37.78807047 303.90569533 -37.78776429 303.21982381 C-37.78531553 297.81440504 -37.78270386 292.40898635 -37.78008016 287.00356766 C-37.76997892 265.92205643 -37.77833288 244.84062487 -37.80157471 223.75912476 C-37.8276661 200.05477604 -37.84044071 176.35046469 -37.83338696 152.64609802 C-37.82989528 140.10212536 -37.83212346 127.55821811 -37.84963799 115.01425552 C-37.86436285 104.33598335 -37.86499158 93.65782264 -37.84756707 82.97955264 C-37.83905717 77.53387931 -37.83690749 72.08840508 -37.85221863 66.64274216 C-37.86607563 61.65239674 -37.86128932 56.66242081 -37.84197939 51.67209671 C-37.83822222 49.87207261 -37.84113313 48.07201884 -37.85159104 46.27202119 C-37.92188587 33.24077908 -37.28640525 20.60853307 -28.39361572 10.20492554 C-20.05857327 2.3601797 -11.12633585 -0.03560364 0 0 Z " fill="#00BBD3" transform="translate(49.33502197265625,-0.267425537109375)"/>
<path d="M0 0 C1.55906511 -0.00679667 1.55906511 -0.00679667 3.14962649 -0.01373065 C6.63167692 -0.02638869 10.11357121 -0.02475334 13.59564209 -0.02310181 C16.09258729 -0.0290862 18.58953064 -0.03589154 21.08647156 -0.04345703 C27.16504598 -0.0592978 33.24355906 -0.06556586 39.32214841 -0.06668179 C44.26519388 -0.06763312 49.20822658 -0.07174764 54.15126801 -0.07808304 C68.17623871 -0.09569176 82.20117884 -0.10492259 96.22616068 -0.10342209 C96.98182489 -0.10334218 97.73748911 -0.10326227 98.51605225 -0.10317993 C99.65093823 -0.10305729 99.65093823 -0.10305729 100.8087512 -0.10293217 C113.06543436 -0.10211958 125.32199455 -0.12125139 137.57864216 -0.14945666 C150.17400737 -0.17821186 162.76931266 -0.19199548 175.36471152 -0.19026911 C182.43189676 -0.18960608 189.4989531 -0.19506028 196.5661087 -0.21662521 C203.21456875 -0.23678298 209.86280353 -0.23613637 216.51129341 -0.22159195 C218.9485139 -0.21950188 221.38575137 -0.22421644 223.82294273 -0.23631287 C227.15628748 -0.25178271 230.48869642 -0.24244463 233.82202148 -0.22705078 C234.78099217 -0.23733791 235.73996285 -0.24762503 236.72799325 -0.25822389 C247.43398157 -0.14935501 255.24597289 3.7103924 262.66497803 11.26742554 C269.12503749 17.9069311 271.12083789 26.1463772 271.11816406 35.17614746 C271.09751892 36.24009735 271.07687378 37.30404724 271.05560303 38.40023804 C271.04994324 39.51808685 271.04428345 40.63593567 271.03845215 41.78765869 C271.01624023 45.32303515 270.96607114 48.85736058 270.91497803 52.39242554 C270.89489346 54.80386913 270.87664614 57.21532877 270.86029053 59.62680054 C270.81642539 65.50736142 270.74966678 71.38731836 270.66497803 77.26742554 C271.58786621 76.66196899 272.51075439 76.05651245 273.46160889 75.43270874 C293.7676883 62.18922375 313.93434173 54.84703379 338.41497803 54.95492554 C339.41142838 54.95815826 339.41142838 54.95815826 340.42800903 54.9614563 C350.21841395 55.01246258 359.2577412 55.37289113 368.66497803 58.26742554 C369.32143311 58.46078491 369.97788818 58.65414429 370.65423584 58.85336304 C385.96438912 63.44003864 399.63527197 70.6952436 411.66497803 81.26742554 C412.48224365 81.94160522 413.29950928 82.61578491 414.14154053 83.31039429 C434.87584979 100.93134751 447.21259423 127.69528011 450.41497803 154.45492554 C450.52596137 156.05741667 450.60728779 157.66213211 450.66497803 159.26742554 C450.70493896 160.31930054 450.7448999 161.37117554 450.78607178 162.45492554 C451.19365432 183.9369233 446.19125849 203.63440016 435.66497803 222.26742554 C435.10939209 223.26387085 434.55380615 224.26031616 433.98138428 225.28695679 C429.47833278 232.83523736 423.73887385 238.98226378 417.66497803 245.26742554 C416.9611499 246.02281616 416.25732178 246.77820679 415.53216553 247.55648804 C410.73204391 252.58981394 405.50739428 256.51219752 399.66497803 260.26742554 C398.79486084 260.84363647 397.92474365 261.41984741 397.02825928 262.01351929 C371.89059944 277.75523374 340.38962059 281.43646072 311.7008667 274.9546814 C307.52003745 273.91229202 303.63866605 272.52317719 299.71087646 270.74911499 C293.28891202 269.23711787 286.94042403 273.19815575 281.28997803 275.82992554 C280.36314209 276.25467163 279.43630615 276.67941772 278.48138428 277.11703491 C276.20622118 278.1607953 273.93430767 279.21105736 271.66497803 280.26742554 C271.66277819 281.84610192 271.66277819 281.84610192 271.66053391 283.45667076 C271.62391843 309.08002612 271.56444187 334.70325098 271.48107529 360.32649803 C271.44128736 372.71777943 271.40889356 385.10899733 271.39398193 397.50033569 C271.38096421 408.30221387 271.35399625 419.10395233 271.31036496 429.90575182 C271.2877531 435.62379738 271.2720672 441.34167063 271.27309418 447.05976486 C271.27384093 452.44588683 271.25588332 457.83162795 271.2238102 463.21765137 C271.21531743 465.19042854 271.21355701 467.16324846 271.21917534 469.13603592 C271.25160209 482.27621962 270.87783895 492.60470457 261.37591553 502.58773804 C254.34393145 509.49128405 246.61263026 512.68830719 236.74664164 512.80239916 C235.79039943 512.79347627 234.83415723 512.78455338 233.84893799 512.77536011 C232.80614355 512.78160007 231.7633491 512.78784003 230.68895483 512.79426908 C227.21913921 512.81013462 223.75003236 512.79761962 220.2802124 512.78500366 C217.78267509 512.79042761 215.28514099 512.7975518 212.78761292 512.8062439 C206.72287561 512.82255956 200.65841312 512.82021354 194.5936867 512.80859333 C189.66216766 512.7995378 184.73070406 512.79834414 179.79917908 512.8026886 C178.7439666 512.803608 178.7439666 512.803608 177.66743669 512.80454597 C176.23807433 512.80582495 174.80871198 512.8071218 173.37934965 512.80843633 C159.99495769 512.81982624 146.61067555 512.80675346 133.22630161 512.78523487 C121.75674946 512.7673653 110.28735929 512.77046986 98.81781006 512.78890991 C85.47936734 512.8103448 72.14102073 512.81872775 58.80256319 512.80646086 C57.37863447 512.80518674 55.95470573 512.80392926 54.53077698 512.8026886 C53.83028586 512.8020715 53.12979474 512.80145439 52.40807661 512.80081859 C47.48588959 512.79737353 42.56376383 512.80317576 37.6415863 512.81260681 C31.00946367 512.82503557 24.37759865 512.81611138 17.74548912 512.79302979 C15.31472467 512.78775085 12.88393443 512.78924244 10.45318031 512.79808044 C7.12878208 512.80905121 3.80535485 512.79525256 0.48101807 512.77536011 C-0.47522414 512.78428299 -1.43146634 512.79320588 -2.41668558 512.80239916 C-12.3194809 512.68788155 -21.16039239 509.17975683 -28.33502197 502.26742554 C-37.97169202 491.07927347 -37.77381096 477.86537605 -37.72270203 463.87243652 C-37.72687921 462.0077949 -37.73235884 460.14315582 -37.73902184 458.27852142 C-37.75344458 453.17490987 -37.74924162 448.07146025 -37.74185503 442.96783996 C-37.73711782 437.45578871 -37.7496381 431.94377222 -37.75987244 426.43173218 C-37.77705488 415.64107511 -37.77790159 404.8504763 -37.77265953 394.0598091 C-37.76861559 385.28776992 -37.77006406 376.51574793 -37.77540779 367.74370956 C-37.77615621 366.49449007 -37.77690464 365.24527058 -37.77767574 363.95819595 C-37.77920724 361.42028332 -37.78074559 358.8823707 -37.7822907 356.34445809 C-37.79211693 339.30866819 -37.79628588 322.2728841 -37.78866482 305.23709297 C-37.78836764 304.57139415 -37.78807047 303.90569533 -37.78776429 303.21982381 C-37.78531553 297.81440504 -37.78270386 292.40898635 -37.78008016 287.00356766 C-37.76997892 265.92205643 -37.77833288 244.84062487 -37.80157471 223.75912476 C-37.8276661 200.05477604 -37.84044071 176.35046469 -37.83338696 152.64609802 C-37.82989528 140.10212536 -37.83212346 127.55821811 -37.84963799 115.01425552 C-37.86436285 104.33598335 -37.86499158 93.65782264 -37.84756707 82.97955264 C-37.83905717 77.53387931 -37.83690749 72.08840508 -37.85221863 66.64274216 C-37.86607563 61.65239674 -37.86128932 56.66242081 -37.84197939 51.67209671 C-37.83822222 49.87207261 -37.84113313 48.07201884 -37.85159104 46.27202119 C-37.92188587 33.24077908 -37.28640525 20.60853307 -28.39361572 10.20492554 C-20.05857327 2.3601797 -11.12633585 -0.03560364 0 0 Z M-15.33502197 22.26742554 C-18.60110912 27.26694838 -19.83518691 30.40752885 -19.83838654 36.50953579 C-19.8442003 37.20744914 -19.85001406 37.90536249 -19.856004 38.62442473 C-19.87057112 40.95682505 -19.85673513 43.28816753 -19.84295654 45.62055969 C-19.84756679 47.31207315 -19.85392054 49.0035826 -19.86186552 50.69508368 C-19.8785652 55.33857775 -19.87030954 59.98174303 -19.85792065 64.6252383 C-19.84887504 69.63488104 -19.86283751 74.64446702 -19.87384033 79.65409851 C-19.89163573 89.46640496 -19.88778089 99.27858909 -19.87618977 109.09090035 C-19.86715924 117.06550408 -19.86592981 125.0400735 -19.87028503 133.01468086 C-19.87089797 134.14932076 -19.8715109 135.28396065 -19.8721424 136.45298358 C-19.8734213 138.757937 -19.87471815 141.06289041 -19.87603277 143.36784381 C-19.88744169 164.98665712 -19.87432021 186.6054026 -19.8528313 208.22420479 C-19.83496247 226.77534816 -19.83806208 245.3263914 -19.85650635 263.87753296 C-19.87791168 285.41700485 -19.88634049 306.95641727 -19.87405729 328.49589831 C-19.87278309 330.79271701 -19.87152561 333.08953572 -19.87028503 335.38635445 C-19.86966793 336.51644905 -19.86905083 337.64654364 -19.86841503 338.81088353 C-19.86496094 346.77567472 -19.8707918 354.7404282 -19.88020325 362.70521355 C-19.89142095 372.4120642 -19.88838803 382.11878547 -19.86708027 391.8256213 C-19.85656647 396.77851017 -19.8524537 401.7311833 -19.86567688 406.68407059 C-19.8775998 411.21851394 -19.87103981 415.75254165 -19.84976667 420.28694732 C-19.84530017 421.92683848 -19.84756799 423.56676478 -19.85726982 425.20663332 C-20.09468854 438.06981193 -20.09468854 438.06981193 -13.87282079 448.82549655 C-9.03684773 452.94220387 -4.22159522 452.97252213 1.90592957 452.89561462 C2.92307055 452.90270901 3.94021154 452.9098034 4.98817497 452.91711277 C8.38921166 452.93468482 11.78910437 452.91659087 15.19012451 452.89852905 C17.63135295 452.90366816 20.07257767 452.91094937 22.51379395 452.92021179 C28.45195291 452.93681246 34.38981114 452.93008986 40.32794075 452.91212357 C45.15562754 452.89808261 49.98322501 452.89420797 54.81093025 452.89756584 C55.49873699 452.89804328 56.18654372 452.89852073 56.89519309 452.89901264 C58.29258952 452.900039 59.68998593 452.90109436 61.08738232 452.9021784 C73.43761351 452.91074143 85.78768588 452.89408419 98.13787842 452.86434937 C110.11255567 452.83551917 122.0870041 452.82842592 134.06170654 452.84384155 C147.11042514 452.86061688 160.15903513 452.86462388 173.20775658 452.84713119 C174.60024105 452.84528687 175.99272554 452.84345214 177.38521004 452.84162712 C178.07028288 452.84071503 178.75535573 452.83980294 179.46118836 452.83886321 C184.28058079 452.8332656 189.09992008 452.83655781 193.91930962 452.84317207 C200.41104526 452.85172802 206.9025258 452.8386999 213.39421082 452.81132317 C215.77581874 452.80444067 218.15745742 452.80433987 220.53906441 452.8115387 C223.79209056 452.82023792 227.04410148 452.80426787 230.29704285 452.78208923 C231.70819568 452.79445038 231.70819568 452.79445038 233.14785665 452.80706125 C239.07086638 452.73261612 243.76881702 451.75354819 248.66497803 448.26742554 C252.69102607 443.20905749 253.79047794 439.49881929 253.78523254 433.13615417 C253.78660721 431.85307877 253.78798187 430.57000336 253.78939819 429.24804688 C253.78585903 427.82327247 253.78222422 426.3984983 253.77850342 424.97372437 C253.77822139 423.47576398 253.77837958 421.97780345 253.77894592 420.47984314 C253.7792333 416.40989059 253.77334617 412.3399674 253.76637197 408.27002168 C253.76012853 404.01791167 253.75953384 399.76580102 253.75834656 395.51368713 C253.75523617 387.46018957 253.7470267 379.40670556 253.73699707 371.35321397 C253.72582687 362.1852433 253.72032319 353.01727199 253.71530163 343.84929621 C253.70484386 324.98866497 253.68725006 306.12804634 253.66497803 287.26742554 C252.24680786 287.75420776 252.24680786 287.75420776 250.79998779 288.25082397 C245.95376626 289.8223267 241.79196877 289.77605376 236.78997803 288.57992554 C234.66497803 287.26742554 234.66497803 287.26742554 233.35247803 285.26742554 C231.46778362 277.04330447 232.91812757 270.16299882 235.98138428 262.46273804 C236.31669662 261.57633636 236.65200897 260.68993469 236.9974823 259.77667236 C238.05868007 256.97571572 239.14105035 254.18368297 240.22747803 251.39242554 C241.31543403 248.57908629 242.39835515 245.7641932 243.46818542 242.94390869 C244.13150916 241.19677625 244.80549361 239.45364525 245.49128723 237.71520996 C245.79167404 236.92693817 246.09206085 236.13866638 246.40155029 235.32650757 C246.67024429 234.63719147 246.93893829 233.94787537 247.21577454 233.2376709 C248.08613972 229.42017391 246.39652082 226.52387352 244.55560303 223.24789429 C229.23395699 195.45167767 224.28804672 166.19959503 232.66497803 135.26742554 C235.81384334 124.53760781 240.44686169 111.63255426 248.38430786 103.50744629 C254.79239366 96.66931432 254.64654126 89.80135561 254.48919678 80.94320679 C254.48628766 79.46828996 254.48591037 77.99336619 254.4879303 76.51844788 C254.48472919 73.44256289 254.45796043 70.36812097 254.41278076 67.29257202 C254.35596219 63.36158389 254.34793932 59.43238211 254.35618877 55.50105 C254.35899267 52.46134538 254.34134999 49.42203536 254.31705666 46.38243675 C254.30688912 44.93326643 254.30174879 43.48405134 254.30185509 42.03484535 C254.29786565 40.00847533 254.26459093 37.98222772 254.23016357 35.95614624 C254.21793259 34.80636795 254.2057016 33.65658966 254.19309998 32.4719696 C253.1074675 25.88455716 248.76057786 22.06202116 243.66497803 18.26742554 C238.05143054 16.39624304 231.81002624 16.84078328 225.92449951 16.75253296 C224.30170525 16.72096109 222.67913934 16.67327547 221.05731201 16.60897827 C211.6042421 16.00450723 211.6042421 16.00450723 202.88446045 18.95419312 C200.86793278 20.95589848 199.27288909 22.93150616 197.66497803 25.26742554 C196.57335137 26.54904663 195.47076762 27.82150201 194.35247803 29.07992554 C193.78529053 29.73219116 193.21810303 30.38445679 192.63372803 31.05648804 C176.1801368 49.53413215 176.1801368 49.53413215 163.66018677 50.40723324 C162.94939972 50.41410436 162.23861267 50.42097548 161.50628662 50.42805481 C160.68512863 50.43810043 159.86397064 50.44814606 159.01792908 50.45849609 C158.12543961 50.46432709 157.23295013 50.47015808 156.31341553 50.47616577 C155.36650345 50.48594955 154.41959137 50.49573334 153.44398499 50.5058136 C150.30933018 50.53573069 147.17471811 50.55714754 144.03997803 50.57601929 C142.96640045 50.58259111 141.89282288 50.58916294 140.78671265 50.59593391 C135.09950071 50.62851758 129.41230737 50.65296626 123.72503662 50.67245483 C119.03237409 50.69023468 114.34031621 50.72500395 109.64788818 50.7749939 C103.96976447 50.83540692 98.29219931 50.86596013 92.61376953 50.87562752 C90.45773824 50.88415023 88.30172058 50.9028889 86.14587402 50.93237114 C64.47608086 51.21266458 64.47608086 51.21266458 54.66497803 44.26742554 C54.0750708 43.86555527 53.48516357 43.463685 52.87738037 43.04963684 C49.27703018 40.31741864 46.43868882 36.80440658 43.52435303 33.38070679 C41.03604976 30.55261421 38.3642706 27.9393557 35.65716553 25.32211304 C33.66497803 23.26742554 33.66497803 23.26742554 31.54559326 20.18661499 C29.24520927 17.42925872 28.71841058 17.27827505 24.9196167 16.50692749 C23.47442849 16.47429019 22.02819242 16.47571998 20.58294678 16.50570679 C19.80993729 16.5023381 19.0369278 16.49896942 18.24049377 16.49549866 C16.60905288 16.49579682 14.97755502 16.51098226 13.34637451 16.54013062 C10.86942217 16.57965516 8.39787275 16.56088056 5.9208374 16.53500366 C-5.82297339 16.26892532 -5.82297339 16.26892532 -15.33502197 22.26742554 Z " fill="#000101" transform="translate(49.33502197265625,-0.267425537109375)"/>
<path d="M0 0 C24.61274396 -1.00367542 47.82129234 6.02145822 66.8828125 22.09423828 C67.68460938 22.73876953 68.48640625 23.38330078 69.3125 24.04736328 C85.07416811 37.30484113 94.59552526 56.20800763 98.8828125 76.09423828 C99.14433105 77.25729492 99.14433105 77.25729492 99.41113281 78.44384766 C102.00268578 93.00590717 100.73398793 109.17742876 95.8828125 123.09423828 C95.2640625 124.96208984 95.2640625 124.96208984 94.6328125 126.86767578 C86.45583456 150.08802422 68.73875312 168.481337 46.85546875 179.34033203 C40.13510664 182.45045701 33.04293781 184.2969304 25.8828125 186.09423828 C24.59890625 186.46355469 24.59890625 186.46355469 23.2890625 186.84033203 C5.03213368 191.50099168 -15.38936283 187.63398154 -32.22265625 179.94970703 C-38.75855889 178.0180435 -44.4905791 180.88010699 -50.31640625 183.65673828 C-51.0738765 184.00808838 -51.83134674 184.35943848 -52.61177063 184.72143555 C-55.01354754 185.83707329 -57.40932226 186.96490856 -59.8046875 188.09423828 C-62.21164025 189.22154222 -64.61978278 190.34617294 -67.02973938 191.46704102 C-68.52420226 192.16287938 -70.01679785 192.8627461 -71.50724792 193.56713867 C-74.686947 195.05431936 -77.695546 196.32031829 -81.1171875 197.09423828 C-79.51573153 191.38724655 -77.68504752 185.80160737 -75.63671875 180.23876953 C-75.19521484 179.03929687 -74.75371094 177.83982422 -74.29882812 176.60400391 C-73.38083509 174.12502986 -72.45627613 171.64847803 -71.52539062 169.17431641 C-71.08775391 167.97871094 -70.65011719 166.78310547 -70.19921875 165.55126953 C-69.79936768 164.47852783 -69.3995166 163.40578613 -68.98754883 162.30053711 C-67.79505444 157.90754167 -67.1598402 153.84016041 -69.40234375 149.75048828 C-69.98886719 149.03892578 -70.57539063 148.32736328 -71.1796875 147.59423828 C-86.71251019 126.87332704 -89.72204968 100.36123996 -86.78320312 75.23925781 C-83.85999263 58.62259182 -74.54578693 42.29730324 -63.1171875 30.09423828 C-62.49585938 29.39427734 -61.87453125 28.69431641 -61.234375 27.97314453 C-47.52975007 13.26504288 -25.32902054 1.48837724 -5.1171875 0.19189453 C-3.41116306 0.13635988 -1.70523968 0.07590204 0 0 Z " fill="#01A8F2" transform="translate(382.1171875,71.90576171875)"/>
<path d="M0 0 C8.99891987 7.57296683 15.65767003 16.43639738 17.625 28.25 C17.70331674 30.16143363 17.73288625 32.07527121 17.72265625 33.98828125 C17.71782227 35.58833008 17.71782227 35.58833008 17.71289062 37.22070312 C17.70032227 38.87489258 17.70032227 38.87489258 17.6875 40.5625 C17.68298828 41.68462891 17.67847656 42.80675781 17.67382812 43.96289062 C17.66207313 46.7253151 17.64564077 49.48762998 17.625 52.25 C18.21925781 52.22905273 18.81351562 52.20810547 19.42578125 52.18652344 C22.15867705 52.10258146 24.89130057 52.05109719 27.625 52 C28.55957031 51.96648437 29.49414062 51.93296875 30.45703125 51.8984375 C36.6508989 51.81180998 41.65644324 52.30117534 46.625 56.25 C51.18736499 61.0412908 52.20533772 65.73354133 52.16748047 72.21630859 C52.11551514 73.62517334 52.11551514 73.62517334 52.0625 75.0625 C52.04074707 76.04299316 52.01899414 77.02348633 51.99658203 78.03369141 C51.31230924 101.24097701 42.26039955 120.35660497 25.390625 136.37109375 C13.63202598 146.49216975 -1.10483807 152.55331534 -16.375 154.25 C-16.375 165.8 -16.375 177.35 -16.375 189.25 C-7.05553616 189.05262654 -7.05553616 189.05262654 2.26245117 188.79956055 C3.42752197 188.78707275 4.59259277 188.77458496 5.79296875 188.76171875 C6.98172607 188.73553467 8.1704834 188.70935059 9.39526367 188.68237305 C13.57260122 189.41654115 15.02441984 190.97239561 17.625 194.25 C18.3696324 198.22137281 17.99766878 199.69099683 15.75 203.0625 C13.14173982 205.74747371 12.38759519 206.21231585 8.64677429 206.39717102 C7.36945938 206.40701523 6.09214447 206.41685944 4.77612305 206.42700195 C4.07185181 206.43357315 3.36758057 206.44014435 2.64196777 206.44691467 C0.30688372 206.46665551 -2.02813599 206.47831214 -4.36328125 206.48828125 C-5.55923448 206.49439454 -5.55923448 206.49439454 -6.77934837 206.50063133 C-10.9996248 206.52149576 -15.21986868 206.53579565 -19.44018555 206.54516602 C-23.79832518 206.55622934 -28.15595406 206.59062683 -32.51391315 206.63033772 C-35.8656865 206.65648983 -39.21733793 206.66485659 -42.56920433 206.66844749 C-44.17556392 206.67331739 -45.78191792 206.68494294 -47.38817787 206.70348549 C-49.63850929 206.72784761 -51.88751639 206.72691803 -54.13793945 206.7199707 C-56.05749199 206.72877007 -56.05749199 206.72877007 -58.01582336 206.73774719 C-61.95041912 206.16645004 -63.58279301 205.02294523 -66.375 202.25 C-67.92086876 199.15826248 -67.66859521 196.65570448 -67.375 193.25 C-65.79003906 191.04785156 -65.79003906 191.04785156 -63.375 189.25 C-60.16699219 188.79589844 -60.16699219 188.79589844 -56.421875 188.859375 C-54.60961426 188.87436035 -54.60961426 188.87436035 -52.76074219 188.88964844 C-51.23094727 188.92606445 -49.70115234 188.96248047 -48.125 189 C-40.82375 189.12375 -40.82375 189.12375 -33.375 189.25 C-33.375 177.37 -33.375 165.49 -33.375 153.25 C-35.685 153.25 -37.995 153.25 -40.375 153.25 C-60.16485734 149.01820661 -78.0498123 136.7359995 -89.1875 119.8125 C-97.87379841 105.32171043 -101.53457781 91.93757761 -101.6875 75.1875 C-101.71650391 74.12466797 -101.74550781 73.06183594 -101.77539062 71.96679688 C-101.82448337 65.92083691 -101.77996007 61.80757286 -97.375 57.25 C-91.31157308 51.87832505 -85.72610514 51.60264315 -77.875 51.9375 C-76.86179687 51.96005859 -75.84859375 51.98261719 -74.8046875 52.00585938 C-72.32654633 52.0643061 -69.85158434 52.14617003 -67.375 52.25 C-67.39594727 51.51998779 -67.41689453 50.78997559 -67.43847656 50.0378418 C-67.52256927 46.67120617 -67.57395279 43.30479255 -67.625 39.9375 C-67.67527344 38.21563477 -67.67527344 38.21563477 -67.7265625 36.45898438 C-67.85744766 24.90836944 -65.03635997 15.94767919 -57.375 7.25 C-56.60542969 6.34121094 -56.60542969 6.34121094 -55.8203125 5.4140625 C-41.27162576 -10.52684307 -17.54894174 -12.29456192 0 0 Z " fill="#000202" transform="translate(191.375,75.75)"/>
<path d="M0 0 C4.46981737 0.79818167 5.6014537 2.1767638 8.5 5.625 C9.63333673 8.14593665 10.53720451 10.4638504 11.36254883 13.07739258 C11.72940292 14.17576447 11.72940292 14.17576447 12.10366821 15.29632568 C12.90244958 17.69959451 13.67979054 20.10921893 14.45703125 22.51953125 C15.00907796 24.19433706 15.56245769 25.86870401 16.11711121 27.54264832 C17.56886303 31.93596825 19.00249205 36.33499489 20.43237305 40.73547363 C21.8964481 45.23024497 23.3776603 49.71935827 24.85742188 54.20898438 C27.75504058 63.00888281 30.63353687 71.81490801 33.5 80.625 C35.24991609 78.00012587 36.10066292 76.1708573 37.05639648 73.23291016 C37.34687363 72.34834137 37.63735077 71.46377258 37.93663025 70.55239868 C38.2450032 69.59924774 38.55337616 68.6460968 38.87109375 67.6640625 C39.53444326 65.64581297 40.1978567 63.62758446 40.86132812 61.609375 C41.90106448 58.42802248 42.93879304 55.24602807 43.97485352 52.06347656 C44.97681764 48.99113588 45.98612995 45.92128104 46.99609375 42.8515625 C47.30244247 41.90246002 47.6087912 40.95335754 47.92442322 39.97549438 C51.57132021 28.91078653 51.57132021 28.91078653 56.5 25.625 C60.07186212 25.15910494 61.88680059 25.24619516 64.97558594 27.15429688 C68.20008444 30.31018903 69.4381327 33.36470864 71.015625 37.53125 C71.31692322 38.29296509 71.61822144 39.05468018 71.9286499 39.83947754 C72.88299851 42.26280432 73.81637506 44.69362483 74.75 47.125 C75.39193116 48.75962492 76.03514753 50.39374574 76.6796875 52.02734375 C81.468017 64.23850655 81.468017 64.23850655 82.5 68.625 C83.41289795 68.60405273 84.3257959 68.58310547 85.26635742 68.56152344 C88.66766535 68.49317283 92.06823899 68.44311671 95.4699707 68.40527344 C96.93948921 68.38521175 98.40892841 68.35795522 99.87817383 68.32324219 C101.99580487 68.27447859 104.11237687 68.25197839 106.23046875 68.234375 C107.50301514 68.21342773 108.77556152 68.19248047 110.08666992 68.17089844 C114.10305394 68.70522891 115.71059463 69.73209224 118.5 72.625 C119.5625 76.0625 119.5625 76.0625 119.5 79.625 C117.73358828 82.42689446 116.46950178 84.14024911 113.5 85.625 C107.84720147 85.91044013 102.19325965 85.93878534 96.53393555 85.97509766 C94.64155781 85.99165332 92.7492425 86.01893835 90.85717773 86.05712891 C88.12711186 86.11194472 85.3985111 86.13377818 82.66796875 86.1484375 C81.82509811 86.17110687 80.98222748 86.19377625 80.11381531 86.21713257 C75.83534638 86.20177509 74.04825526 86.04557129 70.55322266 83.36450195 C68.76095568 80.97317879 67.51782273 79.04738685 66.48046875 76.26953125 C66.0309082 75.08907227 66.0309082 75.08907227 65.57226562 73.88476562 C65.28029297 73.07716797 64.98832031 72.26957031 64.6875 71.4375 C64.22053711 70.20870117 64.22053711 70.20870117 63.74414062 68.95507812 C61.5 62.96248283 61.5 62.96248283 61.5 60.625 C60.84 60.625 60.18 60.625 59.5 60.625 C59.32327255 61.29362061 59.1465451 61.96224121 58.96446228 62.65112305 C56.35418115 72.39132843 53.24464532 81.94282971 50.0847168 91.51611328 C49.39916093 93.60110694 48.71953759 95.68805995 48.0456543 97.77685547 C47.0656113 100.81401608 46.06809866 103.84492102 45.06640625 106.875 C44.76835587 107.80932861 44.47030548 108.74365723 44.16322327 109.70629883 C43.87289719 110.57150146 43.58257111 111.4367041 43.28344727 112.328125 C43.03490494 113.08770508 42.78636261 113.84728516 42.5302887 114.62988281 C41.23884458 117.13071812 39.90445378 118.18869652 37.5 119.625 C31.50027507 120.37496562 31.50027507 120.37496562 28.47070312 118.10351562 C25.892544 114.86101421 24.73116657 111.41755256 23.46875 107.53125 C23.19588669 106.72349121 22.92302338 105.91573242 22.64189148 105.08349609 C21.7500337 102.43427943 20.87504352 99.7798127 20 97.125 C19.38559895 95.29065438 18.77010859 93.45667329 18.15356445 91.62304688 C16.56823969 86.89837561 14.99707432 82.16914194 13.43121338 77.43798828 C11.66120924 72.09119988 9.88391393 66.74682808 8.10586548 61.40270996 C6.77951835 57.41556943 5.45698699 53.42728365 4.14453125 49.43554688 C3.67319529 48.00910857 3.20184213 46.58267594 2.73046875 45.15625 C2.32207764 43.91423828 1.91368652 42.67222656 1.49291992 41.39257812 C0.76692294 38.74966174 0.76692294 38.74966174 -0.5 37.625 C-0.81462692 38.5933075 -1.12925385 39.56161499 -1.45341492 40.55926514 C-4.42188956 49.68776099 -7.40781289 58.81038511 -10.41087627 67.92756271 C-11.95419518 72.6149035 -13.49131411 77.30409021 -15.0144043 81.99804688 C-16.48473989 86.52864819 -17.97117507 91.05367076 -19.46888161 95.57529449 C-20.03719462 97.30054458 -20.59969865 99.02771949 -21.15625572 100.75679779 C-21.93738705 103.18014539 -22.73897503 105.59579934 -23.5456543 108.01074219 C-23.77079712 108.72571869 -23.99593994 109.44069519 -24.22790527 110.17733765 C-25.76414647 114.68311036 -27.4499253 117.10182373 -31.5 119.625 C-34.5 120.1875 -34.5 120.1875 -37.5 119.625 C-43.19983281 115.3696218 -44.58634165 109.64036227 -46.671875 103.05078125 C-47.22370453 101.37051094 -47.22370453 101.37051094 -47.78668213 99.65629578 C-48.95536379 96.08782388 -50.10311801 92.51303082 -51.25 88.9375 C-52.41582704 85.35290582 -53.58579931 81.76968381 -54.75616455 78.18656921 C-55.48211562 75.95860229 -56.204505 73.72947116 -56.92303467 71.49909973 C-57.24717346 70.4943309 -57.57131226 69.48956207 -57.90527344 68.4543457 C-58.18997498 67.56785843 -58.47467651 66.68137115 -58.76800537 65.76802063 C-59.45167038 63.60991256 -59.45167038 63.60991256 -60.5 61.625 C-63.44485971 67.29658165 -65.9288678 73.03465821 -68.25390625 78.98828125 C-69.80785343 82.27641399 -71.26126753 84.00563376 -74.5 85.625 C-77.44269525 85.7608023 -80.36053126 85.8377575 -83.3046875 85.86328125 C-84.18021271 85.871353 -85.05573792 85.87942474 -85.95779419 85.88774109 C-87.81217467 85.90158221 -89.66658063 85.91230424 -91.52099609 85.92016602 C-94.35693566 85.93739029 -97.19171286 85.98127643 -100.02734375 86.02539062 C-101.82811642 86.03551655 -103.62889901 86.04403297 -105.4296875 86.05078125 C-106.27771942 86.06828934 -107.12575134 86.08579742 -107.9994812 86.10383606 C-113.89800014 86.0821044 -113.89800014 86.0821044 -117.00439453 83.72338867 C-119.52617821 80.18523478 -120.01401014 77.99408618 -119.5 73.625 C-116.82454371 70.15126051 -115.37642443 68.76692985 -110.99487305 68.05737305 C-109.68043213 68.08355713 -108.36599121 68.10974121 -107.01171875 68.13671875 C-106.30852005 68.14379349 -105.60532135 68.15086823 -104.8808136 68.15815735 C-102.64859773 68.18600788 -100.41894923 68.2487168 -98.1875 68.3125 C-96.66865619 68.33759549 -95.1497728 68.36040648 -93.63085938 68.38085938 C-89.91974752 68.43579993 -86.21012459 68.52200261 -82.5 68.625 C-82.35159668 68.07569824 -82.20319336 67.52639648 -82.05029297 66.96044922 C-79.98388264 59.68296265 -77.29188334 52.69184186 -74.42138672 45.70019531 C-73.61997567 43.73769641 -72.83938506 41.76765282 -72.05859375 39.796875 C-71.54292513 38.53333984 -71.02604103 37.2702999 -70.5078125 36.0078125 C-70.05035645 34.87746582 -69.59290039 33.74711914 -69.12158203 32.58251953 C-67.31167021 29.28151505 -65.67145328 27.62831252 -62.5 25.625 C-58.62580263 25.625 -56.41710554 25.86041936 -53.41107178 28.36651611 C-51.3366354 30.81806251 -50.47877663 32.72025939 -49.48535156 35.76074219 C-49.1453009 36.78149841 -48.80525024 37.80225464 -48.45489502 38.85394287 C-47.92808136 40.49631927 -47.92808136 40.49631927 -47.390625 42.171875 C-47.01895203 43.2982135 -46.64727905 44.424552 -46.26434326 45.58502197 C-45.08156657 49.17807916 -43.9156134 52.77634271 -42.75 56.375 C-41.95032184 58.81416401 -41.14955342 61.25297086 -40.34765625 63.69140625 C-38.38577446 69.66518646 -36.43767152 75.64332597 -34.5 81.625 C-34.13874023 80.56627686 -33.77748047 79.50755371 -33.40527344 78.41674805 C-33.16327713 77.70763779 -32.92128082 76.99852753 -32.67195129 76.26792908 C-32.11984468 74.65001088 -31.56783604 73.03205924 -31.01591492 71.41407776 C-29.46032372 66.85476568 -27.90230366 62.29630459 -26.34008789 57.73925781 C-23.493141 49.42912706 -20.65113718 41.11849476 -17.89736938 32.77693176 C-16.83627829 29.56488199 -15.76473486 26.35636602 -14.69226074 23.14810181 C-14.19202546 21.64155057 -13.69708274 20.13323092 -13.2076416 18.62313843 C-12.52551999 16.52008636 -11.82534621 14.42385112 -11.12109375 12.328125 C-10.7336499 11.14895508 -10.34620605 9.96978516 -9.94702148 8.75488281 C-7.70331191 3.90177724 -5.35118234 0.95556828 0 0 Z " fill="#000202" transform="translate(166.5,298.375)"/>
<path d="M0 0 C0.66850572 0.21214287 1.33701143 0.42428575 2.0257749 0.64285719 C8.77139135 2.652042 14.80662104 3.43081069 21.82240295 3.38095093 C23.36950027 3.38797089 23.36950027 3.38797089 24.94785208 3.39513266 C28.3730025 3.40701308 31.79774764 3.39765262 35.22290039 3.38818359 C37.69102714 3.39225235 40.15915206 3.39759593 42.62727356 3.40411377 C48.61630029 3.41634194 54.60517041 3.41459562 60.5941909 3.40587585 C65.46418006 3.39908085 70.33413763 3.3981904 75.20413017 3.4014473 C76.24665029 3.40213684 76.24665029 3.40213684 77.31023143 3.40284032 C78.72244125 3.40379957 80.13465106 3.40477221 81.54686087 3.4057581 C94.76575704 3.4142974 107.98459063 3.40450051 121.20347654 3.388357 C132.53029496 3.37495217 143.85702113 3.37728608 155.18383789 3.39111328 C168.35930203 3.40718984 181.53471145 3.41347667 194.71018404 3.40427649 C196.11668455 3.40332091 197.52318507 3.4023778 198.92968559 3.4014473 C199.96754129 3.40075306 199.96754129 3.40075306 201.02636378 3.40004479 C205.88743754 3.39746134 210.7484764 3.40181187 215.60954475 3.40888596 C222.15874344 3.41820786 228.70779539 3.41151359 235.25698662 3.39420319 C237.65711555 3.39024435 240.05725916 3.39136202 242.4573822 3.39799118 C245.73997767 3.40622028 249.02202019 3.39586812 252.30458069 3.38095093 C253.24846793 3.38764309 254.19235517 3.39433526 255.16484505 3.40123022 C261.54430723 3.34521305 266.99321075 2.13167584 273 0 C273.08172936 2.5215021 273.14083373 5.04029917 273.1875 7.5625 C273.22520508 8.61920898 273.22520508 8.61920898 273.26367188 9.69726562 C273.34602338 15.65402481 272.31709179 20.30120631 268.31640625 24.9609375 C267.73761719 25.42757813 267.15882813 25.89421875 266.5625 26.375 C265.98628906 26.85710937 265.41007812 27.33921875 264.81640625 27.8359375 C261.60878095 29.89157694 258.41760473 30.12529048 254.67266464 30.13701439 C253.80923533 30.14208893 252.94580602 30.14716347 252.05621219 30.15239179 C250.64027833 30.15313843 250.64027833 30.15313843 249.19573975 30.15390015 C247.68612384 30.16047353 247.68612384 30.16047353 246.14601064 30.1671797 C242.76367968 30.18056596 239.38137479 30.18674617 235.99902344 30.19287109 C233.57794578 30.20077209 231.1568693 30.20904104 228.73579407 30.21765137 C221.46410102 30.24160482 214.19240623 30.25679737 206.92068756 30.26971143 C204.86635251 30.27342489 202.81201813 30.27739798 200.75768375 30.2814641 C187.99565237 30.30669896 175.23361988 30.32874808 162.47156906 30.34119225 C159.51701605 30.34412184 156.56246308 30.34708352 153.60791016 30.35009766 C152.8735888 30.35084371 152.13926744 30.35158976 151.38269392 30.35235842 C139.4866377 30.36501262 127.59073092 30.39823845 115.69474456 30.43989949 C103.47688422 30.48233657 91.25910038 30.50588919 79.04116654 30.51111281 C72.18299971 30.51452461 65.32506657 30.52625248 58.46697235 30.55921555 C52.01551997 30.5901738 45.56436327 30.59562295 39.11284447 30.58383179 C36.74572673 30.58361071 34.37859031 30.59194405 32.01153755 30.60948563 C28.77793188 30.63214372 25.54580799 30.62389655 22.31219482 30.60800171 C20.9096453 30.62882484 20.9096453 30.62882484 19.47876143 30.65006864 C13.17137683 30.57376205 8.84558704 29.12327424 4 25 C-0.30758894 19.89850454 -0.52165784 15.04571885 -0.25 8.5625 C-0.23195313 7.73556641 -0.21390625 6.90863281 -0.1953125 6.05664062 C-0.1486214 4.03725067 -0.07689393 2.01846555 0 0 Z " fill="#5F7C8A" transform="translate(30,465)"/>
<path d="M0 0 C5.8265641 3.90425986 8.31398357 8.63267463 11.36279297 14.83569336 C12.11025536 16.31462822 12.11025536 16.31462822 12.87281799 17.82344055 C14.50995615 21.07208455 16.12656599 24.33045224 17.7421875 27.58984375 C18.8761679 29.85562803 20.01103815 32.12096715 21.14675903 34.38587952 C23.5209165 39.12839314 25.88538451 43.87556068 28.2421875 48.62670898 C30.963451 54.11220617 33.70322129 59.58814761 36.45297325 65.0594129 C39.10382966 70.33505989 41.74104087 75.61743658 44.37234879 80.90286446 C45.49089101 83.14646591 46.61289185 85.38834651 47.73839951 87.62846184 C49.30855993 90.7582571 50.86305593 93.89534986 52.41357422 97.03491211 C52.88103561 97.95926056 53.34849701 98.88360901 53.8301239 99.83596802 C56.44038627 105.17050163 58.22312138 109.33063586 56.25 115.25 C54.66500737 117.46898968 53.58971247 118.13676251 51 119 C48.0625 119.4375 48.0625 119.4375 45 119 C41.00089706 115.57654648 38.74648996 112.08861029 36.44921875 107.38671875 C35.89322998 106.26225342 35.33724121 105.13778809 34.7644043 103.97924805 C34.07902588 102.56297119 33.39364746 101.14669434 32.6875 99.6875 C29.3771875 92.9121875 29.3771875 92.9121875 26 86 C6.86 85.67 -12.28 85.34 -32 85 C-32.66 86.98 -33.32 88.96 -34 91 C-35.81619232 95.10089624 -37.82231315 99.10612209 -39.8125 103.125 C-40.33392578 104.20910156 -40.85535156 105.29320312 -41.39257812 106.41015625 C-41.90884766 107.45300781 -42.42511719 108.49585938 -42.95703125 109.5703125 C-43.65276245 110.98981201 -43.65276245 110.98981201 -44.36254883 112.43798828 C-46.23374472 115.36572493 -48.13418449 117.05396866 -51 119 C-54 119.5625 -54 119.5625 -57 119 C-59.875 116.9375 -59.875 116.9375 -62 114 C-62.94688562 107.2611345 -60.25857382 102.53605064 -57.29003906 96.70605469 C-56.78927856 95.69548004 -56.28851807 94.6849054 -55.77258301 93.64370728 C-54.11736418 90.31269397 -52.44209993 86.99223462 -50.765625 83.671875 C-49.60841971 81.35782815 -48.45216252 79.04330695 -47.29681396 76.72833252 C-44.87434707 71.88210456 -42.44256066 67.04073109 -40.00292969 62.203125 C-37.18469646 56.61447408 -34.38360381 51.01749341 -31.59167314 45.41566157 C-28.9014495 40.01872972 -26.19985063 34.62759411 -23.49297333 29.23899078 C-22.34358409 26.9485837 -21.1969502 24.65679177 -20.05310822 22.36360931 C-18.45435702 19.16283082 -16.84281638 15.9688305 -15.22753906 12.77636719 C-14.75568176 11.82567352 -14.28382446 10.87497986 -13.79766846 9.89547729 C-13.35463379 9.0263974 -12.91159912 8.1573175 -12.45513916 7.26190186 C-12.07536045 6.5068272 -11.69558174 5.75175255 -11.30429459 4.97379684 C-8.36132 0.52017569 -5.25681992 -0.84109119 0 0 Z " fill="#000203" transform="translate(391,98)"/>
<path d="M0 0 C6.6362546 4.55240654 10.55500036 9.32944201 13 17 C13.55078429 21.13276573 13.56172724 25.21008028 13.53125 29.375 C13.5350769 30.53950684 13.53890381 31.70401367 13.54284668 32.90380859 C13.54555653 35.35450103 13.53826072 37.80522286 13.52148438 40.25585938 C13.50006345 43.9889425 13.52131981 47.72010113 13.546875 51.453125 C13.54423156 53.84375421 13.53910626 56.23438224 13.53125 58.625 C13.53934692 59.73149902 13.54744385 60.83799805 13.55578613 61.97802734 C13.4482792 70.94266303 11.38809307 78.42402184 5 85 C-2.77465884 90.78963956 -9.41138766 92.07035673 -19 91 C-27.26812103 88.4698646 -32.47299377 83.62091367 -36.55126953 76.16333008 C-38.81654028 70.76829412 -38.4481234 65.10730419 -38.43359375 59.34765625 C-38.4388356 58.13355576 -38.44407745 56.91945526 -38.44947815 55.66856384 C-38.45588577 53.10758222 -38.45457775 50.54657112 -38.44604492 47.9855957 C-38.43753606 44.07905397 -38.46631554 40.17397557 -38.49804688 36.26757812 C-38.49965913 33.77343794 -38.49908089 31.27929517 -38.49609375 28.78515625 C-38.50732773 27.62347427 -38.51856171 26.4617923 -38.53013611 25.26490784 C-38.45823461 16.84942175 -36.99003228 10.41227911 -30.8125 4.25 C-21.99038641 -3.97017833 -10.74809325 -5.51279137 0 0 Z " fill="#5F7C8A" transform="translate(179,88)"/>
<path d="M0 0 C5.61 0 11.22 0 17 0 C17.12375 3.58875 17.12375 3.58875 17.25 7.25 C17.95654138 20.35640929 22.03817031 31.57425704 31.6875 40.75 C42.07630511 49.37391158 53.9874341 51.06067819 67 50 C77.85253437 47.95281738 86.60003218 42.4874588 93.375 33.8125 C100.63366709 23.01981519 101.56402751 12.64320233 102 0 C107.61 0 113.22 0 119 0 C119.36449369 20.04715279 115.75048024 36.24817449 101.75390625 51.4375 C90.68276456 62.19959504 75.78714303 68.60720783 60.375 68.5 C59.41295654 68.49427979 58.45091309 68.48855957 57.4597168 68.48266602 C40.19376844 68.05458465 26.43825358 60.4157505 14.58203125 48.1015625 C4.52598565 36.5694344 -0.2414243 22.72673034 -0.0625 7.5625 C-0.041875 5.066875 -0.02125 2.57125 0 0 Z " fill="#01A6F0" transform="translate(107,145)"/>
<path d="M0 0 C0.58007812 0.32484375 1.16015625 0.6496875 1.7578125 0.984375 C7.35046824 3.5176337 12.51425599 1.88440874 18 0 C18.09351118 19.68012956 18.16401244 39.36021393 18.20724869 59.04051971 C18.22785914 68.17878148 18.25595068 77.31690506 18.30175781 86.45507812 C18.34167209 94.42148066 18.36744384 102.3877831 18.37635398 110.35428286 C18.38156098 114.57110773 18.39376749 118.78764631 18.42292023 123.00437927 C18.45016203 126.97706539 18.45842743 130.94934849 18.45243073 134.92211914 C18.45352706 136.37653293 18.46142891 137.83096083 18.4768219 139.28529358 C18.55688669 147.24321868 18.50913903 153.28012448 14 160 C9.30648745 163.73565285 5.7494885 165.13960375 -0.1875 165.0625 C-1.03739502 165.0514624 -1.88729004 165.0404248 -2.76293945 165.02905273 C-3.87028442 165.01467163 -3.87028442 165.01467163 -5 165 C-4.64564786 164.38443332 -4.29129572 163.76886663 -3.92620564 163.13464642 C0.3399036 154.93496439 0.68728745 147.70866774 0.56762695 138.61450195 C0.56621365 137.09565783 0.56701397 135.5768103 0.56983948 134.05796814 C0.57126405 129.96753527 0.54203173 125.87784739 0.50696969 121.78758645 C0.47554457 117.50086083 0.4727628 113.21411491 0.46684265 108.92729187 C0.45135138 100.82432159 0.4103874 92.7216918 0.3600952 84.61887091 C0.30405418 75.38788445 0.27667826 66.15688104 0.25161803 56.92576659 C0.19946687 37.95031859 0.11161718 18.97518675 0 0 Z " fill="#00828E" transform="translate(285,287)"/>
<path d="M0 0 C22.78522083 5.25812788 43.3605081 20.54738118 55.83447266 40.09521484 C62.24132679 50.56573767 66.4137393 61.0038416 69 73 C69.26151855 74.16305664 69.26151855 74.16305664 69.52832031 75.34960938 C72.11987328 89.91166889 70.85117543 106.08319048 66 120 C65.5875 121.24523437 65.175 122.49046875 64.75 123.7734375 C56.48066021 147.25606797 38.69849769 165.28316503 16.671875 176.30078125 C11.6520064 178.69277249 6.44648526 180.82162925 1 182 C0.34 181.67 -0.32 181.34 -1 181 C-0.26136719 180.52691406 0.47726562 180.05382812 1.23828125 179.56640625 C22.47736647 165.72186913 36.80792863 149.5900084 46 126 C46.30550781 125.29746094 46.61101562 124.59492188 46.92578125 123.87109375 C56.21928757 101.80497362 53.73008706 75.11223716 45.25 53.25 C36.2073828 32.09794281 22.63394971 15.14180728 2.4921875 3.62890625 C1.66976563 3.09136719 0.84734375 2.55382812 0 2 C0 1.34 0 0.68 0 0 Z " fill="#0276BA" transform="translate(412,75)"/>
<path d="M0 0 C43.23 0 86.46 0 131 0 C124.06896552 8.0862069 124.06896552 8.0862069 120.875 11.3125 C120.23304688 11.96863281 119.59109375 12.62476563 118.9296875 13.30078125 C115.80007786 16.0566116 113.13710011 17.24589974 108.96624756 17.27415466 C108.17296555 17.28412979 107.37968353 17.29410492 106.56236267 17.30438232 C105.70099197 17.305047 104.83962128 17.30571167 103.95214844 17.30639648 C102.58066399 17.31888176 102.58066399 17.31888176 101.18147278 17.33161926 C98.15739689 17.3557228 95.13353678 17.36449259 92.109375 17.37109375 C90.00433284 17.38006101 87.89929134 17.38918287 85.79425049 17.39845276 C81.37925671 17.41494712 76.9643388 17.42264348 72.54931641 17.42553711 C66.90230056 17.43091609 61.25600168 17.46857468 55.60918808 17.51428127 C51.25961734 17.54408232 46.91021845 17.55126136 42.5605545 17.55226326 C40.47940035 17.5564608 38.39824547 17.56887628 36.31719208 17.58978081 C33.39940846 17.61675296 30.48327592 17.61185177 27.56542969 17.59936523 C26.71215591 17.61419952 25.85888214 17.62903381 24.97975159 17.64431763 C17.72635202 17.55629501 12.99520967 14.8467745 7.79296875 9.90234375 C7.26316406 9.25394531 6.73335938 8.60554688 6.1875 7.9375 C5.64480469 7.28652344 5.10210937 6.63554687 4.54296875 5.96484375 C2.9993731 3.99920169 1.49957229 1.99942971 0 0 Z " fill="#5F7C8A" transform="translate(101,17)"/>
<path d="M0 0 C10.47512934 -0.49881568 16.97557565 1.58546968 24.95703125 8.4765625 C30.89232021 15.80772248 31.5984241 23.19520835 31.53125 32.375 C31.5350769 33.53950684 31.53890381 34.70401367 31.54284668 35.90380859 C31.54555653 38.35450103 31.53826072 40.80522286 31.52148438 43.25585938 C31.50006345 46.9889425 31.52131981 50.72010113 31.546875 54.453125 C31.54423156 56.84375421 31.53910626 59.23438224 31.53125 61.625 C31.53934692 62.73149902 31.54744385 63.83799805 31.55578613 64.97802734 C31.4482792 73.94266303 29.38809307 81.42402184 23 88 C17.05421842 92.42770969 12.61839243 94.27511904 5.1875 94.125 C4.02605469 94.10695313 2.86460937 94.08890625 1.66796875 94.0703125 C0.78753906 94.04710937 -0.09289062 94.02390625 -1 94 C-1 93.67 -1 93.34 -1 93 C0.299375 92.814375 0.299375 92.814375 1.625 92.625 C6.70794483 90.17765619 8.79880129 86.08529944 11 81 C13.09136904 74.02622204 13.33499626 67.18671536 13.37109375 59.94921875 C13.38012222 58.81402298 13.3891507 57.67882721 13.39845276 56.50923157 C13.4128957 54.1182415 13.42182708 51.72721245 13.42553711 49.33618164 C13.43743128 45.70845987 13.48667807 42.08244181 13.53710938 38.45507812 C13.54657579 36.11979987 13.55380978 33.78451129 13.55859375 31.44921875 C13.57812607 30.38007736 13.59765839 29.31093597 13.61778259 28.20939636 C13.55876072 18.19577583 10.67987608 9.57868341 4 2 C1.88339573 0.68834743 1.88339573 0.68834743 0 0 Z " fill="#36464E" transform="translate(161,85)"/>
<path d="M0 0 C11.04757286 -0.48921003 11.04757286 -0.48921003 16 3 C20.94424875 8.02568344 23.10801728 11.08424823 23.22460938 18.23461914 C23.24712769 19.54680923 23.269646 20.85899933 23.29284668 22.21095276 C23.36862317 28.23447798 23.42157976 34.25811215 23.45996094 40.28198242 C23.48218325 43.45701569 23.52386782 46.63086362 23.58300781 49.80541992 C23.65441544 53.64636913 23.69083965 57.48620853 23.70307922 61.3277874 C23.71343014 62.7858067 23.73573609 64.24379583 23.77067566 65.70143318 C23.95808664 73.95060348 23.65704355 79.93895331 17.73677063 86.20033264 C17.16363632 86.79422287 16.59050201 87.3881131 16 88 C14.42696898 90.38945963 13.05080119 92.86115099 11.6875 95.375 C9.8744053 98.6504941 8.07910643 101.88134036 6 105 C5.99857498 103.84678757 5.99714996 102.69357513 5.99568176 101.50541687 C5.97896667 90.60398851 5.93605533 79.70293127 5.86790943 68.80169964 C5.83371067 63.19806825 5.80854048 57.59470746 5.80444336 51.9909668 C5.80014521 46.57663054 5.77155653 41.16290395 5.72656822 35.74875832 C5.71364167 33.68969088 5.70926824 31.6305503 5.71384621 29.57144737 C5.89427487 14.0961772 5.89427487 14.0961772 0 0 Z " fill="#00818D" transform="translate(280,17)"/>
<path d="M0 0 C5.61 0 11.22 0 17 0 C17.36449369 20.04715279 13.75048024 36.24817449 -0.24609375 51.4375 C-8.16748669 59.13777031 -19.92739945 66.1468451 -31 68 C-33.2421875 67.5625 -33.2421875 67.5625 -35 67 C-34.05125 66.525625 -33.1025 66.05125 -32.125 65.5625 C-17.81951176 57.33829219 -8.44734885 43.26239183 -3 28 C-2.59257665 25.66883247 -2.59257665 25.66883247 -2.4375 23.375 C-2.20857825 20.63728278 -1.88049485 18.64148456 -1 16 C-0.77190557 13.26568283 -0.5835729 10.55075247 -0.4375 7.8125 C-0.293125 5.234375 -0.14875 2.65625 0 0 Z " fill="#0275B9" transform="translate(209,145)"/>
<path d="M0 0 C2.97901208 3.61300546 4.9397129 7.59026227 7.01171875 11.7578125 C7.57135063 12.87420609 7.57135063 12.87420609 8.14228821 14.01315308 C8.92665996 15.58053973 9.70902534 17.14893186 10.48950195 18.71826172 C11.6882014 21.12640908 12.89541428 23.53015183 14.10351562 25.93359375 C14.86509679 27.45807693 15.62618192 28.98280805 16.38671875 30.5078125 C16.74916183 31.22865021 17.11160492 31.94948792 17.48503113 32.69216919 C20 37.7700556 20 37.7700556 20 40 C6.8 40 -6.4 40 -20 40 C-15.2604137 29.90926788 -10.4770471 19.85086764 -5.5 9.875 C-5.06703613 9.00456055 -4.63407227 8.13412109 -4.18798828 7.23730469 C-3.78563965 6.43454102 -3.38329102 5.63177734 -2.96875 4.8046875 C-2.61232422 4.09296387 -2.25589844 3.38124023 -1.88867188 2.64794922 C-1 1 -1 1 0 0 Z " fill="#02A7F1" transform="translate(388,126)"/>
<path d="M0 0 C0.08172936 2.5215021 0.14083373 5.04029917 0.1875 7.5625 C0.22520508 8.61920898 0.22520508 8.61920898 0.26367188 9.69726562 C0.34602338 15.65402481 -0.68290821 20.30120631 -4.68359375 24.9609375 C-5.26238281 25.42757813 -5.84117187 25.89421875 -6.4375 26.375 C-7.01371094 26.85710937 -7.58992187 27.33921875 -8.18359375 27.8359375 C-11.58710905 30.01711505 -14.78341576 30.12083212 -18.75 30.0625 C-19.54921875 30.05347656 -20.3484375 30.04445313 -21.171875 30.03515625 C-21.77515625 30.02355469 -22.3784375 30.01195312 -23 30 C-22.65066406 29.28457031 -22.30132812 28.56914062 -21.94140625 27.83203125 C-21.48636719 26.83558594 -21.03132812 25.83914063 -20.5625 24.8125 C-19.88380859 23.36810547 -19.88380859 23.36810547 -19.19140625 21.89453125 C-17.41636127 16.59877665 -17.41636127 16.59877665 -17 5 C-96.86 5 -176.72 5 -259 5 C-259 4.67 -259 4.34 -259 4 C-257.724095 3.99761165 -256.44819 3.99522329 -255.13362122 3.99276257 C-224.83740464 3.9353867 -194.5412682 3.86264477 -164.24513733 3.77101372 C-160.51515048 3.75974573 -156.78516326 3.74860725 -153.05517578 3.73754883 C-151.94132889 3.7342433 -151.94132889 3.7342433 -150.80498004 3.730871 C-138.7858895 3.69551111 -126.76679902 3.67063959 -114.74767578 3.64965298 C-102.41238019 3.6278805 -90.07715202 3.59481634 -77.7419138 3.55129844 C-70.13211813 3.52480662 -62.52240645 3.50709308 -54.91256696 3.50065396 C-49.07459042 3.49476999 -43.23673802 3.47316586 -37.39882088 3.44572449 C-35.00593453 3.436931 -32.61302324 3.43322438 -30.22012138 3.43499184 C-26.95153972 3.43664381 -23.68354078 3.41995086 -20.41503906 3.39872742 C-19.46949567 3.40357499 -18.52395227 3.40842257 -17.54975605 3.41341704 C-11.34493176 3.34698822 -5.75525291 0 0 0 Z " fill="#394A53" transform="translate(303,465)"/>
<path d="M0 0 C2.58503727 3.44671636 4.5890983 6.7227526 6.625 10.5 C7.23601562 11.6240625 7.84703125 12.748125 8.4765625 13.90625 C11.34692199 19.73528773 11.34692199 19.73528773 10.19555664 23.93261719 C9.77137451 25.04282227 9.34719238 26.15302734 8.91015625 27.296875 C8.45576172 28.50214844 8.00136719 29.70742187 7.53320312 30.94921875 C7.04320424 32.21623693 6.55296681 33.48316288 6.0625 34.75 C5.57517101 36.03217212 5.08883126 37.3147207 4.60351562 38.59765625 C3.41203514 41.73561475 2.2105447 44.86935734 1 48 C0.67 48 0.34 48 0 48 C0 32.16 0 16.32 0 0 Z " fill="#00808B" transform="translate(286,210)"/>
<path d="M0 0 C-12.47673903 14.97208684 -12.47673903 14.97208684 -18 17 C-20.796875 17.1953125 -20.796875 17.1953125 -23.75 17.125 C-24.73484375 17.10695313 -25.7196875 17.08890625 -26.734375 17.0703125 C-27.48203125 17.04710938 -28.2296875 17.02390625 -29 17 C-27.0930534 14.25549254 -25.07125213 11.62243773 -23 9 C-22.36964844 8.16339844 -21.73929688 7.32679687 -21.08984375 6.46484375 C-14.83376092 -0.91382591 -9.3354 -1.0756293 0 0 Z " fill="#36464E" transform="translate(232,17)"/>
<path d="M0 0 C1.12377697 3.30435084 0.89554742 5.0506862 -0.4375 8.25 C-0.72496094 8.95640625 -1.01242188 9.6628125 -1.30859375 10.390625 C-1.53675781 10.92171875 -1.76492187 11.4528125 -2 12 C-2.99 12 -3.98 12 -5 12 C-5.99 12.495 -5.99 12.495 -7 13 C-5.54331217 10.03216871 -3.98767914 7.13584687 -2.375 4.25 C-1.92898437 3.45078125 -1.48296875 2.6515625 -1.0234375 1.828125 C-0.68570313 1.22484375 -0.34796875 0.6215625 0 0 Z " fill="#019BE2" transform="translate(206,169)"/>
</svg>
