<?xml version="1.0" encoding="UTF-8"?>
<svg version="1.1" xmlns="http://www.w3.org/2000/svg" width="512" height="512">
<path d="M0 0 C5.16944074 3.8090616 5.97907687 10.99378988 7 17 C9.68866379 38.37708095 5.79378268 59.19772249 1 80 C4.5267687 83.33282672 7.24238283 83.36832728 11.99609375 83.37109375 C13.37304937 83.38847514 14.75000244 83.40605953 16.12695312 83.42382812 C18.28398342 83.43389508 20.44084758 83.43749735 22.59790039 83.43579102 C24.68946136 83.43937286 26.7797588 83.46675274 28.87109375 83.49609375 C30.11818115 83.49794678 31.36526855 83.4997998 32.65014648 83.50170898 C36.68662663 84.10213577 38.14355669 85.12274755 41 88 C41.62444448 90.7760244 41.62444448 90.7760244 41.62361908 94.04359531 C41.63542442 95.28979824 41.64722976 96.53600116 41.65939283 97.81996781 C41.64720033 99.20530506 41.63453916 100.59063824 41.62145996 101.97596741 C41.62578745 103.44571828 41.63230207 104.91546407 41.64082003 106.38519663 C41.65785478 110.42954395 41.64360072 114.47327461 41.62430525 118.51758969 C41.6089106 122.87687875 41.62227167 127.23609065 41.63204956 131.59538269 C41.64659507 140.13712195 41.63432332 148.67862398 41.61293632 157.2203408 C41.58895809 167.16076223 41.5906387 177.10112893 41.59324223 187.04157286 C41.59693456 204.7732887 41.57608768 222.50489255 41.54199219 240.23657227 C41.50889444 257.45567658 41.49473448 274.67466335 41.50097656 291.89379883 C41.50773544 310.63077935 41.50529503 329.36771058 41.48561716 348.10468382 C41.48457768 349.09479913 41.48353819 350.08491445 41.4824672 351.10503326 C41.48037626 353.09380945 41.47826528 355.08258562 41.47613403 357.07136177 C41.46922901 364.00601944 41.46857068 370.94066195 41.47001648 377.87532234 C41.47145386 386.32158899 41.46180786 394.76775959 41.43807012 403.21399433 C41.42618278 407.52622569 41.41910306 411.83832291 41.42490768 416.15056992 C41.43005906 420.09392938 41.42146434 424.03700485 41.40163308 427.98031562 C41.39687216 429.41091853 41.39722006 430.84154892 41.40304345 432.2721479 C41.41016838 434.2088455 41.39721401 436.14558648 41.38311005 438.08224583 C41.38153884 439.16038188 41.37996764 440.23851792 41.37834883 441.34932476 C41 444 41 444 39.66355562 445.80735964 C35.54621745 448.75917179 30.84941555 448.13633573 26.0214386 448.12025452 C25.09190894 448.12110894 24.16237928 448.12196337 23.20468205 448.12284368 C20.07694642 448.12449629 16.94926393 448.11898065 13.8215332 448.11352539 C11.58466595 448.11324345 9.3477986 448.1134014 7.1109314 448.1139679 C1.02658428 448.11425559 -5.05774324 448.10836342 -11.14208579 448.10139394 C-17.49623755 448.09515569 -23.85038972 448.09455623 -30.20454407 448.09336853 C-40.87342713 448.09061049 -51.54230242 448.08435821 -62.21118164 448.07543945 C-73.20076461 448.06626214 -84.19034562 448.05918287 -95.17993164 448.05493164 C-96.19582138 448.05453756 -96.19582138 448.05453756 -97.23223414 448.05413551 C-100.6298064 448.05283048 -104.02737867 448.05156677 -107.42495096 448.05032361 C-135.61663899 448.03995484 -163.80831905 448.0222656 -192 448 C-192.18320801 449.67332901 -192.18320801 449.67332901 -192.37011719 451.38046265 C-193 455 -193 455 -195.078125 456.91259766 C-198.6841371 458.25460784 -201.95421399 458.43126304 -205.75 458.3984375 C-206.48573242 458.40130768 -207.22146484 458.40417786 -207.97949219 458.40713501 C-209.52930474 458.40916926 -211.07914334 458.40368415 -212.62890625 458.39111328 C-214.99277493 458.3750491 -217.35493411 458.3909822 -219.71875 458.41015625 C-221.22917042 458.4081737 -222.73958978 458.40432979 -224.25 458.3984375 C-224.9522168 458.40451019 -225.65443359 458.41058289 -226.37792969 458.4168396 C-230.71465773 458.35509488 -233.75632881 457.98530546 -237 455 C-237.4041029 452.67787675 -237.74346933 450.34302103 -238 448 C-239.7479324 448.00414807 -239.7479324 448.00414807 -241.53117657 448.00837994 C-269.18744965 448.07334147 -296.8437151 448.12281552 -324.50004871 448.15319599 C-327.9034343 448.15694815 -331.30681973 448.16083111 -334.71020508 448.16479492 C-335.72654208 448.16597532 -335.72654208 448.16597532 -336.76341114 448.16717956 C-347.73698699 448.18023652 -358.71051574 448.20389195 -369.68406364 448.23145839 C-380.94239695 448.25950453 -392.20070671 448.27595 -403.4590767 448.28226548 C-409.7833899 448.28618174 -416.10759623 448.29540729 -422.43187523 448.31719017 C-428.3817347 448.33751784 -434.33144303 448.34384129 -440.28133392 448.33932304 C-442.46748233 448.34014991 -444.65363568 448.34613757 -446.8397541 448.35761642 C-449.82033287 448.37250212 -452.80033803 448.36896776 -455.78092957 448.36076355 C-456.64961062 448.36950207 -457.51829168 448.3782406 -458.4132964 448.38724393 C-463.54857311 448.34893459 -467.18675962 447.81324038 -471 444 C-471.10215041 442.11165649 -471.13292921 440.21944149 -471.13701439 438.32834148 C-471.14208893 437.08872841 -471.14716347 435.84911533 -471.15239179 434.57193822 C-471.15299356 433.17846727 -471.15349261 431.78499628 -471.15390015 430.39152527 C-471.15791209 428.92508286 -471.16234986 427.45864157 -471.1671797 425.99220163 C-471.179181 421.94322395 -471.18480185 417.89425822 -471.18936086 413.84526622 C-471.1953035 409.48592203 -471.20691664 405.12659221 -471.21765137 400.76725769 C-471.24220574 390.22993565 -471.25680676 379.69260883 -471.26971143 369.15526697 C-471.27342109 366.18112554 -471.2773945 363.20698459 -471.2814641 360.23284364 C-471.30669779 341.78030343 -471.32876 323.32776252 -471.34119225 304.87520885 C-471.34412215 300.59836512 -471.34708378 296.32152141 -471.35009766 292.04467773 C-471.35084371 290.98163362 -471.35158976 289.9185895 -471.35235842 288.82333193 C-471.36501897 271.59275435 -471.39824961 254.36227981 -471.43989949 237.13175043 C-471.48227127 219.4583048 -471.50588176 201.78491199 -471.51111281 184.11141568 C-471.5145323 174.18157466 -471.52635053 164.25189466 -471.55921555 154.3221035 C-471.58715195 145.86736741 -471.5982437 137.41282531 -471.58702008 128.95804664 C-471.58181694 124.64154615 -471.5848267 120.3254523 -471.60948563 116.00901031 C-471.6318555 112.06042514 -471.63133507 108.11254157 -471.61228175 104.16394512 C-471.60946437 102.73254441 -471.6151761 101.30109736 -471.63009469 99.86977162 C-471.64908612 97.92966384 -471.63447494 95.98931299 -471.61803246 94.04918194 C-471.61938898 92.96979939 -471.62074551 91.89041685 -471.62214315 90.77832574 C-471 88 -471 88 -468.64594328 85.63720018 C-465.32405418 83.58175271 -463.6099364 83.70387063 -459.75 84.05859375 C-445.12583673 84.9384242 -435.23903725 84.50004216 -423.48119247 74.88052678 C-406.98752104 61.74112525 -391.3025974 61.37125833 -370.94417071 61.97472048 C-366.54748376 62.08466345 -362.15054948 62.08482188 -357.75270081 62.09896851 C-350.39490969 62.13721846 -343.04097106 62.24381206 -335.68481445 62.40185547 C-325.34177812 62.6239566 -315.00037873 62.71805694 -304.65535247 62.78817296 C-296.56036022 62.84750303 -288.46568459 62.93999868 -280.37109375 63.0390625 C-279.5134904 63.04931096 -278.65588705 63.05955941 -277.77229571 63.07011843 C-272.83351387 63.1314389 -267.89550798 63.2099855 -262.95741653 63.31310272 C-261.47090268 63.34236735 -259.98429062 63.36709304 -258.49761772 63.38667679 C-241.24948057 63.62382407 -228.83891191 67.27751521 -216 79 C-212.58730983 77.46389352 -209.88112448 75.42267448 -206.9375 73.125 C-197.97324294 66.51281039 -188.68269128 63.77195086 -177.61791992 64.04858398 C-176.11331215 64.08132869 -174.60868764 64.11331108 -173.10404968 64.14463806 C-172.31081488 64.16228651 -171.51758007 64.17993496 -170.70030785 64.19811821 C-165.56736685 64.29782334 -160.43340094 64.32145929 -155.29967785 64.35571194 C-150.80800729 64.3898816 -146.32040305 64.45253509 -141.83032227 64.5793457 C-119.40731901 66.21390995 -119.40731901 66.21390995 -99.891922 57.41944885 C-97.46099853 54.71409872 -95.34109238 51.91815546 -93.34307861 48.88136292 C-91.30590161 46.02771814 -88.89105781 44.14146411 -86.125 42 C-85.25617188 41.31808594 -84.38734375 40.63617188 -83.4921875 39.93359375 C-82.66976563 39.29550781 -81.84734375 38.65742187 -81 38 C-80.21882813 37.35160156 -79.43765625 36.70320313 -78.6328125 36.03515625 C-59.64183144 20.31311455 -26.01657707 -3.7765999 0 0 Z " fill="#030302" transform="translate(471,27)"/>
<path d="M0 0 C36.815625 -0.12375 36.815625 -0.12375 74.375 -0.25 C82.11501465 -0.28641602 89.8550293 -0.32283203 97.82958984 -0.36035156 C107.3059082 -0.37841797 107.3059082 -0.37841797 111.74697876 -0.3817749 C114.8383236 -0.38549054 117.92939164 -0.40043606 121.0206604 -0.42230225 C124.97254927 -0.4498827 128.92403972 -0.45793836 132.8760159 -0.4522891 C134.32088304 -0.45346915 135.76576512 -0.46131604 137.21054912 -0.47686052 C147.78831591 -0.58531483 156.59221685 0.61586766 164.9375 7.5625 C165.64777344 8.14128906 166.35804688 8.72007813 167.08984375 9.31640625 C167.72019531 9.87199219 168.35054687 10.42757812 169 11 C169.52678339 11.42837703 170.05356678 11.85675406 170.5963133 12.29811221 C172.48337853 14.58606811 172.37294344 15.96883551 172.36914349 18.91379833 C172.37511663 19.93343959 172.38108978 20.95308085 172.38724393 22.00362033 C172.3785054 23.12714776 172.36976688 24.25067519 172.36076355 25.4082489 C172.36332682 26.59912591 172.3658901 27.79000292 172.36853105 29.01696712 C172.37262687 32.32824453 172.36321853 35.63899325 172.34819686 38.95020688 C172.33526725 42.51869468 172.33962378 46.08716553 172.34190369 49.65567017 C172.34347837 55.8402209 172.33404882 62.02467683 172.31719017 68.20920372 C172.29283114 77.15102633 172.28499808 86.092803 172.2812262 95.03465519 C172.27465684 109.54144001 172.25468256 124.04817428 172.22631836 138.55493164 C172.19879031 152.64867906 172.17755059 166.74241277 172.16479492 180.83618164 C172.16361267 182.13882295 172.16361267 182.13882295 172.16240653 183.46778025 C172.15849147 187.824333 172.15470034 192.18088584 172.15097082 196.53743875 C172.11985984 232.69166153 172.06701088 268.84582683 172 305 C171.2668457 304.52151611 170.53369141 304.04303223 169.77832031 303.55004883 C168.80475586 302.92122803 167.83119141 302.29240723 166.828125 301.64453125 C165.8680957 301.02167236 164.90806641 300.39881348 163.91894531 299.75708008 C119.72307284 273.15305748 9.64211462 291.06695913 0 291 C0 194.97 0 98.94 0 0 Z " fill="#F5E3BF" transform="translate(76,107)"/>
<path d="M0 0 C1.26100525 0.00007553 2.5220105 0.00015106 3.82122803 0.00022888 C5.19234253 0.00533511 6.56345662 0.01055109 7.93457031 0.01586914 C9.34132843 0.01773511 10.74808719 0.01915817 12.15484619 0.02015686 C15.85050258 0.02396796 19.54611944 0.03378619 23.24176025 0.04486084 C27.01566025 0.05510525 30.78956666 0.05966097 34.56347656 0.06469727 C41.96323414 0.07540975 49.36295918 0.09246923 56.76269531 0.11352539 C54.95816006 3.15079717 53.14086804 6.05568608 50.98535156 8.85571289 C50.47166016 9.52989258 49.95796875 10.20407227 49.42871094 10.89868164 C48.36492067 12.28510744 47.29982849 13.67053532 46.23339844 15.05493164 C39.32261925 24.13668152 36.97000968 30.66127741 35.51269531 42.05102539 C35.33996094 43.3072168 35.16722656 44.5634082 34.98925781 45.85766602 C34.56714747 48.9414166 34.15874165 52.02633783 33.76269531 55.11352539 C31.52964074 54.04574462 29.73213753 53.08789628 27.82519531 51.48852539 C25.25185548 49.7729655 23.80227547 49.80177358 20.76269531 50.11352539 C19.77269531 50.44352539 18.78269531 50.77352539 17.76269531 51.11352539 C17.02177983 53.08722463 16.37544994 55.09635504 15.76269531 57.11352539 C14.45466432 60.26835474 13.04262994 63.3758257 11.63769531 66.48852539 C11.26515625 67.3199707 10.89261719 68.15141602 10.50878906 69.00805664 C9.59595986 71.04436794 8.68053933 73.07947078 7.76269531 75.11352539 C6.88226563 75.13930664 6.00183594 75.16508789 5.09472656 75.19165039 C3.35255859 75.27672852 3.35255859 75.27672852 1.57519531 75.36352539 C0.42664063 75.40993164 -0.72191406 75.45633789 -1.90527344 75.50415039 C-5.77920541 76.21263033 -7.53845191 77.27209172 -10.23730469 80.11352539 C-10.16843604 84.10790713 -10.10588179 86.24494829 -7.23730469 89.11352539 C-4.58193096 89.67872542 -1.94585756 89.85140737 0.76269531 90.11352539 C-1.43535141 97.22950399 -4.29514551 103.8449378 -7.54003906 110.53930664 C-11.46900938 119.00955434 -10.21290677 125.18265929 -7.42480469 133.80102539 C-6.87191026 135.56989751 -6.32112197 137.33942935 -5.77246094 139.10961914 C-5.5070752 139.96281738 -5.24168945 140.81601563 -4.96826172 141.69506836 C-3.53035047 146.45256631 -2.3590315 151.2723886 -1.23730469 156.11352539 C-2.90792969 156.51571289 -2.90792969 156.51571289 -4.61230469 156.92602539 C-8.4557142 157.77161558 -8.4557142 157.77161558 -10.23730469 161.11352539 C-10.00517503 166.15353947 -10.00517503 166.15353947 -7.23730469 170.11352539 C-4.57487647 170.5764276 -4.57487647 170.5764276 -1.61230469 170.73852539 C-0.60941406 170.81329102 0.39347656 170.88805664 1.42675781 170.96508789 C2.58304687 171.03856445 2.58304687 171.03856445 3.76269531 171.11352539 C4.93884665 174.69381587 6.10195052 178.2782133 7.26269531 181.86352539 C7.5965625 182.87930664 7.93042969 183.89508789 8.27441406 184.94165039 C8.59023438 185.92133789 8.90605469 186.90102539 9.23144531 187.91040039 C9.52470703 188.81113281 9.81796875 189.71186523 10.12011719 190.63989258 C10.76269531 193.11352539 10.76269531 193.11352539 10.76269531 197.11352539 C8.86583984 197.15219727 8.86583984 197.15219727 6.93066406 197.19165039 C5.27047313 197.24792805 3.61031822 197.30527546 1.95019531 197.36352539 C1.11681641 197.37770508 0.2834375 197.39188477 -0.57519531 197.40649414 C-5.38472893 197.49766551 -5.38472893 197.49766551 -9.31933594 199.96899414 C-10.6377137 203.048949 -10.18162092 204.9433209 -9.23730469 208.11352539 C-8.18256437 209.88422299 -8.18256437 209.88422299 -6.23730469 211.11352539 C-2.81491628 211.69570871 -2.81491628 211.69570871 0.95019531 211.80102539 C2.85865234 211.89963867 2.85865234 211.89963867 4.80566406 212.00024414 C5.78148437 212.03762695 6.75730469 212.07500977 7.76269531 212.11352539 C6.83602874 216.46605021 5.81714938 220.79026369 4.76269531 225.11352539 C4.37984375 226.82862305 4.37984375 226.82862305 3.98925781 228.57836914 C3.16498125 231.69776439 2.40079903 234.33061056 0.76269531 237.11352539 C-1.66930708 238.32084087 -3.51279167 238.65686604 -6.21386719 238.80493164 C-7.21546875 238.95768555 -7.21546875 238.95768555 -8.23730469 239.11352539 C-10.59869771 242.0081444 -10.59869771 242.0081444 -10.04980469 245.67602539 C-9.58890707 249.37178291 -9.58890707 249.37178291 -6.23730469 251.11352539 C-3.81922999 251.41781796 -3.81922999 251.41781796 -1.07531738 251.3742218 C-0.0069313 251.38130661 1.06145477 251.38839142 2.16221619 251.39569092 C3.33426102 251.3932135 4.50630585 251.39073608 5.71386719 251.38818359 C6.94818985 251.39329453 8.18251251 251.39840546 9.45423889 251.40367126 C12.84059894 251.41520187 16.22671449 251.417639 19.61307716 251.41510797 C22.43877231 251.41403908 25.2644448 251.41891942 28.0901351 251.42371339 C34.75493148 251.43481151 41.4196715 251.43524403 48.08447266 251.42919922 C54.96405421 251.42315567 61.84343143 251.43547926 68.72297812 251.45676929 C74.62708387 251.47436994 80.53112449 251.48038916 86.43525553 251.47713155 C89.96266643 251.47531635 93.48993153 251.4779783 97.01731873 251.49184608 C100.94880233 251.50672416 104.88002442 251.49746775 108.81152344 251.48583984 C109.98356827 251.49348358 111.1556131 251.50112732 112.36317444 251.50900269 C113.96575356 251.49848122 113.96575356 251.49848122 115.60070801 251.48774719 C116.53058784 251.48791493 117.46046768 251.48808268 118.4185257 251.4882555 C120.80814761 251.28731996 120.80814761 251.28731996 122.56188202 249.80888653 C124.56961101 246.97428625 124.12103529 244.45803184 123.76269531 241.11352539 C122.22001785 239.02997439 121.33359258 238.22372125 118.76934528 237.72876453 C117.62309571 237.72185109 117.62309571 237.72185109 116.45368958 237.71479797 C115.57449356 237.70225983 114.69529755 237.68972168 113.78945923 237.67680359 C112.82776825 237.67823868 111.86607727 237.67967377 110.87524414 237.68115234 C109.86043472 237.67096069 108.84562531 237.66076904 107.80006409 237.65026855 C104.4398962 237.62003205 101.08001287 237.61085621 97.71972656 237.60180664 C95.39229883 237.58496789 93.06488024 237.56681875 90.73747253 237.54740906 C84.60709488 237.49981587 78.47675427 237.47006672 72.34625244 237.44396973 C66.09241416 237.41421123 59.83870365 237.36766477 53.58496094 237.32250977 C41.3109391 237.23637059 29.03689104 237.1690725 16.76269531 237.11352539 C17.42415216 231.44932596 18.75025504 226.15081778 20.32519531 220.67602539 C20.67614258 219.435625 20.67614258 219.435625 21.03417969 218.17016602 C21.60632546 216.15014113 22.18394736 214.13166863 22.76269531 212.11352539 C24.57220673 212.10472603 24.57220673 212.10472603 26.41827393 212.0957489 C37.77802381 212.0385757 49.13758126 211.96584238 60.49713516 211.87781048 C66.33743159 211.83305241 72.17765738 211.7938082 78.01806641 211.76708984 C83.65270099 211.74111123 89.28706452 211.7007473 94.92153168 211.65033913 C97.07291039 211.63363357 99.22433602 211.62214233 101.37577057 211.61591148 C104.3855695 211.60631059 107.39466918 211.5782991 110.40429688 211.54589844 C111.74325768 211.54805107 111.74325768 211.54805107 113.10926819 211.55024719 C117.91814465 211.4837315 117.91814465 211.4837315 122.31878662 209.70979309 C124.12840455 207.70922708 124.24738372 206.71844809 124.13769531 204.05102539 C124.18414044 200.11038288 124.18414044 200.11038288 121.76269531 198.11352539 C119.3559029 197.89646902 117.06049728 197.80217682 114.65087891 197.79467773 C113.91906906 197.78463211 113.18725922 197.77458649 112.43327332 197.76423645 C110.00923463 197.73329303 107.58530693 197.71633865 105.16113281 197.69946289 C103.48246295 197.68076018 101.80380257 197.66118745 100.12515259 197.64077759 C95.70289696 197.58935544 91.28061082 197.54978387 86.85821533 197.51263428 C82.34713124 197.47265765 77.83617519 197.42153647 73.32519531 197.37133789 C64.47111845 197.27445932 55.61696947 197.1900929 46.76269531 197.11352539 C49.44181858 194.43440213 52.56570634 193.45466254 56.03613281 192.10961914 C56.75628571 191.82627213 57.4764386 191.54292511 58.21841431 191.25099182 C59.74229376 190.65263936 61.26717481 190.05683244 62.79296875 189.46337891 C65.12377847 188.55644055 67.45125295 187.64134565 69.77832031 186.72485352 C71.25990097 186.14428983 72.74166591 185.56419616 74.22363281 184.98461914 C74.91854828 184.7116954 75.61346375 184.43877167 76.32943726 184.15757751 C78.9254507 183.15026449 81.45949798 182.18577523 84.17138672 181.53955078 C85.93852732 181.26517885 85.93852732 181.26517885 86.76269531 179.42602539 C87.09269531 178.66290039 87.42269531 177.89977539 87.76269531 177.11352539 C89.41088867 174.01269531 89.41088867 174.01269531 91.76269531 171.11352539 C94.83129883 170.38818359 94.83129883 170.38818359 98.39160156 170.41430664 C99.67357422 170.40206055 100.95554687 170.38981445 102.27636719 170.37719727 C103.62599961 170.39143493 104.97561176 170.40773309 106.32519531 170.42602539 C108.97306227 170.4409135 111.61850297 170.4316319 114.26660156 170.41430664 C115.44037354 170.42631104 116.61414551 170.43831543 117.82348633 170.45068359 C120.73552102 170.35071578 120.73552102 170.35071578 122.64135742 168.81347656 C124.5536892 165.9143766 124.18104142 163.46029426 123.76269531 160.11352539 C121.26026719 157.33951592 119.62095893 157.09488336 115.87207031 156.60180664 C114.41957895 156.52918207 112.96630652 156.4709692 111.51269531 156.42602539 C110.76761719 156.39186523 110.02253906 156.35770508 109.25488281 156.32250977 C107.42467039 156.24038485 105.59370862 156.17526886 103.76269531 156.11352539 C107.84015573 149.79486776 112.21717491 143.81690757 116.88769531 137.92602539 C124.29270668 129.49308625 124.29270668 129.49308625 128.26269531 119.42602539 C128.07485642 116.12807515 128.07485642 116.12807515 126.13769531 114.30102539 C123.41006609 112.93721078 120.6851522 111.97697856 117.76269531 111.11352539 C122.63720942 105.99673921 128.09963002 101.691774 133.61230469 97.28540039 C134.70961914 96.39594727 134.70961914 96.39594727 135.82910156 95.48852539 C136.4885376 94.96000977 137.14797363 94.43149414 137.82739258 93.88696289 C140.27619522 91.73415739 140.27619522 91.73415739 143.76269531 87.11352539 C143.76269531 154.43352539 143.76269531 221.75352539 143.76269531 291.11352539 C72.63769531 291.36352539 72.63769531 291.36352539 50.24267578 291.41137695 C43.57409737 291.44462782 43.57409737 291.44462782 36.9055481 291.48309326 C33.9527782 291.49998654 31.00021088 291.50596202 28.0473938 291.50506592 C24.26445215 291.50428705 20.4820415 291.52285824 16.69923806 291.55461454 C14.67800805 291.56697153 12.65668777 291.56022197 10.6354351 291.5524025 C-3.10355737 291.70794126 -14.08779111 295.10166254 -25.23730469 303.11352539 C-26.22730469 303.77352539 -27.21730469 304.43352539 -28.23730469 305.11352539 C-28.46624412 268.19519427 -28.64242661 231.27697018 -28.74795798 194.3580727 C-28.7604649 189.9984796 -28.77340813 185.63888789 -28.78662109 181.27929688 C-28.7892442 180.41138877 -28.7918673 179.54348067 -28.79456989 178.64927232 C-28.83807129 164.60013964 -28.91690998 150.55141658 -29.00883265 136.50252683 C-29.10238191 122.08468071 -29.15789948 107.66704896 -29.17818964 93.2489118 C-29.19190436 84.35343656 -29.23520111 75.45911909 -29.31646936 66.5640003 C-29.36937197 60.46241473 -29.38529664 54.36142675 -29.37231846 48.25962854 C-29.36591879 44.7398317 -29.37565115 41.22205592 -29.42935944 37.70261955 C-29.4872349 33.8821047 -29.46714639 30.0642061 -29.43984985 26.24330139 C-29.46897827 25.13725101 -29.49810668 24.03120063 -29.52811778 22.89163357 C-29.43602946 18.12042052 -29.14325504 15.23311202 -26.08443141 11.45297325 C-18.29395128 4.27288363 -10.69435389 -0.02138871 0 0 Z " fill="#F5E3BF" transform="translate(292.2373046875,106.886474609375)"/>
<path d="M0 0 C7.91506328 28.22255831 -5.08905581 65.61671178 -15.96191406 91.51904297 C-17.13767075 94.32902403 -18.28278573 97.15077962 -19.4296875 99.97265625 C-22.18546153 106.69370838 -25.06603853 113.35502466 -28 120 C-28.50837402 121.1638623 -29.01674805 122.32772461 -29.54052734 123.52685547 C-35.46928608 136.9067968 -40.4584317 147.79217255 -53.04345703 155.68945312 C-56.98414164 158.32903323 -60.55385297 161.45934934 -64.1875 164.5 C-64.9187207 165.10102539 -65.64994141 165.70205078 -66.40332031 166.32128906 C-72.43926632 170.66249623 -72.43926632 170.66249623 -75.4375 176.9375 C-75.21466028 180.00603463 -75.21466028 180.00603463 -73.5625 182.25 C-69.95484403 184.71376505 -66.26486556 185.30741499 -62 186 C-62 189.64576469 -62.79974749 190.39546311 -65.0078125 193.21875 C-65.98379395 194.48054077 -65.98379395 194.48054077 -66.97949219 195.76782227 C-67.68750977 196.66944092 -68.39552734 197.57105957 -69.125 198.5 C-70.59258893 200.39341358 -72.05870366 202.28797062 -73.5234375 204.18359375 C-74.26948242 205.14765137 -75.01552734 206.11170898 -75.78417969 207.10498047 C-79.77598764 212.32036816 -83.63349282 217.63461532 -87.48095703 222.95703125 C-88.01833496 223.694375 -88.55571289 224.43171875 -89.109375 225.19140625 C-89.57311523 225.83279541 -90.03685547 226.47418457 -90.51464844 227.13500977 C-94.6408232 232.31578705 -98.51333212 234.33685409 -104.59765625 236.671875 C-105.84366859 237.16279633 -105.84366859 237.16279633 -107.11485291 237.66363525 C-108.8653966 238.35087775 -110.61793817 239.03305028 -112.37231445 239.71044922 C-115.06099789 240.74941955 -117.74270453 241.8049753 -120.42382812 242.86328125 C-122.12721968 243.52962952 -123.83098349 244.19502718 -125.53515625 244.859375 C-126.33832779 245.17493347 -127.14149933 245.49049194 -127.9690094 245.81561279 C-133.65153144 248 -133.65153144 248 -137 248 C-136.42725988 242.98712212 -135.32617068 238.62178527 -133.5859375 233.890625 C-133.33986252 233.21909393 -133.09378754 232.54756287 -132.84025574 231.85568237 C-132.02757424 229.65029839 -131.20260734 227.44982338 -130.375 225.25 C-130.08922089 224.4855658 -129.80344177 223.72113159 -129.50900269 222.93353271 C-119.15219803 195.29417889 -107.22145002 168.38302368 -94 142 C-93.43458496 140.8665918 -92.86916992 139.73318359 -92.28662109 138.56542969 C-77.77576589 109.60992222 -61.45128505 80.94849852 -42 55 C-40.33232052 52.76519951 -38.6912075 50.51332738 -37.0625 48.25 C-36.31097656 47.22390625 -35.55945313 46.1978125 -34.78515625 45.140625 C-32.78797505 41.62698454 -32.18758142 39.02097616 -32 35 C-33.33333333 32.33333333 -33.33333333 32.33333333 -36 31 C-40.47628874 31.02101544 -42.40000033 31.41420151 -45.640625 34.578125 C-46.53388967 35.78505904 -47.40176735 37.01100326 -48.25 38.25 C-48.74467773 38.94182373 -49.23935547 39.63364746 -49.74902344 40.34643555 C-51.53275079 42.8760609 -53.26928281 45.43381032 -55 48 C-55.70769531 49.04430176 -56.41539062 50.08860352 -57.14453125 51.16455078 C-74.29504483 76.5603302 -89.82771214 102.82255387 -104 130 C-104.50450684 130.96373535 -105.00901367 131.9274707 -105.52880859 132.92041016 C-122.74005947 165.98845391 -137.04263364 200.7047914 -149 236 C-151.24501519 233.75498481 -151.62567205 232.48117966 -152.515625 229.4765625 C-152.93400635 228.08183716 -152.93400635 228.08183716 -153.36083984 226.65893555 C-153.6542627 225.65773682 -153.94768555 224.65653809 -154.25 223.625 C-154.70753662 222.0932312 -154.70753662 222.0932312 -155.17431641 220.53051758 C-156.12189007 217.35533613 -157.06122903 214.17779368 -158 211 C-158.85949561 208.10986399 -159.72111414 205.22038128 -160.58496094 202.33154297 C-161.1036569 200.59561056 -161.62000977 198.85897596 -162.13378906 197.12158203 C-163.32972509 192.97112456 -163.32972509 192.97112456 -165 189 C-165.69208507 181.79477266 -163.62542294 176.74066396 -160.6953125 170.2265625 C-160.25613495 169.22160736 -159.8169574 168.21665222 -159.36447144 167.1812439 C-158.43813747 165.06882449 -157.50482134 162.95945466 -156.56494141 160.85302734 C-155.12310658 157.62075538 -153.70239661 154.37983955 -152.28515625 151.13671875 C-151.3814179 149.08280069 -150.47651066 147.02939647 -149.5703125 144.9765625 C-149.14315948 144.00578766 -148.71600647 143.03501282 -148.27590942 142.03482056 C-147.87564545 141.13983856 -147.47538147 140.24485657 -147.06298828 139.32275391 C-146.71213165 138.53413971 -146.36127502 137.74552551 -145.99978638 136.93301392 C-145 135 -145 135 -143 133 C-142.50371094 133.5775 -142.00742187 134.155 -141.49609375 134.75 C-137.15944153 139.59750824 -137.15944153 139.59750824 -131.1875 141.75 C-128.04724347 141.28618735 -128.04724347 141.28618735 -126.39282227 139.52099609 C-124.33887755 135.80337417 -124.04703729 132.09136131 -123.52734375 127.9140625 C-123.26528736 126.0765918 -123.00155882 124.23935894 -122.73632812 122.40234375 C-122.33330195 119.53026477 -121.9416937 116.65839478 -121.58032227 113.78076172 C-119.85686989 100.28564992 -117.0120665 91.28176454 -108 81 C-106.95308752 79.69117454 -105.90721361 78.38151616 -104.86328125 77.0703125 C-103.60064453 75.61238281 -103.60064453 75.61238281 -102.3125 74.125 C-101.85101563 73.5894751 -101.38953125 73.0539502 -100.9140625 72.50219727 C-99.61464367 70.99690063 -98.30761509 69.49818225 -97 68 C-96.38511719 67.28457031 -95.77023437 66.56914063 -95.13671875 65.83203125 C-93.44259796 63.87105611 -91.72679368 61.93227852 -90 60 C-88.71802734 58.56140625 -88.71802734 58.56140625 -87.41015625 57.09375 C-82.84177371 52.01072065 -78.25157325 47.08536371 -73 42.69140625 C-70.74173739 40.78158651 -68.60040355 38.76704985 -66.4375 36.75 C-50.77372185 22.6669701 -22.25469027 0 0 0 Z " fill="#FCF390" transform="translate(462,44)"/>
<path d="M0 0 C4.95 0 9.9 0 15 0 C15 109.56 15 219.12 15 332 C-56.94 332 -128.88 332 -203 332 C-203 327.05 -203 322.1 -203 317 C-200.54085144 316.98969254 -198.08170288 316.97938507 -195.54803467 316.96876526 C-172.41547063 316.8713394 -149.28293517 316.76850664 -126.15041733 316.66066074 C-114.25670102 316.60534187 -102.36298171 316.55186203 -90.46923828 316.50268555 C-80.1047556 316.45982739 -69.74029489 316.41354523 -59.37584615 316.36312145 C-53.8860768 316.3365337 -48.39631178 316.3116809 -42.90651703 316.29092598 C-37.74215669 316.27134737 -32.57783811 316.24719983 -27.41351509 316.21950912 C-25.51561046 316.2101452 -23.61769666 316.20246755 -21.71977806 316.19658089 C-19.13310609 316.18830857 -16.54653517 316.17402863 -13.9598999 316.15821838 C-13.20503445 316.15724028 -12.45016901 316.15626217 -11.67242885 316.15525442 C-8.31085821 316.1287449 -5.21401369 316.04839802 -2 315 C-1.06202276 311.82015198 -0.87066178 308.96055217 -0.8613348 305.65080643 C-0.85586036 304.55950621 -0.85038591 303.46820599 -0.84474558 302.34383607 C-0.84376747 301.14540251 -0.84278936 299.94696896 -0.84178162 298.71221924 C-0.83684364 297.43881675 -0.83190566 296.16541427 -0.82681805 294.85342383 C-0.81323556 291.31657501 -0.80581826 287.77973579 -0.79939139 284.24286771 C-0.79138795 280.42966665 -0.77768997 276.61648561 -0.76467896 272.80329895 C-0.74291543 266.19592159 -0.72477048 259.58854221 -0.70907402 252.98114777 C-0.68637428 243.42793116 -0.65823158 233.87473671 -0.62875474 224.3215389 C-0.58108012 208.82260472 -0.53781558 193.32366149 -0.49731445 177.82470703 C-0.45795887 162.76773372 -0.41653249 147.71076845 -0.37231445 132.65380859 C-0.36822804 131.2619515 -0.36822804 131.2619515 -0.36405908 129.84197608 C-0.35037959 125.18701235 -0.33665932 120.53204875 -0.32291877 115.87708521 C-0.20895603 77.25140685 -0.10221953 38.62571111 0 0 Z " fill="#42BFF7" transform="translate(482,127)"/>
<path d="M0 0 C4.95 0 9.9 0 15 0 C15.00423194 1.59912357 15.00846388 3.19824715 15.01282406 4.84582901 C15.11343903 42.78204387 15.21913668 80.71824165 15.33111694 118.65442474 C15.34488698 123.32088592 15.35861401 127.98734722 15.37231445 132.65380859 C15.37640691 134.04735652 15.37640691 134.04735652 15.38058204 135.46905693 C15.42469051 150.52365465 15.46531262 165.57825986 15.50465261 180.6328707 C15.54507841 196.07339096 15.58923616 211.51389727 15.63687855 226.95439696 C15.66617237 236.48659769 15.69253433 246.01879736 15.71517897 255.55101624 C15.73097309 262.08228935 15.75038305 268.61354539 15.77266841 275.14479956 C15.78542955 278.91634049 15.79656579 282.68786829 15.80341911 286.45942497 C15.81088226 290.54371897 15.82594371 294.62794915 15.84178162 298.71221924 C15.84275972 299.91065279 15.84373783 301.10908635 15.84474558 302.34383607 C15.85022002 303.43513629 15.85569446 304.52643651 15.8613348 305.65080643 C15.86399284 306.59403173 15.86665089 307.53725703 15.86938947 308.50906491 C15.99300953 310.86668143 16.13605793 312.80057467 17 315 C20.66992117 316.22330706 24.05569282 316.15331042 27.87760925 316.15821838 C28.68871589 316.16315636 29.49982254 316.16809434 30.33550817 316.17318195 C33.06245582 316.18858088 35.78937988 316.19692406 38.51635742 316.20532227 C40.46751616 316.21489891 42.41867281 316.22490886 44.36982727 316.23532104 C49.67525224 316.26239936 54.98068612 316.28339308 60.28614211 316.30332303 C65.8275222 316.32516454 71.3688747 316.3525622 76.91023254 316.37937927 C87.40741026 316.42933101 97.90460327 316.47426063 108.40181094 316.51740164 C120.35088542 316.56675282 132.29993221 316.6216788 144.24897993 316.67708123 C168.83262765 316.79093936 193.41630222 316.8975723 218 317 C218 321.95 218 326.9 218 332 C146.06 332 74.12 332 0 332 C0 222.44 0 112.88 0 0 Z " fill="#90D9FA" transform="translate(15,127)"/>
<path d="M0 0 C0.34373926 36.68862725 0.60784871 73.37697096 0.76597994 110.06687844 C0.78473933 114.40371912 0.80415428 118.74055663 0.82397461 123.07739258 C0.82790927 123.94073621 0.83184392 124.80407983 0.83589781 125.69358539 C0.90107258 139.65164357 1.019286 153.60876998 1.15729194 167.56627638 C1.29783488 181.90049793 1.38093771 196.23423336 1.41132742 210.56911558 C1.43185565 219.4068691 1.49654867 228.24198875 1.618747 237.07893085 C1.69837431 243.14848241 1.72192838 249.21668352 1.70252066 255.28671879 C1.69296028 258.78396472 1.70702199 262.27662952 1.78808212 265.7730484 C2.24539632 288.90683518 2.24539632 288.90683518 -5.43641895 297.27614731 C-13.59954832 305 -13.59954832 305 -16 305 C-16.34345469 267.58930127 -16.60770475 230.17884031 -16.76597994 192.76688356 C-16.78474018 188.34849271 -16.80415505 183.93010497 -16.82397461 179.51171875 C-16.82790927 178.6321105 -16.83184392 177.75250224 -16.83589781 176.84623919 C-16.9011399 162.60998711 -17.01939083 148.37464508 -17.15729194 134.1389326 C-17.29764677 119.52788078 -17.38089812 104.917305 -17.41132742 90.30560672 C-17.43189442 81.2912863 -17.49680051 72.27953798 -17.618747 63.26600961 C-17.69814148 57.08203029 -17.7219805 50.89937715 -17.70252066 44.71492536 C-17.69292456 41.14745465 -17.70743916 37.58447003 -17.78808212 34.01780128 C-18.23802746 13.13480497 -18.23802746 13.13480497 -14.46224523 7.84606695 C-10.96663608 4.49971673 -5.09318357 0 0 0 Z " fill="#F0AF79" transform="translate(61,113)"/>
<path d="M0 0 C0.33 0 0.66 0 1 0 C1 97.35 1 194.7 1 295 C-1.31 293.02 -3.62 291.04 -6 289 C-7.29209192 288.13206802 -7.29209192 288.13206802 -8.61028671 287.24660206 C-12.05575343 284.65064202 -14.4874856 282.15580184 -15.51179981 277.84720397 C-16.41639587 271.00129986 -16.24657103 264.09850648 -16.19628906 257.20776367 C-16.21177018 254.86763317 -16.23104415 252.52752515 -16.2538147 250.18745422 C-16.30334961 243.83881698 -16.29571142 237.4914486 -16.27479267 231.14269805 C-16.26096909 225.14935608 -16.28214984 219.15615518 -16.30029556 213.1628466 C-16.3362817 200.54507375 -16.31562279 187.92786978 -16.27652404 175.31013808 C-16.2446281 164.54349265 -16.265319 153.77799145 -16.32421875 143.01147461 C-16.3928526 130.46561378 -16.42416588 117.92047001 -16.40100646 105.37441999 C-16.39864331 104.02766735 -16.3963397 102.6809146 -16.39409637 101.33416176 C-16.39243579 100.34068198 -16.39243579 100.34068198 -16.39074166 99.32713189 C-16.38560641 94.7187776 -16.40697673 90.11100594 -16.43811798 85.50276756 C-16.75264674 33.59638699 -16.75264674 33.59638699 -5.33892059 12.55823708 C-3.21991315 8.50951049 -1.60868192 4.27209074 0 0 Z " fill="#EE9F5B" transform="translate(466,123)"/>
<path d="M0 0 C2.31 0 4.62 0 7 0 C7.09151183 40.42618865 7.1620165 80.85236381 7.20426132 121.2786353 C7.20926428 126.04895691 7.21444155 130.81927831 7.21972656 135.58959961 C7.2207758 136.53930355 7.22182505 137.4890075 7.22290608 138.46749035 C7.24032169 153.85447717 7.27186573 169.24140435 7.30861118 184.62835576 C7.34598847 200.41125938 7.36822905 216.19413172 7.37635398 231.97707778 C7.38184843 241.71971463 7.39921568 251.46218289 7.43166587 261.20476786 C7.45277412 267.88135964 7.45920843 274.55786398 7.45400551 281.23448672 C7.45143796 285.08930408 7.45543394 288.94382642 7.4768219 292.79859161 C7.49982387 296.97466128 7.49197313 301.1500993 7.48101807 305.32621765 C7.49266943 306.548975 7.5043208 307.77173235 7.51632524 309.03154296 C7.45795094 317.22364611 7.45795094 317.22364611 5.09493637 321.2296114 C1.222594 324.50205007 -2.12134274 324.13823518 -6.98513794 324.12025452 C-8.23726824 324.12153615 -8.23726824 324.12153615 -9.51469409 324.12284368 C-12.3276886 324.12449824 -15.14062422 324.11897749 -17.95361328 324.11352539 C-19.96373493 324.11324349 -21.97385668 324.11340131 -23.98397827 324.1139679 C-29.4547687 324.11425575 -34.92553737 324.10836096 -40.39632273 324.10139394 C-46.10852353 324.0951584 -51.82072479 324.09455644 -57.53292847 324.09336853 C-68.3559863 324.09025581 -79.17903408 324.08204321 -90.00208747 324.07201904 C-102.32112424 324.06085608 -114.64016149 324.05534699 -126.95920205 324.05032361 C-152.30614028 324.03986055 -177.65306958 324.02226225 -203 324 C-203 321.69 -203 319.38 -203 317 C-201.98840191 316.99576806 -200.97680382 316.99153612 -199.93455124 316.98717594 C-175.33981299 316.88406164 -150.74510453 316.77532341 -126.15041733 316.66066074 C-114.25670102 316.60534187 -102.36298171 316.55186203 -90.46923828 316.50268555 C-80.1047556 316.45982739 -69.74029489 316.41354523 -59.37584615 316.36312145 C-53.8860768 316.3365337 -48.39631178 316.3116809 -42.90651703 316.29092598 C-37.74215669 316.27134737 -32.57783811 316.24719983 -27.41351509 316.21950912 C-25.51561046 316.2101452 -23.61769666 316.20246755 -21.71977806 316.19658089 C-19.13310609 316.18830857 -16.54653517 316.17402863 -13.9598999 316.15821838 C-13.20503445 316.15724028 -12.45016901 316.15626217 -11.67242885 316.15525442 C-8.31085821 316.1287449 -5.21401369 316.04839802 -2 315 C-1.06202276 311.82015198 -0.87066178 308.96055217 -0.8613348 305.65080643 C-0.85586036 304.55950621 -0.85038591 303.46820599 -0.84474558 302.34383607 C-0.84376747 301.14540251 -0.84278936 299.94696896 -0.84178162 298.71221924 C-0.83684364 297.43881675 -0.83190566 296.16541427 -0.82681805 294.85342383 C-0.81323556 291.31657501 -0.80581826 287.77973579 -0.79939139 284.24286771 C-0.79138795 280.42966665 -0.77768997 276.61648561 -0.76467896 272.80329895 C-0.74291543 266.19592159 -0.72477048 259.58854221 -0.70907402 252.98114777 C-0.68637428 243.42793116 -0.65823158 233.87473671 -0.62875474 224.3215389 C-0.58108012 208.82260472 -0.53781558 193.32366149 -0.49731445 177.82470703 C-0.45795887 162.76773372 -0.41653249 147.71076845 -0.37231445 132.65380859 C-0.36822804 131.2619515 -0.36822804 131.2619515 -0.36405908 129.84197608 C-0.35037959 125.18701235 -0.33665932 120.53204875 -0.32291877 115.87708521 C-0.20895603 77.25140688 -0.10214622 38.62571128 0 0 Z " fill="#92DBFB" transform="translate(482,127)"/>
<path d="M0 0 C0.33 0 0.66 0 1 0 C1 67.32 1 134.64 1 204 C-70.125 204.25 -70.125 204.25 -92.52001953 204.29785156 C-99.18859795 204.33110243 -99.18859795 204.33110243 -105.85714722 204.36956787 C-108.80991711 204.38646115 -111.76248443 204.39243662 -114.71530151 204.39154053 C-118.49824317 204.39076166 -122.28065381 204.40933285 -126.06345725 204.44108915 C-128.08468727 204.45344614 -130.10600755 204.44669658 -132.12726021 204.43887711 C-145.86625268 204.59441587 -156.85048642 207.98813714 -168 216 C-169.485 216.99 -169.485 216.99 -171 218 C-171.66977498 213.50100647 -171.92413955 209.47450619 -171 205 C-165.22270318 198.62022903 -155.3698822 195.48053011 -146.9483242 194.72691727 C-143.4793692 194.62848835 -140.02177563 194.62051495 -136.55151367 194.64697266 C-134.54055001 194.64365699 -132.52958635 194.64033673 -130.51862299 194.63684249 C-128.37705871 194.63587887 -126.23562355 194.64216307 -124.09407616 194.65044022 C-119.61815841 194.66690505 -115.14249764 194.65828893 -110.6665802 194.64559937 C-98.75148555 194.6155864 -86.83644023 194.61697905 -74.92132694 194.63585222 C-67.07517137 194.64818471 -59.2293097 194.64633744 -51.38318807 194.61746442 C-46.93523222 194.60224373 -42.48807592 194.60968944 -38.04017007 194.63417459 C-34.62717337 194.64660986 -31.21449788 194.62667269 -27.80151367 194.61181641 C-26.5728508 194.62515518 -25.34418793 194.63849396 -24.07829285 194.65223694 C-17.34406143 194.80865983 -17.34406143 194.80865983 -11.7624054 191.58676147 C-8.91085798 187.40141739 -8.8875023 185.1712709 -8.92684937 180.08026123 C-8.9309339 179.35999701 -8.93501844 178.63973279 -8.93922675 177.89764237 C-8.95403073 175.47174585 -8.97590328 173.04596149 -8.99755859 170.62011719 C-9.00929426 168.88574058 -9.02049163 167.15136025 -9.03118896 165.41697693 C-9.05472769 161.67538407 -9.08073985 157.93381897 -9.10822678 154.19225311 C-9.15030064 148.27601174 -9.17846841 142.35975752 -9.20303345 136.44342041 C-9.20722176 135.44569036 -9.21141007 134.44796031 -9.2157253 133.41999602 C-9.22422952 131.37943034 -9.23268471 129.33886445 -9.24109197 127.29829836 C-9.29806153 113.52045327 -9.36265721 99.74286459 -9.47314453 85.96533203 C-9.5475257 76.67757713 -9.59714897 67.39005789 -9.61794913 58.10202336 C-9.62993843 53.18530213 -9.65466263 48.26937307 -9.70954514 43.35292816 C-9.76096504 38.72674053 -9.77971503 34.10157295 -9.77346039 29.47511482 C-9.77698177 27.77792771 -9.79251086 26.08071624 -9.82098007 24.38376427 C-10.02744789 11.48741105 -10.02744789 11.48741105 -7.45949173 7.76984406 C-5.57632446 6.19390869 -5.57632446 6.19390869 -3.69918251 5.10907364 C-1.57469221 3.7223973 -0.96198037 2.30792205 0 0 Z " fill="#F2D59D" transform="translate(435,194)"/>
<path d="M0 0 C1.48570341 -0.02209741 2.97139095 -0.04528419 4.45706177 -0.06947327 C9.31880725 -0.14260429 14.18060078 -0.18389733 19.04272461 -0.22241211 C20.7236228 -0.23719345 22.4045202 -0.25206551 24.08541679 -0.2670269 C31.08298167 -0.32710341 38.08052234 -0.3790443 45.07828617 -0.40902042 C55.07053226 -0.45201118 65.05966597 -0.54262936 75.05076891 -0.70118624 C82.09651177 -0.80913974 89.14143043 -0.86266037 96.18797964 -0.87650579 C100.38714656 -0.88611534 104.58306267 -0.91853049 108.7813282 -1.00917244 C137.66961818 -1.60332228 137.66961818 -1.60332228 145.72894192 5.6256876 C152.38256836 12.83310456 152.38256836 12.83310456 152.38256836 15.56274414 C91.00256836 15.56274414 29.62256836 15.56274414 -33.61743164 15.56274414 C-29.07988223 8.75642003 -29.07988223 8.75642003 -25.80493164 6.37524414 C-25.17973633 5.90731445 -24.55454102 5.43938477 -23.91040039 4.95727539 C-16.00244818 0.14783938 -9.13014139 0.07153621 0 0 Z " fill="#F3A25E" transform="translate(303.617431640625,413.437255859375)"/>
<path d="M0 0 C1.48410885 -0.00429753 2.96821108 -0.01206157 4.45228577 -0.02301025 C8.46535474 -0.04232183 12.47663131 -0.0118899 16.48948359 0.02880192 C20.6999621 0.06407789 24.91039076 0.0568911 29.12098694 0.05535889 C36.19163793 0.05909955 43.26160034 0.09374918 50.33203125 0.1484375 C58.49034615 0.21130985 66.64790725 0.23243041 74.80644697 0.22949529 C83.51360153 0.2267865 92.220468 0.25459188 100.9275353 0.2912817 C103.42658995 0.29978004 105.92559768 0.30264274 108.42466545 0.30423737 C112.36233831 0.30827665 116.2993865 0.33286751 120.23685265 0.37290192 C121.67627889 0.38451506 123.11577706 0.3895211 124.55524826 0.38719177 C134.73544969 0.3769583 142.44987168 1.65898832 150.65649414 7.90917969 C151.28297852 8.37195313 151.90946289 8.83472656 152.55493164 9.31152344 C154.28149414 10.97167969 154.28149414 10.97167969 157.28149414 15.97167969 C95.90149414 15.97167969 34.52149414 15.97167969 -28.71850586 15.97167969 C-26.73850586 13.66167969 -24.75850586 11.35167969 -22.71850586 8.97167969 C-22.11840415 8.17986675 -21.51830244 7.38805382 -20.90001583 6.57224655 C-15.04840104 -0.49764837 -8.65154172 -0.14574654 0 0 Z " fill="#F3A25E" transform="translate(84.718505859375,413.0283203125)"/>
<path d="M0 0 C1.06687042 -0.01272446 2.13374084 -0.02544891 3.23294067 -0.03855896 C4.39824814 -0.03203308 5.5635556 -0.0255072 6.76417542 -0.01878357 C8.61105957 -0.03170692 8.61105957 -0.03170692 10.49525452 -0.04489136 C13.86954754 -0.0637069 17.24285896 -0.06444525 20.61712909 -0.05556989 C23.4352531 -0.05045852 26.25328909 -0.05775378 29.07140404 -0.06504196 C35.72053764 -0.08204244 42.36944176 -0.07847411 49.01856995 -0.06175232 C55.87499872 -0.04483199 62.73079081 -0.06066324 69.58715004 -0.0929752 C75.47690457 -0.11967885 81.366461 -0.12694506 87.25626999 -0.11846012 C90.77263872 -0.11353286 94.2886244 -0.11573481 97.80494499 -0.13624763 C101.72650416 -0.15802932 105.64729708 -0.13919716 109.56886292 -0.11643982 C110.73214615 -0.12813202 111.89542938 -0.13982422 113.09396362 -0.15187073 C120.92321359 -0.05925417 120.92321359 -0.05925417 124.98745728 2.82754517 C126.73121643 5.5146637 126.73121643 5.5146637 126.79371643 9.1396637 C125.61137527 12.89533561 125.03852925 13.59558818 121.73121643 15.5146637 C119.2667923 15.89498043 119.2667923 15.89498043 116.45570374 15.90234375 C114.85323036 15.9172007 114.85323036 15.9172007 113.21838379 15.93235779 C112.05150528 15.92785614 110.88462677 15.92335449 109.68238831 15.91871643 C107.83309471 15.92901131 107.83309471 15.92901131 105.94644165 15.93951416 C102.56823235 15.95468067 99.19057475 15.95627612 95.81237221 15.95057178 C92.99168194 15.94748146 90.17104165 15.95357051 87.35035849 15.95961052 C80.69650712 15.97365629 74.04278414 15.97209369 67.38893127 15.96070862 C60.52461817 15.94922299 53.66069557 15.96331006 46.79643393 15.99010509 C40.90161941 16.0122542 35.00692755 16.01890142 29.11207438 16.01302868 C25.59187372 16.00965647 22.07192348 16.0120915 18.55175781 16.02927971 C14.62769729 16.04760411 10.70411808 16.03356982 6.78004456 16.01637268 C5.61316605 16.02604065 4.44628754 16.03570862 3.24404907 16.04566956 C2.17573349 16.03583542 1.10741791 16.02600128 0.00672913 16.01586914 C-1.38475971 16.01555521 -1.38475971 16.01555521 -2.80435944 16.01523495 C-6.05827039 15.35430396 -7.25227995 14.10700621 -9.26878357 11.5146637 C-9.76878357 8.0146637 -9.76878357 8.0146637 -9.26878357 4.5146637 C-6.43007692 0.8676321 -4.57240725 0.01385464 0 0 Z " fill="#000000" transform="translate(104.26878356933594,343.48533630371094)"/>
<path d="M0 0 C1.05990143 -0.00838898 2.11980286 -0.01677795 3.21182251 -0.02542114 C4.94811417 -0.00856262 4.94811417 -0.00856262 6.71948242 0.00863647 C8.55414566 0.00294144 8.55414566 0.00294144 10.4258728 -0.00286865 C13.77740513 -0.00900886 17.12795086 0.00273179 20.4793663 0.02303743 C23.98754001 0.04061758 27.49569747 0.03708316 31.00390625 0.03631592 C36.89519159 0.03818848 42.78627078 0.05554596 48.67749023 0.08285522 C55.48717723 0.11430563 62.29663848 0.12485138 69.10639286 0.12338412 C76.35795234 0.1220327 83.60942486 0.13591822 90.8609581 0.15427732 C92.94967734 0.15853826 95.03838253 0.15995945 97.12710571 0.16075516 C101.01995815 0.16313908 104.91262329 0.18257002 108.80541992 0.20394897 C110.54171158 0.20258942 110.54171158 0.20258942 112.31307983 0.20120239 C113.37298126 0.20973236 114.43288269 0.21826233 115.52490234 0.22705078 C116.44518723 0.23040247 117.36547211 0.23375416 118.31364441 0.23720741 C120.96190636 0.51543086 122.53751142 1.04540477 124.76245117 2.49447632 C126.76245117 5.49447632 126.76245117 5.49447632 126.63745117 8.99447632 C125.76245117 12.49447632 125.76245117 12.49447632 124.03748322 14.18941689 C121.30143864 15.75893359 119.62983748 15.87159517 116.48693848 15.87542725 C114.8844651 15.88811646 114.8844651 15.88811646 113.24961853 15.90106201 C112.08274002 15.89498932 110.91586151 15.88891663 109.71362305 15.88265991 C108.48076065 15.88791687 107.24789825 15.89317383 105.97767639 15.89859009 C102.59945924 15.90953204 99.22179323 15.90696681 95.84360695 15.89745283 C92.30739224 15.88985442 88.77120099 15.89690234 85.23498535 15.90161133 C79.29666926 15.90706837 73.35846511 15.89987869 67.42016602 15.8855896 C60.55590897 15.86926309 53.69191924 15.87455165 46.82766867 15.89106882 C40.93285888 15.90468522 35.03812955 15.90660262 29.14330912 15.89875281 C25.62315902 15.89407711 22.10313456 15.89344851 18.58299255 15.90336227 C14.65898252 15.91364162 10.73527164 15.89939192 6.8112793 15.88265991 C5.64440079 15.8887326 4.47752228 15.8948053 3.27528381 15.90106201 C2.20696823 15.89260254 1.13865265 15.88414307 0.03796387 15.87542725 C-0.88969536 15.87429617 -1.81735458 15.87316509 -2.77312469 15.87199974 C-5.75603912 15.41504915 -7.12270347 14.63511681 -9.23754883 12.49447632 C-9.92096591 7.11256677 -9.92096591 7.11256677 -9.23754883 4.49447632 C-6.32759927 0.91849788 -4.58598299 -0.00542939 0 0 Z " fill="#020202" transform="translate(104.237548828125,262.5055236816406)"/>
<path d="M0 0 C1.60030563 -0.01702469 1.60030563 -0.01702469 3.23294067 -0.03439331 C4.39824814 -0.03146271 5.5635556 -0.0285321 6.76417542 -0.0255127 C7.99543152 -0.03398224 9.22668762 -0.04245178 10.49525452 -0.05117798 C13.86939092 -0.07056994 17.24297431 -0.076325 20.61712909 -0.07443047 C23.43524278 -0.07431075 26.25330475 -0.08287544 29.07140404 -0.09120798 C35.72049446 -0.11044018 42.36945933 -0.11332652 49.01856995 -0.10656738 C55.87497896 -0.09992573 62.73085012 -0.12279572 69.58715004 -0.15988111 C75.47688822 -0.19058092 81.3664534 -0.2019379 87.25626999 -0.1980443 C90.77265981 -0.19597711 94.28863103 -0.20145046 97.80494499 -0.22593689 C101.72646531 -0.25234327 105.64728137 -0.23847382 109.56886292 -0.2208252 C110.73214615 -0.23408844 111.89542938 -0.24735168 113.09396362 -0.26101685 C121.85300727 -0.16923478 121.85300727 -0.16923478 124.95620728 2.77270508 C126.73121643 5.39440918 126.73121643 5.39440918 127.29371643 7.95690918 C126.5608834 11.13251899 125.21719556 12.34713225 122.73121643 14.39440918 C120.23136635 15.64433422 118.53236677 15.52861236 115.73417664 15.5415802 C114.14844849 15.55231316 114.14844849 15.55231316 112.53068542 15.56326294 C111.3659671 15.56595184 110.20124878 15.56864075 109.00123596 15.57141113 C107.77841919 15.57798233 106.55560242 15.58455353 105.29573059 15.59132385 C101.93617076 15.60767873 98.57667394 15.61928553 95.21708918 15.62752938 C93.11881799 15.63267868 91.02055123 15.6387544 88.92228317 15.64504051 C82.35914445 15.66409171 75.79601698 15.67832375 69.23285592 15.68665248 C61.65309644 15.69642981 54.07362862 15.72276218 46.49397194 15.76315337 C40.63743944 15.79329302 34.78099066 15.80811923 28.92438209 15.81143349 C25.42535397 15.8137862 21.92663745 15.82277473 18.42769241 15.84789467 C14.52502809 15.8754606 10.62274906 15.87135082 6.71998596 15.86437988 C4.97898117 15.88359497 4.97898117 15.88359497 3.20280457 15.90319824 C2.14001282 15.89625443 1.07722107 15.88931061 -0.01777649 15.88215637 C-1.40210027 15.8857389 -1.40210027 15.8857389 -2.81439018 15.88939381 C-6.02930351 15.24103292 -7.22850287 13.90340925 -9.26878357 11.39440918 C-10.04123324 8.43524536 -9.66658499 6.5270954 -9.26878357 3.39440918 C-6.3381384 0.43019984 -4.08395987 0.01643844 0 0 Z " fill="#020202" transform="translate(104.26878356933594,222.6055908203125)"/>
<path d="M0 0 C1.81543304 -0.01292336 1.81543304 -0.01292336 3.6675415 -0.02610779 C6.9798679 -0.04490258 10.29119273 -0.04566892 13.60349536 -0.03678632 C16.37186921 -0.03166915 19.14015373 -0.03897491 21.90851837 -0.04625839 C28.44120786 -0.06324908 34.97366372 -0.0597004 41.50634766 -0.04296875 C48.23838161 -0.0260491 54.96976707 -0.0418809 61.70173019 -0.07419163 C67.4887621 -0.10091139 73.27559244 -0.10815715 79.06267983 -0.09967655 C82.51591101 -0.09475401 85.96875211 -0.09692557 89.42193413 -0.11746407 C93.27373398 -0.13927749 97.12475576 -0.12039545 100.9765625 -0.09765625 C102.68568565 -0.11519455 102.68568565 -0.11519455 104.42933655 -0.13308716 C113.05245854 -0.02944208 113.05245854 -0.02944208 116.80384827 2.84632874 C119.05297852 5.53344727 119.05297852 5.53344727 119.11547852 9.15844727 C118.07598636 12.46036354 117.72949686 13.53799084 115.05297852 15.53344727 C112.67757416 15.91097069 112.67757416 15.91097069 109.81506348 15.91439819 C108.1872419 15.9270874 108.1872419 15.9270874 106.52653503 15.94003296 C105.33578873 15.93396027 104.14504242 15.92788757 102.91821289 15.92163086 C101.66438309 15.92688782 100.41055328 15.93214478 99.11872864 15.93756104 C95.67854185 15.94851466 92.23889519 15.94593029 88.79873848 15.93642378 C85.20065706 15.92883472 81.60259891 15.93587069 78.0045166 15.94058228 C71.96187185 15.94604204 65.91933705 15.93884248 59.87670898 15.92456055 C52.88805438 15.90823352 45.89966232 15.91352188 38.91101408 15.93003976 C32.91348124 15.9436484 26.9160275 15.94557737 20.91848421 15.93772376 C17.33519467 15.93304378 13.75202858 15.9324312 10.16874695 15.94233322 C6.17497531 15.95259845 2.18149838 15.93837555 -1.81225586 15.92163086 C-3.59837532 15.9307399 -3.59837532 15.9307399 -5.420578 15.94003296 C-6.50579239 15.93157349 -7.59100677 15.92311401 -8.70910645 15.91439819 C-10.12604923 15.91270158 -10.12604923 15.91270158 -11.57161713 15.91097069 C-13.94702148 15.53344727 -13.94702148 15.53344727 -15.74314117 14.25573158 C-17.43061796 11.84160887 -17.40762044 9.44799493 -17.54077148 6.56860352 C-15.25773087 -1.25681858 -6.49009321 -0.03710539 0 0 Z " fill="#050504" transform="translate(111.947021484375,181.466552734375)"/>
<path d="M0 0 C1.08376923 -0.01134979 2.16753845 -0.02269958 3.28414917 -0.03439331 C4.47332443 -0.03146271 5.66249969 -0.0285321 6.88771057 -0.0255127 C8.13993408 -0.03398224 9.39215759 -0.04245178 10.68232727 -0.05117798 C14.11843381 -0.07059064 17.55399772 -0.07632351 20.99012256 -0.07443047 C23.85798657 -0.07431088 26.7257996 -0.08287024 29.59364945 -0.09120798 C36.3591848 -0.1104509 43.12459676 -0.11332268 49.89015198 -0.10656738 C56.87095633 -0.09992546 63.85123243 -0.12279435 70.83192962 -0.15988111 C76.82439074 -0.19056307 82.81668179 -0.20193983 88.8092199 -0.1980443 C92.38874691 -0.1959752 95.96786291 -0.20147994 99.5473156 -0.22593689 C103.53859595 -0.25230625 107.5291827 -0.23848741 111.52052307 -0.2208252 C113.30124962 -0.24072006 113.30124962 -0.24072006 115.11795044 -0.26101685 C123.09443395 -0.17873476 123.09443395 -0.17873476 126.53042603 2.74145508 C128.15146426 6.21414685 128.06940848 7.7986482 126.76881409 11.39440918 C124.55613101 14.01163946 122.74467643 15.2468516 119.32904053 15.76332092 C116.148327 15.91721579 112.99035088 15.93454533 109.80592346 15.9119873 C108.59402847 15.91899658 107.38213348 15.92600586 106.1335144 15.93322754 C102.81711266 15.94780138 99.50171106 15.94440733 96.18536568 15.9317112 C92.7110118 15.92156703 89.23669996 15.93098079 85.76234436 15.93725586 C79.92832284 15.94452819 74.09450403 15.93495564 68.26051331 15.91589355 C61.52058146 15.89412536 54.78113364 15.90117705 48.04121351 15.92319918 C42.24910836 15.94136518 36.45714872 15.94390571 30.66502428 15.9334445 C27.20797831 15.92721607 23.75115968 15.92635573 20.29412842 15.93959045 C16.43979656 15.95331611 12.5860046 15.93427955 8.73170471 15.9119873 C7.588694 15.92008423 6.44568329 15.92818115 5.26803589 15.93652344 C-2.45727328 15.85364854 -2.45727328 15.85364854 -6.4417572 13.48925781 C-8.39831151 11.19875856 -8.86848508 10.30100367 -8.73118591 7.33190918 C-8.23118591 3.39440918 -8.23118591 3.39440918 -7.02688503 1.672966 C-4.59248033 -0.06035597 -2.97760253 0.01176962 0 0 Z " fill="#050504" transform="translate(103.23118591308594,303.6055908203125)"/>
<path d="M0 0 C7.91506328 28.22255831 -5.08905581 65.61671178 -15.96191406 91.51904297 C-17.13767075 94.32902403 -18.28278573 97.15077962 -19.4296875 99.97265625 C-22.18546153 106.69370838 -25.06603853 113.35502466 -28 120 C-28.50837402 121.1638623 -29.01674805 122.32772461 -29.54052734 123.52685547 C-35.46928608 136.9067968 -40.4584317 147.79217255 -53.04345703 155.68945312 C-56.98414164 158.32903323 -60.55385297 161.45934934 -64.1875 164.5 C-64.9187207 165.10102539 -65.64994141 165.70205078 -66.40332031 166.32128906 C-72.81823051 171.07800367 -72.81823051 171.07800367 -76 178 C-77.32 177.34 -78.64 176.68 -80 176 C-80.50420109 170.64477328 -80.50420109 170.64477328 -78.3046875 167.83203125 C-77.50289063 167.16558594 -76.70109375 166.49914062 -75.875 165.8125 C-74.51761719 164.66201172 -74.51761719 164.66201172 -73.1328125 163.48828125 C-70.92988305 161.71358083 -68.68788513 159.99661704 -66.4296875 158.29296875 C-65.82012207 157.82850342 -65.21055664 157.36403809 -64.58251953 156.88549805 C-63.39913224 155.9907841 -62.20532619 155.10961245 -60.99951172 154.24536133 C-52.53939059 147.90209013 -48.33926857 138.19837383 -43.875 128.875 C-43.31731934 127.71210449 -42.75963867 126.54920898 -42.18505859 125.35107422 C-30.11560824 99.85888943 -19.68713124 72.65076557 -14 45 C-13.7836792 44.01265869 -13.7836792 44.01265869 -13.56298828 43.00537109 C-10.75173752 30.09385607 -10.3012823 17.18151692 -10 4 C-10.99 3.505 -10.99 3.505 -12 3 C-10.37604003 2.49663233 -8.75079459 1.99741024 -7.125 1.5 C-6.22007812 1.2215625 -5.31515625 0.943125 -4.3828125 0.65625 C-2 0 -2 0 0 0 Z " fill="#FBEE62" transform="translate(462,44)"/>
<path d="M0 0 C107.91 0.495 107.91 0.495 218 1 C218 3.31 218 5.62 218 8 C146.06 8 74.12 8 0 8 C0 5.36 0 2.72 0 0 Z " fill="#3FC0F9" transform="translate(15,451)"/>
<path d="M0 0 C0.82160614 -0.00686325 1.64321228 -0.0137265 2.48971558 -0.02079773 C5.20368771 -0.03908823 7.91708301 -0.03522502 10.63110352 -0.02954102 C12.51913135 -0.03410183 14.40715752 -0.0394071 16.29518127 -0.04542542 C20.2520319 -0.054361 24.20868076 -0.0519284 28.16552734 -0.04199219 C33.2343577 -0.03050354 38.30249131 -0.05071007 43.37123013 -0.07990932 C47.27033406 -0.09826251 51.16927077 -0.0979806 55.06840706 -0.0922718 C56.93710368 -0.09211847 58.80581154 -0.09817258 60.67446709 -0.11056328 C63.28862989 -0.12545448 65.90150236 -0.11481046 68.515625 -0.09765625 C69.67145332 -0.1121582 69.67145332 -0.1121582 70.85063171 -0.12695312 C74.52014162 -0.07657385 76.65635913 0.30103432 79.80262756 2.2518158 C81.82250977 4.40405273 81.82250977 4.40405273 82.44750977 7.34155273 C81.60002854 11.49421073 80.13578898 12.79154463 76.82250977 15.40405273 C73.86480161 15.89894672 71.48386831 16.08988387 68.53149414 16.05102539 C67.70974197 16.05978699 66.88798981 16.06854858 66.04133606 16.07757568 C63.3324358 16.09953312 60.62517581 16.08503067 57.91625977 16.06811523 C56.02965991 16.07148444 54.14306216 16.07633793 52.25646973 16.08261108 C48.30545352 16.08997744 44.35500309 16.07928461 40.40405273 16.0559082 C35.3429028 16.02742048 30.28307854 16.04382573 25.22197723 16.07377052 C21.32710811 16.09184996 17.43255259 16.08608253 13.53767395 16.07313156 C11.67177676 16.06979933 9.80585097 16.07387821 7.93998718 16.08552933 C5.33040097 16.09824893 2.72295258 16.07884734 0.11352539 16.05102539 C-1.03994637 16.06620712 -1.03994637 16.06620712 -2.21672058 16.08169556 C-6.17502436 16.00362525 -8.01595575 15.52805251 -11.19177246 13.09017944 C-13.17749023 10.40405273 -13.17749023 10.40405273 -13.23999023 6.77905273 C-11.07017568 -0.11329938 -6.51989047 -0.03799009 0 0 Z " fill="#010000" transform="translate(128.177490234375,141.595947265625)"/>
<path d="M0 0 C19.64560714 -0.07017709 39.29118874 -0.12303075 58.93689537 -0.15543652 C68.05937269 -0.17088508 77.18177199 -0.19193603 86.30419922 -0.22631836 C94.25816865 -0.25628241 102.21208156 -0.27558961 110.16610587 -0.28226548 C114.37511485 -0.2861659 118.58396215 -0.29529023 122.79291916 -0.31719017 C126.76064047 -0.33766619 130.72813465 -0.34381152 134.69590378 -0.33932304 C136.14624265 -0.3401433 137.59658971 -0.3460425 139.04688263 -0.35761642 C147.23066399 -0.4196815 154.32919 0.03528025 162 3 C163.04414063 3.39058594 164.08828125 3.78117187 165.1640625 4.18359375 C167.8997995 5.57751689 169.90607774 6.73594655 172 9 C172.8427663 13.1242876 172.60393291 16.85299399 172 21 C171.32195312 20.54109375 170.64390625 20.0821875 169.9453125 19.609375 C163.84918725 15.5903229 157.93844192 12.30190447 151 10 C150.08278671 9.65957672 149.16557343 9.31915344 148.2205658 8.96841431 C142.29598676 7.30276798 136.08968042 7.69032468 129.98657227 7.68115234 C128.56683283 7.67184408 127.14709883 7.66167408 125.72737122 7.65071106 C121.88907664 7.62349816 118.0508186 7.60828761 114.21245313 7.59528303 C110.19521746 7.57961422 106.17805596 7.55283601 102.16087341 7.5272522 C94.56086793 7.48053066 86.9608484 7.44375456 79.36077303 7.41057932 C70.70534857 7.37231104 62.04999872 7.32291325 53.39463723 7.27259517 C35.59647948 7.16937389 17.79827615 7.0800817 0 7 C0 4.69 0 2.38 0 0 Z " fill="#F2D59D" transform="translate(76,391)"/>
<path d="M0 0 C1.50029632 -0.00734655 3.000587 -0.01593448 4.50086975 -0.02566528 C8.56062921 -0.04782109 12.62018536 -0.05081521 16.67999697 -0.04891777 C20.07236822 -0.04879787 23.46469671 -0.05736947 26.85705602 -0.06569529 C34.85867202 -0.08490552 42.86018368 -0.08782082 50.86181641 -0.08105469 C59.11391868 -0.07440539 67.36557493 -0.09731918 75.61758673 -0.13436842 C82.70906863 -0.16505069 89.80040687 -0.17642737 96.89195383 -0.1725316 C101.12479824 -0.1704637 105.35729498 -0.17595045 109.59007645 -0.20042419 C113.56790589 -0.22266662 117.5450079 -0.22083518 121.5228405 -0.20049667 C122.98172888 -0.19708285 124.44066604 -0.20219195 125.89948845 -0.21648026 C127.89195093 -0.23464818 129.8846363 -0.21892988 131.87710571 -0.20153809 C132.99167963 -0.2022506 134.10625355 -0.2029631 135.25460243 -0.2036972 C139.1977831 0.62006305 140.73587199 2.33981522 143.23974609 5.41992188 C143.23974609 6.07992188 143.23974609 6.73992187 143.23974609 7.41992188 C88.12974609 7.41992188 33.01974609 7.41992188 -23.76025391 7.41992188 C-21.79950306 3.49842019 -21.110566 2.4736843 -17.15364456 0.97496033 C-11.54737023 -0.32516083 -5.72472315 -0.01324676 0 0 Z " fill="#FCB97F" transform="translate(303.76025390625,413.580078125)"/>
<path d="M0 0 C1.63339718 0.00188591 1.63339718 0.00188591 3.29979229 0.00380993 C5.18583927 -0.01929501 5.18583927 -0.01929501 7.10998821 -0.04286671 C8.49070424 -0.02447456 9.87141103 -0.00537753 11.25210857 0.01435375 C12.71621681 0.00977631 14.18031825 0.00217482 15.64439678 -0.008214 C19.61196431 -0.02727973 23.57816398 -0.00262639 27.54559064 0.03102422 C31.70537862 0.05997549 35.8651161 0.05227405 40.0249815 0.04955578 C47.01335492 0.05054531 54.0011974 0.0789563 60.98941326 0.12470531 C69.05338588 0.17726081 77.11669592 0.19138534 85.18082124 0.18367225 C92.95286614 0.17673934 100.72468821 0.19266342 108.49668217 0.22042942 C111.79670965 0.23209383 115.09663278 0.23667919 118.39667988 0.23563099 C122.28998456 0.23575751 126.18268675 0.25625149 130.07582188 0.29202366 C131.49912801 0.3020472 132.92249978 0.30544387 134.34583569 0.30147839 C142.45752318 0.28382323 148.84800733 0.76835482 155.94424725 4.87250805 C156.93424725 5.36750805 156.93424725 5.36750805 157.94424725 5.87250805 C157.94424725 6.53250805 157.94424725 7.19250805 157.94424725 7.87250805 C102.83424725 7.87250805 47.72424725 7.87250805 -9.05575275 7.87250805 C-3.05575275 0.87250805 -3.05575275 0.87250805 0 0 Z " fill="#FDB97F" transform="translate(75.05575275421143,413.12749195098877)"/>
<path d="M0 0 C4.95 0.99 4.95 0.99 10 2 C10 5.64576469 9.20025251 6.39546311 6.9921875 9.21875 C6.3415332 10.05994385 5.69087891 10.9011377 5.02050781 11.76782227 C4.31249023 12.66944092 3.60447266 13.57105957 2.875 14.5 C1.40741107 16.39341358 -0.05870366 18.28797062 -1.5234375 20.18359375 C-2.26948242 21.14765137 -3.01552734 22.11170898 -3.78417969 23.10498047 C-7.77598764 28.32036816 -11.63349282 33.63461532 -15.48095703 38.95703125 C-16.28702393 40.06304687 -16.28702393 40.06304687 -17.109375 41.19140625 C-17.57311523 41.83279541 -18.03685547 42.47418457 -18.51464844 43.13500977 C-22.6408232 48.31578705 -26.51333212 50.33685409 -32.59765625 52.671875 C-33.42833115 52.99915588 -34.25900604 53.32643677 -35.11485291 53.66363525 C-36.8653966 54.35087775 -38.61793817 55.03305028 -40.37231445 55.71044922 C-43.06099789 56.74941955 -45.74270453 57.8049753 -48.42382812 58.86328125 C-50.12721968 59.52962952 -51.83098349 60.19502718 -53.53515625 60.859375 C-54.73991356 61.33271271 -54.73991356 61.33271271 -55.9690094 61.81561279 C-61.65153144 64 -61.65153144 64 -65 64 C-64.67 61.69 -64.34 59.38 -64 57 C-63.67 57.66 -63.34 58.32 -63 59 C-52.67106166 53.63968957 -43.11179427 48.49747774 -35 40 C-34.44248047 39.41943848 -33.88496094 38.83887695 -33.31054688 38.24072266 C-28.81602224 33.54652014 -24.39883941 28.78373786 -20 24 C-18.95845247 22.87228579 -17.91679446 21.7446736 -16.875 20.6171875 C-14.236966 17.75659317 -11.61695281 14.87990022 -9 12 C-8.20207031 11.13117188 -7.40414062 10.26234375 -6.58203125 9.3671875 C-5.85371094 8.56539062 -5.12539063 7.76359375 -4.375 6.9375 C-3.74335938 6.24527344 -3.11171875 5.55304688 -2.4609375 4.83984375 C-0.79607584 2.95871388 -0.79607584 2.95871388 0 0 Z " fill="#FBEE62" transform="translate(390,228)"/>
<path d="M0 0 C5.28 0 10.56 0 16 0 C16 8.25 16 16.5 16 25 C10.72 25 5.44 25 0 25 C0 16.75 0 8.5 0 0 Z " fill="#3CB6EC" transform="translate(248,444)"/>
</svg>
