<?xml version="1.0" encoding="UTF-8"?>
<svg version="1.1" xmlns="http://www.w3.org/2000/svg" width="512" height="512">
<path d="M0 0 C1.46000011 -0.00418262 2.91999696 -0.00966519 4.3799879 -0.01631981 C8.35594965 -0.03067169 12.33170231 -0.02656214 16.307675 -0.019153 C20.60978893 -0.01439796 24.91185911 -0.02695176 29.21395874 -0.03717041 C37.62841707 -0.05431858 46.04280059 -0.05520666 54.45727185 -0.04995751 C61.30084443 -0.0459069 68.144395 -0.04736992 74.98796654 -0.05270576 C75.96406348 -0.05345419 76.94016042 -0.05420261 77.94583606 -0.05497371 C79.92914243 -0.05650528 81.91244878 -0.05804363 83.89575513 -0.05958868 C102.47224806 -0.07329948 121.04869881 -0.06788617 139.62519076 -0.05640347 C156.59469568 -0.04647402 173.56409152 -0.05940931 190.53357963 -0.08333766 C207.98599129 -0.10776028 225.43835222 -0.11732867 242.89078063 -0.11068493 C252.67770573 -0.10719955 262.464547 -0.10937959 272.25145912 -0.12693596 C280.58332258 -0.1416976 288.91504316 -0.14224186 297.24690393 -0.12486505 C301.49199949 -0.11638493 305.73684025 -0.11413173 309.98192215 -0.1295166 C313.87878031 -0.14346377 317.7751678 -0.13847374 321.67199942 -0.11927737 C323.07094281 -0.11554746 324.46992484 -0.11835092 325.86883352 -0.12888902 C344.17147059 -0.25680349 361.55884283 4.32274625 375.11296082 17.23143005 C391.85747221 35.35490121 392.55501791 55.96955227 392.50920105 79.30296326 C392.51490976 81.92913604 392.52187595 84.55530635 392.52999878 87.18147278 C392.54711458 93.55054302 392.54804181 99.9195143 392.54278588 106.28860155 C392.53872904 111.47075374 392.54020561 116.65287688 392.54553413 121.83502769 C392.54628256 122.57521893 392.54703098 123.31541017 392.54780208 124.07803145 C392.54933371 125.58219281 392.55087206 127.08635417 392.55241705 128.59051552 C392.56611623 142.66752757 392.56072284 156.74448391 392.54923183 170.82149466 C392.53930441 183.66860245 392.55223621 196.51556612 392.57616603 209.36265168 C392.60061423 222.58882059 392.61015075 235.81492253 392.6035133 249.04111356 C392.60003346 256.45266645 392.60217081 263.86410863 392.61976433 271.2756443 C392.63455824 277.58549471 392.63502884 283.89515643 392.61769342 290.20500342 C392.60923914 293.41725955 392.60910348 296.62911415 392.62234497 299.84136391 C392.70563485 321.72905763 391.24222497 340.44590268 375.45671082 357.1025238 C361.94452748 370.23313386 347.38498828 374.85418355 328.78044128 374.78831482 C327.37471436 374.79407066 325.96899237 374.80115884 324.5632782 374.8094635 C321.5584696 374.8244722 318.55383746 374.83035998 315.54899216 374.82893562 C310.79044134 374.82688671 306.03212476 374.84656896 301.27363586 374.86911011 C292.0331437 374.90992951 282.79267066 374.92865437 273.55210876 374.94528198 C261.78312995 374.96769496 250.01420613 375.00132151 238.24531662 375.05248111 C233.52191603 375.07231228 228.79863948 375.0819766 224.07519889 375.08343327 C221.13133314 375.0861969 218.18753525 375.09705537 215.24369812 375.10994339 C213.24286359 375.11621478 211.24200565 375.11264237 209.24116516 375.10870361 C196.85760836 374.84706304 196.85760836 374.84706304 186.29264832 380.32518005 C183.14146954 383.42345044 179.89779698 386.40011968 176.61930847 389.36302185 C170.66594916 394.78811586 164.97254823 400.44041773 159.32665634 406.18270302 C157.63803665 407.89861797 155.94452916 409.60957432 154.24958801 411.31924438 C149.44039335 416.17057001 144.63439842 421.02495354 139.84440613 425.89524841 C136.88916424 428.89932408 133.92397614 431.8932734 130.95230484 434.88109398 C129.83480031 436.00839938 128.72093387 437.13932494 127.61104965 438.27413368 C116.07059822 450.06833071 105.17978368 457.57449383 88.29264832 457.82518005 C74.68059965 457.72262256 63.04631485 453.55678873 52.85514832 444.35643005 C40.96504675 431.92586933 38.79300672 418.12687253 38.71452332 401.67478943 C38.55447573 394.34372102 37.80445124 387.43656274 32.65837097 381.80418396 C25.63715846 375.68352307 18.76915186 375.25937754 9.73405457 375.24705505 C8.09016074 375.22870592 6.44628019 375.20913371 4.80241394 375.1884613 C2.24888332 375.15973987 -0.30379654 375.13768558 -2.85749817 375.13719177 C-21.71234374 375.11145639 -36.86314073 371.00712334 -51.08235168 357.82518005 C-67.91945739 340.07796052 -68.49316268 319.28290089 -68.41242981 296.13182068 C-68.41785878 293.5052044 -68.42498576 290.87859117 -68.43367004 288.25198364 C-68.45134186 281.89331735 -68.4476664 275.53484122 -68.43601948 269.17616785 C-68.42694035 264.00266308 -68.42578038 258.82921115 -68.43011475 253.65570068 C-68.43072768 252.91591592 -68.43134061 252.17613115 -68.43197212 251.41392866 C-68.43325118 249.91049189 -68.43454803 248.40705513 -68.43586248 246.9036184 C-68.44723506 232.84660094 -68.43420699 218.78968827 -68.41266102 204.73268801 C-68.39479305 192.70340768 -68.39789809 180.67428182 -68.41633606 168.64500427 C-68.43780177 154.63405556 -68.44613673 140.62319841 -68.433887 126.61223555 C-68.43261297 125.11471019 -68.43135549 123.61718481 -68.43011475 122.11965942 C-68.42949764 121.38308496 -68.42888054 120.64651049 -68.42824474 119.88761559 C-68.42480889 114.72772781 -68.43058182 109.56789871 -68.44003296 104.40802002 C-68.45250357 97.44747149 -68.44346931 90.48721743 -68.42045593 83.52669716 C-68.41519699 80.98234347 -68.41663391 78.4379651 -68.42550659 75.89362144 C-68.49458137 54.0617246 -66.92119823 34.04346892 -51.05110168 17.37986755 C-36.53071566 3.96429351 -19.31647191 -0.09124501 0 0 Z " fill="#8CD0FE" transform="translate(93.89485168457031,25.612319946289063)"/>
<path d="M0 0 C1.46000011 -0.00418262 2.91999696 -0.00966519 4.3799879 -0.01631981 C8.35594965 -0.03067169 12.33170231 -0.02656214 16.307675 -0.019153 C20.60978893 -0.01439796 24.91185911 -0.02695176 29.21395874 -0.03717041 C37.62841707 -0.05431858 46.04280059 -0.05520666 54.45727185 -0.04995751 C61.30084443 -0.0459069 68.144395 -0.04736992 74.98796654 -0.05270576 C75.96406348 -0.05345419 76.94016042 -0.05420261 77.94583606 -0.05497371 C79.92914243 -0.05650528 81.91244878 -0.05804363 83.89575513 -0.05958868 C102.47224806 -0.07329948 121.04869881 -0.06788617 139.62519076 -0.05640347 C156.59469568 -0.04647402 173.56409152 -0.05940931 190.53357963 -0.08333766 C207.98599129 -0.10776028 225.43835222 -0.11732867 242.89078063 -0.11068493 C252.67770573 -0.10719955 262.464547 -0.10937959 272.25145912 -0.12693596 C280.58332258 -0.1416976 288.91504316 -0.14224186 297.24690393 -0.12486505 C301.49199949 -0.11638493 305.73684025 -0.11413173 309.98192215 -0.1295166 C313.87878031 -0.14346377 317.7751678 -0.13847374 321.67199942 -0.11927737 C323.07094281 -0.11554746 324.46992484 -0.11835092 325.86883352 -0.12888902 C344.17147059 -0.25680349 361.55884283 4.32274625 375.11296082 17.23143005 C391.85747221 35.35490121 392.55501791 55.96955227 392.50920105 79.30296326 C392.51490976 81.92913604 392.52187595 84.55530635 392.52999878 87.18147278 C392.54711458 93.55054302 392.54804181 99.9195143 392.54278588 106.28860155 C392.53872904 111.47075374 392.54020561 116.65287688 392.54553413 121.83502769 C392.54628256 122.57521893 392.54703098 123.31541017 392.54780208 124.07803145 C392.54933371 125.58219281 392.55087206 127.08635417 392.55241705 128.59051552 C392.56611623 142.66752757 392.56072284 156.74448391 392.54923183 170.82149466 C392.53930441 183.66860245 392.55223621 196.51556612 392.57616603 209.36265168 C392.60061423 222.58882059 392.61015075 235.81492253 392.6035133 249.04111356 C392.60003346 256.45266645 392.60217081 263.86410863 392.61976433 271.2756443 C392.63455824 277.58549471 392.63502884 283.89515643 392.61769342 290.20500342 C392.60923914 293.41725955 392.60910348 296.62911415 392.62234497 299.84136391 C392.70563485 321.72905763 391.24222497 340.44590268 375.45671082 357.1025238 C361.94452748 370.23313386 347.38498828 374.85418355 328.78044128 374.78831482 C327.37471436 374.79407066 325.96899237 374.80115884 324.5632782 374.8094635 C321.5584696 374.8244722 318.55383746 374.83035998 315.54899216 374.82893562 C310.79044134 374.82688671 306.03212476 374.84656896 301.27363586 374.86911011 C292.0331437 374.90992951 282.79267066 374.92865437 273.55210876 374.94528198 C261.78312995 374.96769496 250.01420613 375.00132151 238.24531662 375.05248111 C233.52191603 375.07231228 228.79863948 375.0819766 224.07519889 375.08343327 C221.13133314 375.0861969 218.18753525 375.09705537 215.24369812 375.10994339 C213.24286359 375.11621478 211.24200565 375.11264237 209.24116516 375.10870361 C196.85760836 374.84706304 196.85760836 374.84706304 186.29264832 380.32518005 C183.14146954 383.42345044 179.89779698 386.40011968 176.61930847 389.36302185 C170.66594916 394.78811586 164.97254823 400.44041773 159.32665634 406.18270302 C157.63803665 407.89861797 155.94452916 409.60957432 154.24958801 411.31924438 C149.44039335 416.17057001 144.63439842 421.02495354 139.84440613 425.89524841 C136.88916424 428.89932408 133.92397614 431.8932734 130.95230484 434.88109398 C129.83480031 436.00839938 128.72093387 437.13932494 127.61104965 438.27413368 C116.07059822 450.06833071 105.17978368 457.57449383 88.29264832 457.82518005 C74.68059965 457.72262256 63.04631485 453.55678873 52.85514832 444.35643005 C40.96504675 431.92586933 38.79300672 418.12687253 38.71452332 401.67478943 C38.55447573 394.34372102 37.80445124 387.43656274 32.65837097 381.80418396 C25.63715846 375.68352307 18.76915186 375.25937754 9.73405457 375.24705505 C8.09016074 375.22870592 6.44628019 375.20913371 4.80241394 375.1884613 C2.24888332 375.15973987 -0.30379654 375.13768558 -2.85749817 375.13719177 C-21.71234374 375.11145639 -36.86314073 371.00712334 -51.08235168 357.82518005 C-67.91945739 340.07796052 -68.49316268 319.28290089 -68.41242981 296.13182068 C-68.41785878 293.5052044 -68.42498576 290.87859117 -68.43367004 288.25198364 C-68.45134186 281.89331735 -68.4476664 275.53484122 -68.43601948 269.17616785 C-68.42694035 264.00266308 -68.42578038 258.82921115 -68.43011475 253.65570068 C-68.43072768 252.91591592 -68.43134061 252.17613115 -68.43197212 251.41392866 C-68.43325118 249.91049189 -68.43454803 248.40705513 -68.43586248 246.9036184 C-68.44723506 232.84660094 -68.43420699 218.78968827 -68.41266102 204.73268801 C-68.39479305 192.70340768 -68.39789809 180.67428182 -68.41633606 168.64500427 C-68.43780177 154.63405556 -68.44613673 140.62319841 -68.433887 126.61223555 C-68.43261297 125.11471019 -68.43135549 123.61718481 -68.43011475 122.11965942 C-68.42949764 121.38308496 -68.42888054 120.64651049 -68.42824474 119.88761559 C-68.42480889 114.72772781 -68.43058182 109.56789871 -68.44003296 104.40802002 C-68.45250357 97.44747149 -68.44346931 90.48721743 -68.42045593 83.52669716 C-68.41519699 80.98234347 -68.41663391 78.4379651 -68.42550659 75.89362144 C-68.49458137 54.0617246 -66.92119823 34.04346892 -51.05110168 17.37986755 C-36.53071566 3.96429351 -19.31647191 -0.09124501 0 0 Z M-28.89485168 42.38768005 C-32.61996912 47.16807155 -35.01529725 50.68676001 -35.02907276 56.92996311 C-35.03353061 57.86680268 -35.03798845 58.80364225 -35.04258138 59.76887089 C-35.04239702 60.79997626 -35.04221265 61.83108163 -35.04202271 62.89343262 C-35.04569939 63.98741582 -35.04937608 65.08139902 -35.05316418 66.20853323 C-35.0642228 69.8933349 -35.06804858 73.57810839 -35.07185364 77.26292419 C-35.0781167 79.89735584 -35.08475045 82.53178446 -35.09176636 85.16621399 C-35.11153057 93.08647113 -35.12159782 101.00672956 -35.13049415 108.9270052 C-35.13487792 112.65796645 -35.14024457 116.38892627 -35.14548302 120.1198864 C-35.16249676 132.52515016 -35.17698983 144.93041304 -35.18423176 157.33568668 C-35.18614162 160.55508488 -35.18806196 163.77448306 -35.1900177 166.99388123 C-35.19050144 167.79403699 -35.19098518 168.59419276 -35.19148358 169.41859566 C-35.19977972 182.37384584 -35.22510893 195.32900355 -35.25759838 208.28421337 C-35.29069232 221.5891245 -35.30868271 234.89398868 -35.311876 248.19894117 C-35.31403915 255.66747643 -35.32275896 263.13587693 -35.34833717 270.60437202 C-35.37007629 276.9665861 -35.37807896 283.3286327 -35.36837039 289.69087971 C-35.3638346 292.93474094 -35.3678646 296.1781858 -35.38513184 299.42201424 C-35.40283816 302.94598015 -35.39574958 306.4690752 -35.38259888 309.99304199 C-35.39356812 311.00853231 -35.40453737 312.02402263 -35.41583902 313.07028538 C-35.34571348 320.87558807 -33.76280514 327.83056958 -28.78157043 334.0087738 C-28.05582825 334.60818787 -27.33008606 335.20760193 -26.58235168 335.82518005 C-25.86434387 336.44264099 -25.14633606 337.06010193 -24.40657043 337.6962738 C-18.13938523 341.91663336 -13.09093359 342.81428983 -5.69953918 342.7587738 C-3.91307906 342.77616881 -2.12662077 342.79375304 -0.34016418 342.81150818 C2.43721639 342.8215216 5.2144693 342.82518976 7.99186707 342.82347107 C25.92776323 342.84745809 41.69760683 345.15852336 55.35514832 358.01268005 C67.82074649 371.21154871 70.49323928 384.48263479 70.63249207 402.01853943 C70.77383405 409.14799559 70.90627973 414.81121674 75.85905457 420.34861755 C76.4558905 420.81525818 77.05272644 421.2818988 77.66764832 421.76268005 C78.26706238 422.24478943 78.86647644 422.7268988 79.48405457 423.22361755 C83.14781028 425.85445901 86.72795851 426.07128553 91.10514832 425.38768005 C96.84876299 422.70610652 101.35669432 418.55144853 105.72966003 414.05613708 C106.33899384 413.44242249 106.94832764 412.82870789 107.5761261 412.19639587 C108.88675875 410.87442514 110.19391744 409.54900266 111.49787521 408.22044754 C113.56914354 406.1105449 115.64993903 404.01045848 117.73335266 401.91255188 C122.90534018 396.70065923 128.06087028 391.47258549 133.21684265 386.24485779 C137.58033777 381.82187676 141.95012311 377.40529042 146.32823563 372.99677658 C148.36500132 370.940751 150.39241679 368.87581399 152.41957092 366.81031799 C165.02893696 354.04967284 177.8944425 343.49274217 196.62527466 343.13612366 C199.2361661 343.12481972 201.84569477 343.12399604 204.45646667 343.13230896 C205.90115557 343.12955513 207.34584294 343.12587286 208.79052734 343.12133789 C211.88867174 343.11325905 214.98674411 343.11104903 218.08489799 343.11328506 C222.99019074 343.11613091 227.89534094 343.10171927 232.80059814 343.08430481 C246.74478533 343.03739779 260.68896184 343.01333942 274.63322449 343.00682068 C282.34450605 343.00306374 290.05562522 342.98498681 297.76683718 342.95172632 C302.63669058 342.93157662 307.50612336 342.92910988 312.37600124 342.94000649 C315.41280676 342.94262408 318.44937013 342.92855933 321.48611259 342.90992546 C322.88686742 342.90462904 324.28766755 342.90605638 325.68840408 342.91496086 C336.70149967 342.97928834 345.12523453 341.31681064 353.23799181 333.51126993 C359.1098761 326.83294704 359.68811475 318.53718713 359.61308289 310.02668762 C359.61932285 308.92531232 359.62556281 307.82393701 359.63199186 306.68918669 C359.64786862 303.02124269 359.63533789 299.35396811 359.62272644 295.6860199 C359.62814985 293.04729287 359.6351297 290.40861103 359.64396667 287.76989746 C359.66170262 281.36095658 359.65793438 274.95220364 359.64631611 268.54325555 C359.63726415 263.33330673 359.63606538 258.1234104 359.64041138 252.91345596 C359.64133078 251.79909473 359.64133078 251.79909473 359.64226875 250.66222114 C359.64354771 249.15280932 359.64484456 247.64339751 359.64615911 246.13398571 C359.65755006 231.99902704 359.64447375 217.86417234 359.62295765 203.72923072 C359.6050806 191.60979465 359.60819861 179.49051181 359.62663269 167.37107849 C359.64805296 153.28187655 359.65645933 139.19276555 359.64418364 125.1035496 C359.64290949 123.60045729 359.64165201 122.09736496 359.64041138 120.59427261 C359.63979427 119.85480253 359.63917717 119.11533244 359.63854137 118.35345417 C359.63509249 113.15080421 359.64090668 107.94821212 359.65032959 102.74557114 C359.66156351 96.40393566 359.65848012 90.06249815 359.63720661 83.72088526 C359.6267158 80.48736965 359.62470453 77.25425081 359.63580322 74.02072716 C359.64673699 70.51172449 359.63301967 67.00364884 359.61308289 63.4947052 C359.62200577 62.47816404 359.63092866 61.46162287 359.64012194 60.41427743 C359.55355336 52.55666458 357.57925863 46.25064259 351.85514832 40.63768005 C351.33436707 40.1065863 350.81358582 39.57549255 350.27702332 39.02830505 C342.29142675 32.99601988 335.41503447 32.81320844 325.68180847 32.87974548 C324.21217036 32.87513265 322.74253687 32.86877716 321.27291298 32.86083651 C317.24734604 32.84417242 313.2221595 32.8523761 309.19659138 32.86478138 C304.8502275 32.87384157 300.50392846 32.85985734 296.15757751 32.84886169 C287.6481715 32.83108222 279.13890667 32.83491391 270.62949514 32.84651226 C263.71326636 32.85554855 256.79707711 32.85676973 249.88084412 32.85241699 C248.40389177 32.85149759 248.40389177 32.85149759 246.897102 32.85055962 C244.89678811 32.84928071 242.89647423 32.84798386 240.89616036 32.84666926 C222.14251177 32.83526513 203.38894141 32.84837454 184.63530564 32.86987072 C168.54643798 32.88774155 152.45768577 32.88463739 136.36882019 32.86619568 C117.681936 32.84478602 98.99512037 32.83636375 80.30822563 32.84864473 C78.31530127 32.84991892 76.3223769 32.8511764 74.32945251 32.85241699 C73.34891486 32.85303409 72.3683772 32.8536512 71.35812628 32.854287 C64.45080584 32.85773961 57.54352891 32.85191347 50.63621521 32.84249878 C42.21762409 32.83127637 33.79918213 32.83432396 25.38060808 32.85562176 C21.0859128 32.8661289 16.79146617 32.87025977 12.49677277 32.85702515 C8.56373387 32.84508838 4.63117364 32.85168464 0.69817805 32.87293535 C-0.7229761 32.87739601 -2.14417085 32.87514714 -3.5652988 32.8654322 C-14.30598986 32.79765199 -21.56717611 33.87173277 -28.89485168 42.38768005 Z " fill="#0251AD" transform="translate(93.89485168457031,25.612319946289063)"/>
<path d="M0 0 C5.60447848 2.34044701 8.65425824 5.78895921 10.9609375 11.37109375 C11.60594319 15.4399769 11.54600596 19.41623864 11.44921875 23.52734375 C11.44214401 24.67021851 11.43506927 25.81309326 11.42778015 26.99060059 C11.39993371 30.61811534 11.33720916 34.24405052 11.2734375 37.87109375 C11.24834222 40.33982136 11.22553122 42.80857332 11.20507812 45.27734375 C11.15013891 51.3091269 11.06660916 57.33999744 10.9609375 63.37109375 C11.59241196 63.35777008 12.22388641 63.34444641 12.87449646 63.33071899 C19.47723924 63.19745161 26.07959689 63.10726524 32.68334961 63.04150391 C35.14411959 63.01142549 37.60478319 62.97055157 40.06518555 62.91845703 C43.61273513 62.84525249 47.15886128 62.81154601 50.70703125 62.78515625 C51.7980162 62.75418854 52.88900116 62.72322083 54.01304626 62.6913147 C61.51921118 62.6880451 66.33600342 64.30499658 71.9609375 69.37109375 C74.96488979 73.46739233 75.4962162 77.22662432 75.3125 82.1953125 C74.55225061 86.90041148 71.79021957 89.64053573 68.3359375 92.68359375 C64.85624016 95.15601028 63.09747545 95.49464005 58.86865234 95.48461914 C57.27722916 95.48450584 57.27722916 95.48450584 55.65365601 95.48439026 C54.50466827 95.47922897 53.35568054 95.47406769 52.171875 95.46875 C50.41153427 95.46662758 50.41153427 95.46662758 48.6156311 95.46446228 C44.85570765 95.45885064 41.09584305 95.44629613 37.3359375 95.43359375 C34.79166752 95.42858025 32.24739662 95.42401708 29.703125 95.41992188 C23.45570897 95.40887743 17.20832744 95.39212793 10.9609375 95.37109375 C10.97426117 96.3470903 10.97426117 96.3470903 10.987854 97.34280396 C11.07644584 104.12362877 11.13672123 110.90428879 11.18066406 117.68554688 C11.20076155 120.21523722 11.22804418 122.74488121 11.26269531 125.27441406 C11.31129306 128.91352792 11.33392562 132.55202675 11.3515625 136.19140625 C11.38253021 137.88392014 11.38253021 137.88392014 11.41412354 139.61062622 C11.41590418 145.8618073 11.20316735 149.64578022 6.9609375 154.37109375 C1.84790694 158.8754302 -1.38281659 159.89096889 -8.13671875 159.85546875 C-13.02174951 159.04020117 -15.98874356 156.13238928 -19.0390625 152.37109375 C-20.9813935 149.16563199 -21.28385587 146.77770119 -21.26611328 143.05175781 C-21.26596222 141.99096008 -21.26581116 140.93016235 -21.26565552 139.83721924 C-21.25533295 138.69855408 -21.24501038 137.55988892 -21.234375 136.38671875 C-21.2315451 135.21598816 -21.22871521 134.04525757 -21.22579956 132.83905029 C-21.21460406 129.0996275 -21.18950026 125.36044416 -21.1640625 121.62109375 C-21.1540319 119.08594096 -21.14490619 116.55078441 -21.13671875 114.015625 C-21.11466676 107.80069954 -21.08119525 101.58591375 -21.0390625 95.37109375 C-21.69781372 95.38663803 -22.35656494 95.40218231 -23.03527832 95.41819763 C-29.91354703 95.57348829 -36.79131512 95.67881458 -43.67089844 95.75561523 C-46.23555744 95.7907409 -48.80007703 95.83845311 -51.36425781 95.89916992 C-55.05829306 95.98442791 -58.7504703 96.02386372 -62.4453125 96.0546875 C-64.1551532 96.108881 -64.1551532 96.108881 -65.89953613 96.16416931 C-72.80856772 96.16755003 -76.5657369 95.16956706 -81.53649902 90.26893616 C-84.79986783 86.14707388 -85.49643351 82.84547961 -85.34375 77.6796875 C-84.74379808 73.13389793 -82.88720419 70.01539628 -79.47229004 66.97712708 C-73.42331925 62.74998045 -68.09812614 62.71294332 -60.8828125 62.8828125 C-59.16850037 62.89342461 -59.16850037 62.89342461 -57.41955566 62.9042511 C-53.79204091 62.93209754 -50.16610573 62.99482209 -46.5390625 63.05859375 C-44.07033489 63.08368903 -41.60158293 63.10650003 -39.1328125 63.12695312 C-33.10102935 63.18189234 -27.07015881 63.26542209 -21.0390625 63.37109375 C-21.04794495 62.73517807 -21.05682739 62.09926239 -21.065979 61.44407654 C-21.15466126 54.80908216 -21.21488356 48.17425692 -21.25878906 41.53881836 C-21.27887021 39.0644649 -21.30614073 36.5901587 -21.34082031 34.1159668 C-21.38949028 30.55375487 -21.41206704 26.99217194 -21.4296875 23.4296875 C-21.45033264 22.32837997 -21.47097778 21.22707245 -21.49224854 20.09239197 C-21.49413303 13.60198575 -20.90724494 9.64953694 -17.0390625 4.37109375 C-12.03890527 -0.3197754 -6.69924635 -2.06624265 0 0 Z " fill="#FEFEFF" transform="translate(261.0390625,133.62890625)"/>
<path d="M0 0 C0.66 0.33 1.32 0.66 2 1 C-2.62 5.62 -7.24 10.24 -12 15 C-12 10.09687565 -8.29800369 7.38658643 -5 4 C-3.37458956 2.61667196 -1.72614587 1.25537882 0 0 Z " fill="#2970C4" transform="translate(50,37)"/>
</svg>
