<?xml version="1.0" encoding="UTF-8"?>
<svg version="1.1" xmlns="http://www.w3.org/2000/svg" width="512" height="512">
<path d="M0 0 C6.41589869 3.81519024 10.50061798 8.85310993 12.48046875 16.08984375 C12.70751953 19.24951172 12.70751953 19.24951172 12.67578125 22.58203125 C12.66611328 24.38027344 12.66611328 24.38027344 12.65625 26.21484375 C12.63111328 28.07109375 12.63111328 28.07109375 12.60546875 29.96484375 C12.59644531 31.22554687 12.58742188 32.48625 12.578125 33.78515625 C12.55462683 36.88691415 12.52177209 39.98828027 12.48046875 43.08984375 C13.32391846 43.20956543 14.16736816 43.32928711 15.03637695 43.45263672 C52.67121362 48.98315614 86.81050903 69.61029584 110.05322266 99.7434082 C131.4515938 128.69437081 140.5342422 161.33042336 140.67969894 196.9682312 C140.69165542 199.64563932 140.71115003 202.32289788 140.7328186 205.00024414 C140.79386135 212.6067186 140.84821772 220.21317483 140.88183594 227.81982422 C140.90303245 232.49347416 140.93852644 237.16684432 140.98259354 241.84033203 C140.99655517 243.60055199 141.00542994 245.36082136 141.00864792 247.12109375 C141.03954548 262.40978769 142.54604808 277.35191114 147.10546875 292.02734375 C147.48396973 293.25747192 147.48396973 293.25747192 147.87011719 294.51245117 C155.50158389 318.24395329 170.41380943 343.27826636 190.50390625 358.63671875 C197.93150408 364.38528106 203.193304 373.7230063 204.48046875 383.08984375 C205.42130854 393.69238441 203.02013998 403.61535854 196.48046875 412.08984375 C193.98046875 414.83984375 193.98046875 414.83984375 191.48046875 417.08984375 C190.73796875 417.77046875 189.99546875 418.45109375 189.23046875 419.15234375 C182.4543707 423.92641283 175.54304351 426.21071946 167.30304623 426.22406483 C165.3888913 426.23075159 165.3888913 426.23075159 163.43606657 426.23757344 C162.01694293 426.23748415 160.59781929 426.2372943 159.17869568 426.23701477 C157.67340518 426.24031426 156.16811556 426.24404001 154.66282707 426.24815625 C150.52012387 426.25817478 146.37743515 426.26189281 142.23472154 426.26454556 C137.76895747 426.26844907 133.30320487 426.27802741 128.83744812 426.28675842 C118.04920421 426.30652198 107.26095936 426.31658912 96.47270188 426.32548621 C91.39202364 426.32986948 86.31134644 426.33523621 81.23066902 426.34047508 C64.34059967 426.35748761 47.45053097 426.37198155 30.56045437 426.37922382 C26.17726579 426.38113371 21.79407723 426.38305405 17.41088867 426.38500977 C15.77676229 426.38573538 15.77676229 426.38573538 14.10962326 426.38647565 C-3.53634092 426.39477509 -21.18223729 426.42011048 -38.82817186 426.45259044 C-56.94584179 426.48566674 -75.06347727 426.50367312 -93.18117756 426.50686806 C-103.35317911 426.50903268 -113.52508179 426.51777423 -123.69705391 426.54332924 C-132.36047302 426.56504404 -141.02376924 426.57308282 -149.68721247 426.56336246 C-154.10580551 426.55881997 -158.52414504 426.56070096 -162.94270325 426.5801239 C-166.99260586 426.59777219 -171.04207034 426.59674453 -175.09197771 426.58122661 C-176.55234563 426.57885305 -178.01274403 426.58316103 -179.47306544 426.59505526 C-192.22137189 426.69240699 -202.57817409 424.53538968 -212.14453125 415.65234375 C-212.92828125 414.80671875 -213.71203125 413.96109375 -214.51953125 413.08984375 C-215.20015625 412.36796875 -215.88078125 411.64609375 -216.58203125 410.90234375 C-222.70999821 402.00690784 -225.00003175 391.18241003 -223.05859375 380.5703125 C-219.92574086 368.86818553 -213.42471541 361.79296141 -204.68994141 353.82275391 C-186.45153682 337.12197427 -173.58601212 315.86814354 -166.26953125 292.27734375 C-166.03516357 291.53242676 -165.8007959 290.78750977 -165.55932617 290.02001953 C-161.47093545 276.05171799 -160.08121352 261.97416841 -160.10884094 247.48787689 C-160.11343909 244.85897426 -160.09899062 242.2307039 -160.08044434 239.60186768 C-160.04416734 234.01453568 -160.03004962 228.42727594 -160.01953125 222.83984375 C-159.91197318 165.86250236 -159.91197318 165.86250236 -151.51953125 142.08984375 C-151.18115234 141.13005615 -151.18115234 141.13005615 -150.8359375 140.15087891 C-143.33307773 119.35375701 -131.81241429 101.93521534 -116.51953125 86.08984375 C-115.730625 85.23777344 -114.94171875 84.38570313 -114.12890625 83.5078125 C-96.64718939 65.1288552 -73.31842704 53.16810375 -49.14453125 46.27734375 C-48.05688477 45.96639771 -48.05688477 45.96639771 -46.94726562 45.64916992 C-41.81735273 44.26069692 -36.81181368 43.5752306 -31.51953125 43.08984375 C-31.54047852 42.31906494 -31.56142578 41.54828613 -31.58300781 40.75415039 C-31.6667861 37.22035057 -31.71838723 33.68676053 -31.76953125 30.15234375 C-31.80304688 28.93998047 -31.8365625 27.72761719 -31.87109375 26.47851562 C-31.95846209 18.41878664 -31.522323 11.30067967 -25.73925781 5.21704102 C-18.49736539 -1.37201187 -9.51678154 -3.43784511 0 0 Z " fill="#000000" transform="translate(265.51953125,0.91015625)"/>
<path d="M0 0 C52.14 0 104.28 0 158 0 C154.49938061 14.00247756 154.49938061 14.00247756 151.25 20.1875 C150.89784424 20.86965576 150.54568848 21.55181152 150.18286133 22.25463867 C147.31768908 27.66720366 144.14282488 32.46852688 140 37 C139.19949219 37.89203125 138.39898437 38.7840625 137.57421875 39.703125 C124.17026167 53.90239646 105.40448383 63.62321223 85.66796875 64.43359375 C83.50794201 64.4572833 81.3475583 64.45811186 79.1875 64.4375 C78.04748535 64.42847656 76.9074707 64.41945313 75.73291016 64.41015625 C57.43377531 64.03527 39.63713723 57.46752875 26 45 C25.10796875 44.19949219 24.2159375 43.39898437 23.296875 42.57421875 C10.76927789 30.74830399 3.71744608 16.72850736 0 0 Z " fill="#000000" transform="translate(177,448)"/>
</svg>
