<?xml version="1.0" encoding="UTF-8"?>
<svg version="1.1" xmlns="http://www.w3.org/2000/svg" width="512" height="512">
<path d="M0 0 C1.69153987 1.69153987 1.12223957 3.79246094 1.12908131 6.04962689 C1.12616847 6.77821232 1.12325563 7.50679776 1.12025452 8.25746155 C1.12153615 9.41030495 1.12153615 9.41030495 1.12284368 10.58643812 C1.12450081 13.18142786 1.11897334 15.77635403 1.11352539 18.37133789 C1.11324354 20.22367857 1.1134012 22.07601937 1.1139679 23.92835999 C1.11425597 28.97360411 1.10835773 34.01882468 1.10139394 39.06406331 C1.09516195 44.33050369 1.09455672 49.59694456 1.09336853 54.86338806 C1.09025475 64.84357958 1.08204075 74.8237602 1.07201904 84.80394691 C1.06085933 96.1628819 1.05534781 107.5218174 1.05032361 118.8807565 C1.03985817 142.25384372 1.02225784 165.62692125 1 189 C-1.96758857 189.80141572 -4.9364551 190.59746029 -7.90625 191.390625 C-8.73286133 191.61443848 -9.55947266 191.83825195 -10.41113281 192.06884766 C-51.68645728 203.05146323 -102.57605127 201.04531247 -141 181 C-141.33 180.34 -141.66 179.68 -142 179 C-140.97468223 176.58145631 -139.89003805 174.2385546 -138.75 171.875 C-132.26572949 157.70620303 -129.64170017 142.00945281 -133.50512695 126.70288086 C-136.02626183 115.25448894 -135.36986298 103.46892527 -135.29296875 91.81640625 C-135.28736322 89.30435949 -135.28309765 86.79230941 -135.28010559 84.28025818 C-135.26988955 78.38391675 -135.24633712 72.48775112 -135.21605712 66.59148115 C-135.17896972 59.20620034 -135.16306535 51.82089724 -135.14648438 44.43554688 C-135.11445287 31.29027837 -135.06393747 18.1451501 -135 5 C-131.63717389 3.86534478 -128.27271888 2.73559595 -124.90795898 1.60668945 C-123.96104942 1.28712532 -123.01413986 0.96756119 -122.03853607 0.63831329 C-115.44551945 -1.57010942 -108.89407001 -3.48432961 -102.0625 -4.8125 C-100.58027954 -5.10966919 -100.58027954 -5.10966919 -99.06811523 -5.4128418 C-66.7451422 -11.59862601 -31.36542443 -10.68193413 0 0 Z M-107 77 C-107 80.96 -107 84.92 -107 89 C-109.97 89 -112.94 89 -116 89 C-116 92.63 -116 96.26 -116 100 C-113.03 100 -110.06 100 -107 100 C-107 103.63 -107 107.26 -107 111 C-103.37 111 -99.74 111 -96 111 C-96 107.37 -96 103.74 -96 100 C-92.04 100 -88.08 100 -84 100 C-84 103.63 -84 107.26 -84 111 C-80.37 111 -76.74 111 -73 111 C-73 107.37 -73 103.74 -73 100 C-69.04 100 -65.08 100 -61 100 C-61 103.63 -61 107.26 -61 111 C-57.37 111 -53.74 111 -50 111 C-50 107.37 -50 103.74 -50 100 C-46.7 100 -43.4 100 -40 100 C-40 103.63 -40 107.26 -40 111 C-36.37 111 -32.74 111 -29 111 C-29 107.37 -29 103.74 -29 100 C-25.7 100 -22.4 100 -19 100 C-19 96.37 -19 92.74 -19 89 C-22.3 89 -25.6 89 -29 89 C-29 85.04 -29 81.08 -29 77 C-32.63 77 -36.26 77 -40 77 C-40 80.96 -40 84.92 -40 89 C-43.3 89 -46.6 89 -50 89 C-50 85.04 -50 81.08 -50 77 C-53.63 77 -57.26 77 -61 77 C-61 80.96 -61 84.92 -61 89 C-64.96 89 -68.92 89 -73 89 C-73 85.04 -73 81.08 -73 77 C-76.63 77 -80.26 77 -84 77 C-84 80.96 -84 84.92 -84 89 C-87.96 89 -91.92 89 -96 89 C-96 85.04 -96 81.08 -96 77 C-99.63 77 -103.26 77 -107 77 Z " fill="#000000" transform="translate(278,256)"/>
<path d="M0 0 C31.59344924 -1.13409376 66.42099567 8.49435232 91 29 C89.44386584 34.03568881 86.39272655 37.47567876 83.0625 41.4375 C81.87531924 42.87288559 80.68913736 44.30909786 79.50390625 45.74609375 C78.91109863 46.46265137 78.31829102 47.17920898 77.70751953 47.91748047 C75.2560799 50.90729746 72.87449279 53.94896837 70.5 57 C66.01901305 62.74088004 61.4404143 68.39695713 56.8359375 74.0390625 C52.88813664 78.88494128 49.01201102 83.78170143 45.16625977 88.70874023 C41.64624854 93.20663846 38.05143112 97.63985702 34.4375 102.0625 C29.71975013 107.83843676 25.1392972 113.69436432 20.6171875 119.625 C16.00567048 125.619611 11.17531882 131.44290296 6.38769531 137.296875 C4.57683459 139.5193529 2.7856095 141.75720546 1 144 C-3.46877332 142.5542204 -6.54650282 140.07006868 -10 137 C-16.46202571 131.38480666 -23.16794576 126.15479051 -30 121 C-29.46776087 116.44639859 -27.48138047 113.37268332 -24.9375 109.6875 C-2.96795578 76.40190734 2.37126071 39.11174283 0 0 Z " fill="#000000" transform="translate(359,40)"/>
<path d="M0 0 C19.00501514 7.82559447 33.74787949 36.56918167 41.32421875 54.3359375 C49 72.96606622 49 72.96606622 49 80 C47.50726563 80.23783203 47.50726563 80.23783203 45.984375 80.48046875 C4.30662363 87.34331411 -34.37082035 103.96193333 -62 137 C-64.84124191 135.6799177 -67.16223933 134.20153376 -69.57421875 132.20703125 C-70.23808594 131.66199951 -70.90195312 131.11696777 -71.5859375 130.55541992 C-72.27945312 129.98025635 -72.97296875 129.40509277 -73.6875 128.8125 C-75.11790839 127.63731307 -76.54889467 126.46282916 -77.98046875 125.2890625 C-78.66931152 124.72348633 -79.3581543 124.15791016 -80.06787109 123.57519531 C-83.65838798 120.64797583 -87.31888025 117.81196647 -91 115 C-88.46224151 110.40197067 -85.27453272 106.52531989 -81.9375 102.5 C-77.8775931 97.55691691 -73.87462528 92.58981974 -70 87.5 C-65.73792101 81.91163386 -61.33360701 76.45371487 -56.88671875 71.01171875 C-53.37663802 66.71063392 -49.91582925 62.37623814 -46.5 58 C-42.0181114 52.25980746 -37.44043222 46.60306483 -32.8359375 40.9609375 C-29.34469885 36.67548342 -25.90182204 32.35669761 -22.5 28 C-16.88942826 20.81485849 -11.1345332 13.75010603 -5.37158203 6.68701172 C-3.56787415 4.46849597 -1.78142082 2.23643433 0 0 Z " fill="#000000" transform="translate(459,77)"/>
<path d="M0 0 C2.99848496 18.65640519 2.70266881 40.68730534 -2 59 C-2.27408691 60.13622803 -2.27408691 60.13622803 -2.55371094 61.29541016 C-7.31871711 80.61754929 -15.76067909 99.25509582 -28 115 C-32.77461379 111.94218407 -37.13085368 108.54567954 -41.5 104.9375 C-46.62558554 100.7369741 -51.77423687 96.57528154 -57 92.5 C-62.73670281 88.02127416 -68.3898297 83.44654564 -74.02807617 78.84472656 C-78.42041456 75.26613898 -82.84925622 71.73964706 -87.3125 68.25 C-88.99630313 66.92820737 -90.67962241 65.60580114 -92.36279297 64.28320312 C-93.46405514 63.42006057 -94.56728461 62.55942276 -95.67236328 61.70117188 C-97.24669537 60.47611988 -98.81109768 59.238339 -100.375 58 C-101.71691406 56.948125 -101.71691406 56.948125 -103.0859375 55.875 C-103.71757812 55.25625 -104.34921875 54.6375 -105 54 C-105 50.39562874 -104.46775776 50.07555015 -102.02734375 47.59375 C-101.3828125 46.93769775 -100.73828125 46.28164551 -100.07421875 45.60571289 C-99.36910156 44.91082764 -98.66398437 44.21594238 -97.9375 43.5 C-96.85082031 42.42576782 -96.85082031 42.42576782 -95.7421875 41.32983398 C-71.05800324 17.39959057 -34.83183603 0 0 0 Z " fill="#000000" transform="translate(511,168)"/>
<path d="M0 0 C8.1209335 -0.46037038 8.1209335 -0.46037038 11.49609375 1.5859375 C13.33665894 3.38161085 14.84895904 5.24246293 16.3828125 7.3046875 C17.43514513 8.54256996 18.49806515 9.7715145 19.5703125 10.9921875 C20.14136719 11.65605469 20.71242188 12.31992188 21.30078125 13.00390625 C24.39326061 16.42129901 27.68552752 19.6283696 30.96386719 22.86621094 C34.44949819 26.3254523 37.76325895 29.87065515 40.90625 33.6484375 C42.52757441 35.56132889 42.52757441 35.56132889 45.4453125 37.7421875 C47.3828125 40.3046875 47.3828125 40.3046875 47.24136353 42.22361755 C45.91626425 47.56688964 44.30371133 52.69648486 42.34375 57.83984375 C42.05803131 58.60397079 41.77231262 59.36809784 41.47793579 60.15538025 C40.57681807 62.56145922 39.66748417 64.96433131 38.7578125 67.3671875 C38.14007547 69.01216353 37.52288306 70.65734419 36.90625 72.30273438 C35.4047139 76.30577514 33.89580834 80.30596477 32.3828125 84.3046875 C25.3365335 85.18774192 18.28891123 86.0593914 11.24023438 86.9230957 C8.84212245 87.21831536 6.44433122 87.51615224 4.046875 87.81665039 C0.60237123 88.24792621 -2.84317312 88.66980153 -6.2890625 89.08984375 C-7.36210632 89.22624771 -8.43515015 89.36265167 -9.54071045 89.50318909 C-10.54144592 89.62338913 -11.5421814 89.74358917 -12.57324219 89.86743164 C-13.45260437 89.97624161 -14.33196655 90.08505157 -15.23797607 90.19715881 C-18.45495587 90.34255052 -20.7114901 90.05992115 -23.21020508 87.97631836 C-23.72220459 87.41307861 -24.2342041 86.84983887 -24.76171875 86.26953125 C-25.64234985 85.31445679 -25.64234985 85.31445679 -26.54077148 84.34008789 C-27.16411377 83.64778076 -27.78745605 82.95547363 -28.4296875 82.2421875 C-29.770558 80.7809973 -31.11171213 79.32006732 -32.453125 77.859375 C-33.13987305 77.10624023 -33.82662109 76.35310547 -34.53417969 75.57714844 C-37.20465001 72.66379427 -39.91292548 69.78746143 -42.62573242 66.91357422 C-44.51430829 64.91002493 -46.39308752 62.89772154 -48.26953125 60.8828125 C-50.28167416 58.72277623 -52.31117633 56.59199543 -54.37109375 54.4765625 C-55.11230469 53.69796875 -55.85351562 52.919375 -56.6171875 52.1171875 C-57.2359375 51.48425781 -57.8546875 50.85132813 -58.4921875 50.19921875 C-59.6171875 48.3046875 -59.6171875 48.3046875 -59.39868164 46.26367188 C-58.29531484 42.08597564 -56.77328431 38.10250576 -55.23828125 34.06640625 C-54.90675552 33.18563919 -54.5752298 32.30487213 -54.23365784 31.39741516 C-53.1776047 28.59429772 -52.11622455 25.79323218 -51.0546875 22.9921875 C-50.33623588 21.08802365 -49.6181329 19.18372821 -48.90039062 17.27929688 C-47.14335969 12.61955916 -45.3815496 7.96165402 -43.6171875 3.3046875 C-29.08774525 2.05447121 -14.52511167 1.22349753 0 0 Z " fill="#000000" transform="translate(174.6171875,101.6953125)"/>
<path d="M0 0 C4.40461263 18.6403561 1.90740101 42.74617025 -3 61 C-3.34611328 62.29454102 -3.34611328 62.29454102 -3.69921875 63.61523438 C-8.57291343 81.1115404 -16.7095534 97.07851636 -27 112 C-31.24376535 111.1321124 -33.95037004 108.93631757 -37.25 106.25 C-38.16591919 105.51789307 -38.16591919 105.51789307 -39.1003418 104.77099609 C-44.37347646 100.54473867 -49.59614714 96.25521513 -54.82739258 91.97729492 C-59.62391933 88.07175674 -64.50522731 84.29458634 -69.4375 80.5625 C-76.14086442 75.49012261 -82.66918439 70.2374315 -89.11694336 64.84399414 C-93.63564847 61.07385795 -98.25906715 57.48665119 -103 54 C-97.64258831 37.87077117 -73.00650116 24.15616339 -58.5625 16.65234375 C-41.01512742 7.85767433 -19.9034169 0 0 0 Z " fill="#000000" transform="translate(348,40)"/>
<path d="M0 0 C0.4962164 10.66865268 -0.23668396 20.70804084 -2 31.25 C-5.54445766 51.4669339 -5.54445766 51.4669339 1.47265625 70.1796875 C8.51464386 79.00298167 18.9414824 84.07024644 30 85.6875 C44.98116778 87.10304341 58.86741269 84.68701722 70.9375 75.125 C76.41462196 70.02192539 80.67946414 63.09323906 81.1550293 55.53662109 C81.2774206 47.53723351 80.10014834 40.19217138 78.5 32.375 C76.38197892 21.4208711 75.33746282 11.13062461 76 0 C87.96294939 5.53154076 96.19708342 18.11141181 101 30 C106.88303011 47.79678147 106.71640819 66.27690745 98.375 83.25 C89.83220339 99.73359736 76.92197753 111.29603697 59.27734375 117.2578125 C40.77468201 122.72880647 21.78302167 120.90454017 4.7421875 111.69140625 C-10.95691146 102.00805889 -22.2266512 87.49357476 -26.52734375 69.46484375 C-29.92608883 51.74080949 -27.88838602 33.61126091 -18.1796875 18.08984375 C-5.48942572 0 -5.48942572 0 0 0 Z " fill="#000000" transform="translate(390,352)"/>
<path d="M0 0 C5.25266973 1.56658571 8.84563749 4.95450441 12.9375 8.4375 C14.46506768 9.71743368 15.99372791 10.99606448 17.5234375 12.2734375 C18.65990723 13.22428223 18.65990723 13.22428223 19.81933594 14.19433594 C22.85583556 16.70866097 25.94993492 19.14342201 29.0625 21.5625 C34.11650728 25.4982481 39.10256695 29.50887877 44.0625 33.5625 C50.41133384 38.7445704 56.84403893 43.79240438 63.36621094 48.75439453 C66.35636669 51.03409786 69.33341776 53.33085798 72.3125 55.625 C73.41270839 56.4714218 74.51296372 57.31778259 75.61328125 58.1640625 C76.40089844 58.76992188 77.18851562 59.37578125 78 60 C76.54539128 69.63127291 64.25284682 77.53880754 57 83 C53.74539131 85.38346075 50.44946206 87.69279186 47.08984375 89.92578125 C45.25199953 91.15953002 43.43963278 92.43520906 41.69140625 93.79296875 C35.2934398 98.41182154 28.76255433 98.94661826 21.12573242 99.8112793 C13.53259311 100.73249831 6.98092984 102.84259607 -0.04296875 105.79296875 C-3 107 -3 107 -5 107 C-5.40089844 105.99582031 -5.80179687 104.99164063 -6.21484375 103.95703125 C-10.80779689 92.78427797 -16.21600374 83.00299484 -24.5625 74.125 C-27.58118046 70.25489685 -27.31760072 68.81363584 -27 64 C-23.17620327 41.2947225 -13.6920304 18.53433383 0 0 Z " fill="#000000" transform="translate(397,230)"/>
<path d="M0 0 C11.25904942 3.37771483 11.25904942 3.37771483 15.140625 5.33984375 C15.98367188 5.76330078 16.82671875 6.18675781 17.6953125 6.62304688 C18.53835938 7.05681641 19.38140625 7.49058594 20.25 7.9375 C21.53777344 8.58235352 21.53777344 8.58235352 22.8515625 9.24023438 C25.25874838 10.46049245 27.64674068 11.67842321 30 13 C31.5368898 13.60229179 31.5368898 13.60229179 33.10482788 14.2167511 C35.53113475 15.87505704 35.95399648 16.77208682 36.54423523 19.69628048 C36.74284317 23.42380852 36.74218237 27.12662556 36.68115234 30.85644531 C36.67945963 32.29543995 36.68041043 33.73443977 36.68380737 35.1734314 C36.68552962 39.07848256 36.65024431 42.98242897 36.60836363 46.88722324 C36.57086688 50.96843941 36.56733214 55.04968064 36.56021118 59.13104248 C36.54155909 66.85891774 36.49231759 74.58628398 36.43211424 82.31393504 C36.36506005 91.11185371 36.33206292 99.90979663 36.30194163 108.7079072 C36.23921852 126.8055601 36.13367684 144.90273913 36 163 C32.00400925 165.11184511 28.00252567 167.21307042 24 169.3125 C22.31197266 170.20485352 22.31197266 170.20485352 20.58984375 171.11523438 C5.52509602 179 5.52509602 179 0 179 C0 119.93 0 60.86 0 0 Z " fill="#000000" transform="translate(290,261)"/>
<path d="M0 0 C1.67578125 1.34765625 1.67578125 1.34765625 3.3125 3.0625 C3.91707031 3.69285156 4.52164063 4.32320312 5.14453125 4.97265625 C7.56381714 7.61604441 9.91123612 10.31661336 12.25 13.03125 C13.93798286 14.93023071 15.68769734 16.72005988 17.5 18.5 C20.56527832 21.51066311 23.36922928 24.68185606 26.15234375 27.953125 C28.77339363 30.85678279 31.66766549 33.44989013 34.59375 36.04296875 C36 38 36 38 35.77709961 40.26000977 C34.88249958 43.41429695 33.57800714 45.937062 31.97265625 48.796875 C31.03812622 50.47160889 31.03812622 50.47160889 30.0847168 52.18017578 C29.41102551 53.37033292 28.73694615 54.56027047 28.0625 55.75 C27.37963044 56.96449339 26.6970962 58.17917538 26.01489258 59.39404297 C24.02167093 62.93610751 22.01263785 66.46893074 20 70 C19.45375977 70.9600293 18.90751953 71.92005859 18.34472656 72.90917969 C16.96789729 75.31975651 15.58151489 77.72432941 14.1875 80.125 C13.7860376 80.82206055 13.3845752 81.51912109 12.97094727 82.23730469 C10.23828446 86.88085777 10.23828446 86.88085777 8 88 C6.31553499 87.83751476 4.63899004 87.59005286 2.97119141 87.30322266 C1.92315338 87.12618805 0.87511536 86.94915344 -0.2046814 86.76675415 C-1.34112091 86.56786591 -2.47756042 86.36897766 -3.6484375 86.1640625 C-4.81251129 85.96525482 -5.97658508 85.76644714 -7.17593384 85.56161499 C-10.91002544 84.92213629 -14.64246051 84.27346998 -18.375 83.625 C-20.88532062 83.19475175 -23.39573621 82.76505716 -25.90625 82.3359375 C-28.29956467 81.92497682 -30.69279668 81.51353436 -33.0859375 81.1015625 C-34.21832855 80.90672272 -35.3507196 80.71188293 -36.51742554 80.51113892 C-37.57176788 80.32779999 -38.62611023 80.14446106 -39.71240234 79.95556641 C-40.63902679 79.79488678 -41.56565125 79.63420715 -42.52035522 79.46865845 C-44.70774687 79.0552365 -46.84815779 78.56747085 -49 78 C-50.71729162 69.44936695 -51.84768953 60.84936839 -52.85986328 52.19311523 C-53.12504474 49.93711935 -53.40015022 47.68247449 -53.67578125 45.42773438 C-53.84956213 43.96100891 -54.02275898 42.49421411 -54.1953125 41.02734375 C-54.35016113 39.72531006 -54.50500977 38.42327637 -54.66455078 37.08178711 C-55.13239819 32.39234208 -55.06989716 27.70750212 -55 23 C-49.50537893 20.3844453 -44.01015774 17.77015696 -38.5144043 15.15698242 C-36.64933457 14.26995081 -34.78442224 13.38258815 -32.91967773 12.49487305 C-27.69159109 10.00617496 -22.45921589 7.52690071 -17.22259521 5.05621338 C-15.27246462 4.12947962 -13.33123306 3.18725023 -11.39306641 2.23583984 C-10.4241748 1.77000488 -9.4552832 1.30416992 -8.45703125 0.82421875 C-7.27524292 0.24353638 -7.27524292 0.24353638 -6.06958008 -0.34887695 C-3.6058703 -1.12399952 -2.38990747 -0.91378815 0 0 Z " fill="#000000" transform="translate(109,159)"/>
<path d="M0 0 C1.2526062 0.67458252 1.2526062 0.67458252 2.53051758 1.36279297 C8.34698299 4.515855 14.0943936 7.77547128 19.6875 11.3125 C19.03681982 16.49995266 17.4740069 21.03248451 15.6328125 25.88671875 C15.33059784 26.69236771 15.02838318 27.49801666 14.7170105 28.32807922 C14.07929709 30.02259921 13.43870881 31.71603975 12.79541016 33.40844727 C11.81309838 35.9984223 10.8455689 38.59360307 9.87890625 41.18945312 C9.25609708 42.83887752 8.63242853 44.48797774 8.0078125 46.13671875 C7.7202005 46.9117424 7.4325885 47.68676605 7.13626099 48.48527527 C4.44297383 55.50145046 1.47214199 57.6500102 -5.15625 60.7890625 C-5.83374802 61.11611679 -6.51124603 61.44317108 -7.20927429 61.78013611 C-9.40726494 62.83915842 -11.60952751 63.88888474 -13.8125 64.9375 C-15.31956811 65.65845766 -16.82648517 66.37973114 -18.33325195 67.10131836 C-20.57726472 68.17553571 -22.82163686 69.24895195 -25.06745911 70.31938171 C-29.23592272 72.30794583 -33.38355623 74.33091701 -37.51171875 76.40234375 C-38.80722656 77.04405518 -38.80722656 77.04405518 -40.12890625 77.69873047 C-41.65956572 78.45807121 -43.18480598 79.22848252 -44.703125 80.01220703 C-49.14303214 82.18404022 -51.55881903 82.46993051 -56.3125 81.3125 C-58.74800184 80.296041 -61.07115935 79.24904256 -63.42578125 78.07421875 C-64.08080124 77.75217972 -64.73582123 77.43014069 -65.41069031 77.0983429 C-66.78504051 76.41906117 -68.157318 75.7355712 -69.52758789 75.0480957 C-71.62860998 73.99819606 -73.74030431 72.97236558 -75.85351562 71.94726562 C-77.19081695 71.28268237 -78.52743124 70.61671445 -79.86328125 69.94921875 C-80.49551102 69.64489426 -81.12774078 69.34056976 -81.77912903 69.02702332 C-86.05323416 66.84444088 -86.05323416 66.84444088 -87.29907227 64.28833008 C-87.32213649 60.89453471 -85.55162598 58.19787369 -83.9375 55.3125 C-83.57245361 54.64822998 -83.20740723 53.98395996 -82.83129883 53.29956055 C-76.49524706 42.04939588 -68.15518357 32.61772394 -59.3125 23.3125 C-58.74273437 22.67828125 -58.17296875 22.0440625 -57.5859375 21.390625 C-47.62235304 10.66061097 -34.21715841 2.93961013 -21.3125 -3.6875 C-20.47976562 -4.11933594 -19.64703125 -4.55117187 -18.7890625 -4.99609375 C-11.79206023 -6.94951552 -5.94287358 -3.27240559 0 0 Z " fill="#000000" transform="translate(100.3125,90.6875)"/>
<path d="M0 0 C0 5.30479934 -1.5362057 6.18982627 -5 10 C-5.763125 9.690625 -6.52625 9.38125 -7.3125 9.0625 C-9.18789677 8.32106407 -11.08684652 7.63771783 -13 7 C-13.28875 7.763125 -13.5775 8.52625 -13.875 9.3125 C-15 12 -15 12 -17 15 C-14.525 16.98 -14.525 16.98 -12 19 C-13.63958758 24.23272633 -15.38952035 29.15196636 -18 34 C-20.31 33.67 -22.62 33.34 -25 33 C-25.66 36.63 -26.32 40.26 -27 44 C-24.03 44.495 -24.03 44.495 -21 45 C-21 50.61 -21 56.22 -21 62 C-23.97 62.495 -23.97 62.495 -27 63 C-26.34 66.63 -25.68 70.26 -25 74 C-22.03 73.505 -22.03 73.505 -19 73 C-17.02 78.94 -15.04 84.88 -13 91 C-14.32 92.32 -15.64 93.64 -17 95 C-14.525 98.465 -14.525 98.465 -12 102 C-9.03 101.505 -9.03 101.505 -6 101 C-4.82750647 102.45365269 -3.66216184 103.91307419 -2.5 105.375 C-1.8503125 106.18710937 -1.200625 106.99921875 -0.53125 107.8359375 C1 110 1 110 1 112 C-1.0978062 113.11780914 -3.20214561 114.21881269 -5.3125 115.3125 C-5.88806641 115.62123047 -6.46363281 115.92996094 -7.05664062 116.24804688 C-16.17711544 120.93153394 -25.25114568 122.52496315 -35.4375 122.375 C-36.95234985 122.3586853 -36.95234985 122.3586853 -38.49780273 122.34204102 C-51.71978183 122.05931492 -61.55006833 118.18228559 -73 112 C-71.6512925 109.04196519 -70.10431451 106.79203633 -67.9375 104.375 C-66.33621517 102.5818742 -65.07671842 101.15343684 -64 99 C-62.8553125 99.4640625 -62.8553125 99.4640625 -61.6875 99.9375 C-59.81210323 100.67893593 -57.91315348 101.36228217 -56 102 C-54.35 99.69 -52.7 97.38 -51 95 C-52.98 93.35 -54.96 91.7 -57 90 C-55.75738593 83.81616764 -54.07970959 77.955532 -52 72 C-47.545 72.99 -47.545 72.99 -43 74 C-42.855625 72.55625 -42.71125 71.1125 -42.5625 69.625 C-42.125 65.25 -42.125 65.25 -41 63 C-42.299375 62.855625 -43.59875 62.71125 -44.9375 62.5625 C-48.875 62.125 -48.875 62.125 -50 61 C-50.23653523 58.47403741 -50.42173692 55.96892793 -50.5625 53.4375 C-50.60568359 52.72658203 -50.64886719 52.01566406 -50.69335938 51.28320312 C-50.79971777 49.52238088 -50.90038846 47.7612168 -51 46 C-47.7 45.34 -44.4 44.68 -41 44 C-41.33 43.113125 -41.66 42.22625 -42 41.3125 C-43 38 -43 38 -43 33 C-46.3 33.66 -49.6 34.32 -53 35 C-53.84266711 33.25447527 -54.67380038 31.5033792 -55.5 29.75 C-55.9640625 28.77546875 -56.428125 27.8009375 -56.90625 26.796875 C-58 24 -58 24 -58 20 C-55.88016279 17.94505576 -53.49939142 16.60675163 -51 15 C-52.98 12.36 -54.96 9.72 -57 7 C-58.98 8.32 -60.96 9.64 -63 11 C-66.45195767 9.5741914 -68.1014256 7.90253666 -70.25 4.875 C-71.03117187 3.78832031 -71.03117187 3.78832031 -71.828125 2.6796875 C-72.21484375 2.12539063 -72.6015625 1.57109375 -73 1 C-49.84095035 -12.67660413 -23.20237548 -14.74727255 0 0 Z " fill="#000000" transform="translate(105,340)"/>
<path d="M0 0 C1.00885254 -0.00056396 2.01770508 -0.00112793 3.05712891 -0.00170898 C21.77223636 0.27223636 21.77223636 0.27223636 26.875 5.375 C26.87072625 7.31741827 26.85876055 9.26009811 26.80981445 11.2019043 C26.43518467 26.76968336 29.20209613 41.70020116 32.32421875 56.89453125 C33.54377858 64.60111146 33.08573006 70.84054789 28.5390625 77.26171875 C22.46455338 84.09183754 14.80717282 87.22632714 5.78125 87.8203125 C-5.89735124 88.22808053 -15.15461428 87.59308305 -24.5 80.0625 C-28.62943929 76.10024448 -31.8444146 72.69968422 -32.34179688 66.80615234 C-32.34677629 59.39304207 -31.45703359 52.46635358 -30.125 45.1875 C-27.91109776 32.19459003 -27.68166831 19.52148978 -28.125 6.375 C-18.54869473 1.8085211 -10.62574753 -0.01494108 0 0 Z " fill="#000000" transform="translate(428.125,339.625)"/>
<path d="M0 0 C6.3146177 1.95655855 12.02662017 4.89176719 17.87841797 7.91259766 C19.75308527 8.8765865 21.63595786 9.82308831 23.51953125 10.76953125 C24.71668869 11.3843608 25.91332255 12.00021112 27.109375 12.6171875 C28.19186523 13.17003418 29.27435547 13.72288086 30.38964844 14.29248047 C33.2262058 16.14796889 33.77291179 16.94175274 35 20 C35.47502136 22.38352966 35.47502136 22.38352966 35.79370117 25.05639648 C35.91690231 26.06101425 36.04010345 27.06563202 36.16703796 28.10069275 C36.3531237 29.71954124 36.3531237 29.71954124 36.54296875 31.37109375 C36.6756868 32.48557388 36.80840485 33.60005402 36.94514465 34.74830627 C37.22358106 37.103984 37.49820123 39.46011547 37.76928711 41.81665039 C38.18565609 45.42153558 38.61835626 49.02419886 39.05273438 52.62695312 C39.32129955 54.9165511 39.58890964 57.20626136 39.85546875 59.49609375 C39.9855986 60.57330185 40.11572845 61.65050995 40.24980164 62.76036072 C40.3635463 63.76813065 40.47729095 64.77590057 40.59448242 65.81420898 C40.74864876 67.13847145 40.74864876 67.13847145 40.90592957 68.48948669 C41.1020418 73.72324992 39.39782448 77.56545272 37.05859375 82.17578125 C36.47529297 83.33271484 35.89199219 84.48964844 35.29101562 85.68164062 C34.67330794 86.89199387 34.05546773 88.1022795 33.4375 89.3125 C32.81520144 90.54203759 32.19345082 91.77185267 31.57226562 93.00195312 C30.05354488 96.00407552 28.5292898 99.00325153 27 102 C20.89398553 100.96729376 15.52076861 98.46543032 9.875 96 C8.77800781 95.55527344 7.68101563 95.11054688 6.55078125 94.65234375 C-1.07319861 91.29405078 -1.07319861 91.29405078 -3.30371094 88.1796875 C-4.1781294 85.78726039 -4.59584355 83.51700271 -5 81 C-5.26578857 79.82920898 -5.53157715 78.65841797 -5.80541992 77.45214844 C-7.96707952 67.70543507 -8.52149639 58.20759574 -8.4375 48.25 C-8.43545563 47.51386475 -8.43341125 46.77772949 -8.43130493 46.01928711 C-8.37711132 33.99058295 -7.26666286 22.60778266 -4 11 C-3.70351562 9.88238281 -3.40703125 8.76476562 -3.1015625 7.61328125 C-1.33191748 1.33191748 -1.33191748 1.33191748 0 0 Z " fill="#000000" transform="translate(8,166)"/>
<path d="M0 0 C4.89842179 0.60963202 9.17549026 2.08988632 13.69921875 3.984375 C14.77451591 4.43058197 14.77451591 4.43058197 15.87153625 4.88580322 C17.37815739 5.51441138 18.88328154 6.14661831 20.38696289 6.78222656 C22.68450541 7.74874026 24.99108706 8.69095754 27.29882812 9.6328125 C28.76624189 10.24853186 30.23306062 10.86567167 31.69921875 11.484375 C32.38674728 11.76166443 33.07427582 12.03895386 33.78263855 12.324646 C38.03349778 14.15924949 40.13800016 15.74129489 42 20 C42.78369141 22.3684082 42.78369141 22.3684082 43.3515625 24.80078125 C43.56296875 25.69603516 43.774375 26.59128906 43.9921875 27.51367188 C44.20101562 28.43728516 44.40984375 29.36089844 44.625 30.3125 C44.8415625 31.22451172 45.058125 32.13652344 45.28125 33.07617188 C47.43815894 42.36286314 48.14381567 50.96730095 48.0625 60.5 C48.05798828 61.51320312 48.05347656 62.52640625 48.04882812 63.5703125 C48.03714593 66.04693827 48.02076582 68.52343657 48 71 C41.71792105 74.23396964 35.33284011 77.0931372 28.8125 79.8125 C27.35553711 80.44188477 27.35553711 80.44188477 25.86914062 81.08398438 C24.92876953 81.47521484 23.98839844 81.86644531 23.01953125 82.26953125 C21.75266479 82.80477417 21.75266479 82.80477417 20.46020508 83.35083008 C17.47669021 84.13808482 15.89390594 84.07582228 13 83 C11.22998047 81.04492188 11.22998047 81.04492188 9.6171875 78.46875 C9.01213379 77.5204834 8.40708008 76.5722168 7.78369141 75.59521484 C7.15382324 74.57379395 6.52395508 73.55237305 5.875 72.5 C4.54703224 70.39833814 3.21890581 68.29677653 1.890625 66.1953125 C1.23642578 65.14891602 0.58222656 64.10251953 -0.09179688 63.02441406 C-1.82327095 60.28010741 -3.59176149 57.56762682 -5.390625 54.8671875 C-5.89835449 54.10212891 -6.40608398 53.33707031 -6.92919922 52.54882812 C-7.86906869 51.13569105 -8.81318083 49.72536338 -9.76220703 48.31835938 C-12.04622723 44.84148465 -13.71948494 42.16401857 -14 38 C-13.266612 34.96864355 -12.15865395 32.10505932 -11.03515625 29.19921875 C-10.72299667 28.36284378 -10.4108371 27.52646881 -10.08921814 26.66474915 C-9.09199715 24.00109994 -8.07754702 21.34440059 -7.0625 18.6875 C-6.3823164 16.87998856 -5.70326644 15.07205008 -5.02539062 13.26367188 C-3.36336191 8.83738989 -1.68585379 4.41725961 0 0 Z " fill="#000000" transform="translate(231,150)"/>
<path d="M0 0 C4.20511097 0.80097352 4.55272926 1.48961704 6.9453125 4.87109375 C8.15757194 6.79329892 9.35030786 8.7279017 10.52734375 10.671875 C11.89457931 12.76424492 13.26579894 14.85401595 14.640625 16.94140625 C16.04260561 19.12095594 17.44232296 21.30196301 18.83984375 23.484375 C19.91202148 25.14243164 19.91202148 25.14243164 21.00585938 26.83398438 C21.68970703 27.90068359 22.37355469 28.96738281 23.078125 30.06640625 C23.69341064 31.02393799 24.30869629 31.98146973 24.94262695 32.96801758 C26.41906191 35.48712359 27.52812257 37.9335798 28.52734375 40.671875 C27.80482422 40.65616455 27.08230469 40.6404541 26.33789062 40.62426758 C-7.47113485 39.99154971 -39.77156133 44.45504326 -71.08178711 57.7824707 C-73.47265625 58.671875 -73.47265625 58.671875 -76.47265625 58.671875 C-75.9438021 54.35623669 -74.98192002 51.32193062 -72.734375 47.609375 C-72.16912109 46.65772461 -71.60386719 45.70607422 -71.02148438 44.72558594 C-69.75512352 42.64798342 -68.48410822 40.57321236 -67.20898438 38.50097656 C-64.00032713 33.21827628 -61.13365818 28.12815561 -58.9296875 22.34375 C-54.29720135 10.76394039 -54.29720135 10.76394039 -49.47265625 6.671875 C-41.08278314 3.26461155 -31.89542902 3.07945249 -22.95068359 2.8046875 C-18.58662304 2.6380408 -14.34656144 2.0810656 -10.03515625 1.421875 C-5.00213399 0.81175184 -5.00213399 0.81175184 0 0 Z " fill="#000000" transform="translate(204.47265625,196.328125)"/>
<path d="M0 0 C4.61212674 1.84485069 7.59705039 3.87876641 11.25 7.0625 C11.82282715 7.55782227 12.3956543 8.05314453 12.98583984 8.56347656 C14.66785089 10.03081299 16.33660458 11.51161732 18 13 C18.81210937 13.72574219 19.62421875 14.45148438 20.4609375 15.19921875 C30.33171107 24.55329117 38.92713841 36.36464363 44 49 C44.31839844 49.71542969 44.63679688 50.43085938 44.96484375 51.16796875 C45.5625 53.125 45.5625 53.125 45 57 C42.52996652 59.66394265 39.84934342 61.91715529 37.05859375 64.2421875 C24.16803185 75.34876973 18.14218797 92.77111709 15 109 C14.90959333 110.66538604 14.84125156 112.33240971 14.8125 114 C14.51046184 118.03492007 12.67312313 119.73589856 9.75 122.4375 C6.43769298 125.18849325 4.14038901 126.3438444 0 128 C0 85.76 0 43.52 0 0 Z " fill="#000000" transform="translate(337,287)"/>
<path d="M0 0 C5.10379295 3.77680678 10.13060632 7.64285762 15.125 11.5625 C15.71039551 12.02116455 16.29579102 12.4798291 16.89892578 12.95239258 C20.6536592 15.90616555 24.34272656 18.92633403 28 22 C26.52901117 26.17421961 24.42872367 29.47823519 21.9375 33.125 C10.71155368 50.15747028 3.9428831 69.31518485 -1 89 C-4.65308547 87.39367873 -7.46402218 85.1215571 -10.5625 82.625 C-21.92185146 73.67309337 -34.53748942 66.30450492 -47 59 C-38.92340128 48.0856774 -30.43832025 37.49856807 -21.85302734 26.98266602 C-17.73718623 21.93263324 -13.7047104 16.82228624 -9.69604492 11.68701172 C-6.56848193 7.69201354 -3.35341663 3.80658103 0 0 Z " fill="#000000" transform="translate(361,200)"/>
<path d="M0 0 C3.16405861 0.59607676 5.01416808 1.55972747 7.46875 3.625 C8.44134766 4.43191284 8.44134766 4.43191284 9.43359375 5.25512695 C10.45646484 6.11883911 10.45646484 6.11883911 11.5 7 C12.92557877 8.18280532 14.35267764 9.36378079 15.78125 10.54296875 C16.48894531 11.12739746 17.19664062 11.71182617 17.92578125 12.31396484 C22.49885576 16.03120267 27.24758816 19.51669814 32 23 C30.43341429 28.25266973 27.04549559 31.84563749 23.5625 35.9375 C22.28256632 37.46506768 21.00393552 38.99372791 19.7265625 40.5234375 C19.09266602 41.28108398 18.45876953 42.03873047 17.80566406 42.81933594 C15.29133612 45.85583907 12.85667311 48.95000525 10.4375 52.0625 C5.39314513 58.53646324 0.22459311 64.90448786 -4.9609375 71.265625 C-8.67181716 75.818937 -12.34271053 80.40352744 -16 85 C-17.52242851 84.56808366 -19.04285919 84.12912438 -20.5625 83.6875 C-21.40941406 83.44386719 -22.25632812 83.20023437 -23.12890625 82.94921875 C-26.52557337 81.82623901 -29.72736881 80.44416481 -33 79 C-32.86722656 78.10023438 -32.73445313 77.20046875 -32.59765625 76.2734375 C-31.48169614 68.14403466 -30.74864641 60.07336624 -30.375 51.875 C-30.30321533 50.46480591 -30.30321533 50.46480591 -30.22998047 49.02612305 C-30.04656149 44.90782746 -29.93510938 40.90501416 -30.36328125 36.80078125 C-30.68214951 33.24712899 -30.85160854 30.46726333 -30 27 C-26.99397698 23.70187227 -23.54127332 21.54579909 -19.77148438 19.19970703 C-16.59523823 17.04864949 -13.85228029 14.43404625 -11.0625 11.8125 C-10.53180908 11.32507324 -10.00111816 10.83764648 -9.4543457 10.33544922 C-5.99387189 7.10640314 -2.96660081 3.68776344 0 0 Z " fill="#000000" transform="translate(320,169)"/>
<path d="M0 0 C4.30120268 1.91164564 6.199135 4.26551333 9 8 C9 8.66 9 9.32 9 10 C8.01 10.99 7.02 11.98 6 13 C7.65 15.31 9.3 17.62 11 20 C12.65 19.67 14.3 19.34 16 19 C16.99 22.3 17.98 25.6 19 29 C17.35 29.33 15.7 29.66 14 30 C14.495 31.36125 14.495 31.36125 15 32.75 C16 36 16 36 16 40 C17.65 40 19.3 40 21 40 C21.495 44.455 21.495 44.455 22 49 C20.02 49 18.04 49 16 49 C15.505 53.95 15.505 53.95 15 59 C16.65 59.66 18.3 60.32 20 61 C19.74379316 62.6065676 19.46944129 64.2102483 19.1875 65.8125 C19.03667969 66.70582031 18.88585938 67.59914063 18.73046875 68.51953125 C17.94604607 71.18321256 17.11372201 72.25690322 15 74 C13.68 73.34 12.36 72.68 11 72 C9.35 74.97 7.7 77.94 6 81 C7.32 81.66 8.64 82.32 10 83 C9.41463247 86.66060821 7.916761 88.54535164 5.4375 91.25 C4.79683594 91.95640625 4.15617187 92.6628125 3.49609375 93.390625 C3.00238281 93.92171875 2.50867188 94.4528125 2 95 C-9.70538806 86.16123759 -16.30821956 72.03505108 -18.71875 57.7109375 C-20.7953555 37.69476777 -16.00725017 19.72847801 -3.5 4 C-2.34845845 2.65358218 -1.18798908 1.31437089 0 0 Z " fill="#000000" transform="translate(22,349)"/>
<path d="M0 0 C7.43207534 2.71329735 12.48846579 13.52987765 15.875 20.375 C23.22769694 37.85355639 22.5349431 56.71714165 15.8125 74.25 C12.14674692 82.44533921 7.20769376 89.59422968 0 95 C-2.64 92.03 -5.28 89.06 -8 86 C-6.37660195 84.29115995 -4.70680947 82.62553283 -3 81 C-2.34 81 -1.68 81 -1 81 C-1.61875 79.88625 -2.2375 78.7725 -2.875 77.625 C-3.22304687 76.99851562 -3.57109375 76.37203125 -3.9296875 75.7265625 C-5.00897274 73.8387386 -5.00897274 73.8387386 -7 72 C-8.1446875 72.7734375 -8.1446875 72.7734375 -9.3125 73.5625 C-10.199375 74.036875 -11.08625 74.51125 -12 75 C-12.99 74.67 -13.98 74.34 -15 74 C-15.94921875 72.07421875 -15.94921875 72.07421875 -16.6875 69.6875 C-16.93886719 68.90761719 -17.19023438 68.12773437 -17.44921875 67.32421875 C-18 65 -18 65 -18 61 C-15.36 60.67 -12.72 60.34 -10 60 C-10.99 54.555 -10.99 54.555 -12 49 C-14.64 49.33 -17.28 49.66 -20 50 C-20 46.37 -20 42.74 -20 39 C-17.69 39.33 -15.38 39.66 -13 40 C-11.68373308 36.38026598 -11 33.90432869 -11 30 C-12.98 29.34 -14.96 28.68 -17 28 C-15.02 22.555 -15.02 22.555 -13 17 C-10.69 17.99 -8.38 18.98 -6 20 C-2.86293483 15.90052696 -2.86293483 15.90052696 -2 11 C-3.94009522 9.29467677 -3.94009522 9.29467677 -6 8 C-4.55746343 4.63408134 -2.66735273 2.48952921 0 0 Z " fill="#000000" transform="translate(115,349)"/>
<path d="M0 0 C7.85354561 0.55099858 15.5543856 1.44670357 23.3125 2.77734375 C24.32924805 2.94875381 25.34599609 3.12016388 26.39355469 3.29676819 C28.51817019 3.65650069 30.64235558 4.01878233 32.76611328 4.38354492 C36.01847213 4.94066422 39.27275095 5.48539805 42.52734375 6.02929688 C44.60168858 6.38207191 46.67591201 6.73556178 48.75 7.08984375 C49.71977783 7.25137436 50.68955566 7.41290497 51.6887207 7.57933044 C52.59066162 7.73611771 53.49260254 7.89290497 54.421875 8.05444336 C55.21174805 8.18910507 56.00162109 8.32376678 56.81542969 8.46250916 C59.09682884 9.02382373 60.94600544 9.87236942 63 11 C63 11.66 63 12.32 63 13 C62.04222656 13.51046875 61.08445312 14.0209375 60.09765625 14.546875 C46.06205344 22.15714028 32.87131401 30.78536878 21.296875 41.84375 C19 44 19 44 16.4140625 46.05078125 C9.93359666 51.2833904 5.01810613 58.41087584 0 65 C-2.67460023 62.32539977 -3.45952258 59.27085885 -4.63671875 55.76171875 C-4.88041702 55.04393753 -5.1241153 54.32615631 -5.37519836 53.58662415 C-5.88847781 52.06703692 -6.39850215 50.5463469 -6.90551758 49.0246582 C-7.68246223 46.70255668 -8.47834032 44.38753046 -9.27539062 42.07226562 C-9.77201055 40.594145 -10.26749088 39.11564091 -10.76171875 37.63671875 C-11.0012175 36.94696457 -11.24071625 36.25721039 -11.48747253 35.54655457 C-13.68434766 28.82950372 -12.28196085 25.2103407 -9.27734375 19.04296875 C-8.73916016 17.93115234 -8.20097656 16.81933594 -7.64648438 15.67382812 C-6.80053711 13.9480957 -6.80053711 13.9480957 -5.9375 12.1875 C-5.36966797 11.01767578 -4.80183594 9.84785156 -4.21679688 8.64257812 C-2.81629238 5.75918652 -1.40956281 2.87896895 0 0 Z " fill="#000000" transform="translate(56,248)"/>
<path d="M0 0 C0 27.39 0 54.78 0 83 C-5 78 -5 78 -6.66796875 76.2265625 C-13.12395607 69.42205144 -20.58753757 64.67203323 -28.8359375 60.28125 C-29.99399902 59.66314453 -31.15206055 59.04503906 -32.34521484 58.40820312 C-33.22129395 57.94349609 -34.09737305 57.47878906 -35 57 C-37.67397608 24.15486217 -37.67397608 24.15486217 -33.57324219 16.24951172 C-29.89196049 12.34735311 -25.3877348 10.51407478 -20.36572266 8.84619141 C-16.5268657 7.47307704 -13.14138002 5.34975042 -9.625 3.3125 C-3.57761621 0 -3.57761621 0 0 0 Z " fill="#000000" transform="translate(132,267)"/>
<path d="M0 0 C4.83420504 1.40874073 8.97311877 3.51847452 13.25 6.125 C13.90895264 6.52460937 14.56790527 6.92421875 15.24682617 7.3359375 C20.86890108 10.80708303 26.0098305 14.66510528 31 19 C31.80695313 19.68578125 32.61390625 20.3715625 33.4453125 21.078125 C46.09236936 32.09969806 60.5215075 46.69419095 66 63 C46.76033454 60.3132352 30.43165845 49.72387403 18.53076172 34.86621094 C16.49392185 32.38302052 14.25074655 30.16221964 11.9375 27.9375 C8.66067334 24.71051101 5.61694997 21.35217865 2.64453125 17.84375 C1.02521085 16.02826489 -0.69436087 14.43965067 -2.5 12.8125 C-5 10 -5 10 -5.125 7.4375 C-3.7936448 4.55289707 -2.10119563 2.37231764 0 0 Z " fill="#000000" transform="translate(198,87)"/>
<path d="M0 0 C-0.58990713 3.98187311 -2.06293131 6.26334241 -5 9 C-8.44277331 9.89558747 -11.88165963 10.00134082 -15.42578125 10.14453125 C-16.44673386 10.20404465 -17.46768646 10.26355804 -18.51957703 10.32487488 C-21.78311308 10.50961333 -25.04725905 10.66122678 -28.3125 10.8125 C-30.49946628 10.93211869 -32.68631865 11.05383996 -34.87304688 11.17773438 C-40.58090698 11.49155224 -46.28780661 11.7786456 -52 12 C-53.87812378 12.10066772 -53.87812378 12.10066772 -55.79418945 12.20336914 C-59.53715174 11.96592435 -61.81248931 10.97673236 -65.1171875 9.2265625 C-66.21804687 8.6490625 -67.31890625 8.0715625 -68.453125 7.4765625 C-69.58234375 6.86554688 -70.7115625 6.25453125 -71.875 5.625 C-73.02742188 5.02171875 -74.17984375 4.4184375 -75.3671875 3.796875 C-83.85314256 -0.70628511 -83.85314256 -0.70628511 -85 -3 C-57.23905783 -11.65725847 -27.18866481 -9.60716787 0 0 Z " fill="#000000" transform="translate(187,82)"/>
<path d="M0 0 C2.72746137 1.27484417 4.98315488 2.65529504 7.29296875 4.58203125 C7.91421631 5.09499756 8.53546387 5.60796387 9.17553711 6.13647461 C10.17145874 6.96610718 10.17145874 6.96610718 11.1875 7.8125 C16.85023042 12.47695727 22.58283341 17.01655987 28.4375 21.4375 C35.32551669 26.64514163 42.02038504 32.05612103 48.64428711 37.59545898 C49.3172583 38.15692627 49.99022949 38.71839355 50.68359375 39.296875 C51.27712646 39.79541992 51.87065918 40.29396484 52.48217773 40.80761719 C54.00532859 42.08635912 54.00532859 42.08635912 56 43 C55.41629702 46.41836326 54.30956781 48.06629602 51.8671875 50.49609375 C51.22523438 51.13740234 50.58328125 51.77871094 49.921875 52.43945312 C48.90867187 53.42848633 48.90867187 53.42848633 47.875 54.4375 C47.22273438 55.09298828 46.57046875 55.74847656 45.8984375 56.42382812 C35.20557767 67 35.20557767 67 31 67 C30.8548999 66.45287354 30.7097998 65.90574707 30.56030273 65.34204102 C24.54831734 42.91244067 16.8428987 21.57986154 1.3984375 3.78515625 C0 2 0 2 0 0 Z " fill="#000000" transform="translate(256,117)"/>
<path d="M0 0 C3.04934452 0.91480336 6.00797242 1.91994973 9 3 C9.96220459 3.29994873 10.92440918 3.59989746 11.91577148 3.90893555 C16.85549906 5.81633137 20.62236298 7.67474799 23.01708984 12.53320312 C24.78421803 16.81685335 26.04949609 21.23509228 27.3125 25.6875 C27.79221568 27.22586503 28.27591125 28.76299491 28.76367188 30.29882812 C32.19822819 41.40531543 32.19822819 41.40531543 31 45 C17.6363715 32.5669143 7.72880736 18.54537279 0 2 C0 1.34 0 0.68 0 0 Z " fill="#000000" transform="translate(12,271)"/>
<path d="M0 0 C0 7.59 0 15.18 0 23 C-6.27 22.67 -12.54 22.34 -19 22 C-17.11453162 17.28632906 -15.08850673 14.55908806 -11.6875 11 C-10.9769043 10.23816406 -10.9769043 10.23816406 -10.25195312 9.4609375 C-8.84686731 7.96166673 -7.42770814 6.47772497 -6 5 C-5.52643066 4.50886719 -5.05286133 4.01773437 -4.56494141 3.51171875 C-1.12617738 0 -1.12617738 0 0 0 Z " fill="#000000" transform="translate(85,297)"/>
<path d="M0 0 C-0.66 3.3 -1.32 6.6 -2 10 C-3.77226453 9.71715982 -5.542788 9.42339502 -7.3125 9.125 C-8.29863281 8.96257812 -9.28476562 8.80015625 -10.30078125 8.6328125 C-13 8 -13 8 -16 6 C-14.23002526 5.18563132 -12.45898848 4.3735706 -10.6875 3.5625 C-9.70136719 3.11003906 -8.71523438 2.65757812 -7.69921875 2.19140625 C-2.73442623 0 -2.73442623 0 0 0 Z " fill="#000000" transform="translate(278,234)"/>
</svg>
