<?xml version="1.0" encoding="UTF-8"?>
<svg version="1.1" xmlns="http://www.w3.org/2000/svg" width="512" height="512">
<path d="M0 0 C5.88509821 3.58603649 10.2183252 8.00604038 14.6484375 13.20703125 C17.14123094 16.04166345 19.8282077 18.65240234 22.51953125 21.296875 C25.07673077 23.89946859 27.42784787 26.65016345 29.76171875 29.453125 C31.91572674 31.75718747 33.84505075 33.58036882 36.5 35.3125 C39.47755293 35.20969631 39.47755293 35.20969631 42.58105469 34.10180664 C43.78711365 33.73724869 44.99317261 33.37269073 46.23577881 32.99708557 C47.5479629 32.57274562 48.85999091 32.14792276 50.171875 31.72265625 C51.53578982 31.30069964 52.90040898 30.88101367 54.26568604 30.46348572 C57.86992052 29.3547323 61.46404797 28.21617939 65.05682373 27.07092285 C68.65102376 25.93043726 72.25342509 24.81658377 75.85546875 23.70117188 C81.34049107 21.99929449 86.82298887 20.28959263 92.30273438 18.57080078 C93.54273193 18.18208801 94.78272949 17.79337524 96.06030273 17.3928833 C98.1848465 16.72557992 100.30882775 16.05647898 102.43188477 15.38446045 C104.7900101 14.64020697 107.15175484 13.90934485 109.515625 13.18359375 C110.70961914 12.81032959 111.90361328 12.43706543 113.13378906 12.05249023 C117.53571444 11.0848201 122.43591214 10.24352794 126.57421875 12.38671875 C127.10660156 12.91910156 127.63898438 13.45148437 128.1875 14 C128.83332031 14.6290625 129.47914063 15.258125 130.14453125 15.90625 C130.92183594 16.7003125 131.69914062 17.494375 132.5 18.3125 C133.60600592 19.38754728 134.7142535 20.46029112 135.82421875 21.53125 C137.00913761 22.686142 138.19272595 23.84240063 139.375 25 C139.94694092 25.55840576 140.51888184 26.11681152 141.1081543 26.69213867 C146.34941999 31.9271396 146.34941999 31.9271396 147.5 35.3125 C147.35673358 38.75089417 147.0650256 40.65263809 144.80688477 43.28979492 C142.24776379 45.53366383 139.70729491 47.05419209 136.71484375 48.67578125 C135.55686279 49.30830811 134.39888184 49.94083496 133.20581055 50.5925293 C131.94971024 51.27002549 130.69360665 51.94751558 129.4375 52.625 C128.14384984 53.32968289 126.85064267 54.03517956 125.55786133 54.74145508 C122.88177591 56.20295562 120.20414635 57.66156408 117.52539062 59.11816406 C111.81032444 62.22942431 106.11601204 65.37796074 100.42654419 68.53573608 C98.73017977 69.47633495 97.03198248 70.41362585 95.33374023 71.35083008 C89.61479933 74.52057082 84.00625806 77.78557234 78.5 81.3125 C79.21285156 82.01375 79.92570312 82.715 80.66015625 83.4375 C89.3563752 92.03631643 89.3563752 92.03631643 93.125 96.4375 C93.66511719 97.05753906 94.20523437 97.67757812 94.76171875 98.31640625 C96.0667116 99.8149486 97.35886985 101.3246836 98.64453125 102.83984375 C99.40121094 103.67644531 100.15789062 104.51304688 100.9375 105.375 C101.95650391 106.53708984 101.95650391 106.53708984 102.99609375 107.72265625 C106.02338969 109.64482388 107.90048861 109.47235924 111.37475586 108.83422852 C115.53297727 107.81342218 119.54958311 106.45461797 123.58789062 105.04101562 C128.01062353 103.56677132 131.77628877 102.86016886 136.5 103.3125 C138.46875 104.34375 138.46875 104.34375 140 105.8125 C140.57363281 106.35648437 141.14726562 106.90046875 141.73828125 107.4609375 C144.2217746 110.0710835 146.60821278 112.7460085 148.921875 115.5078125 C150.53703258 117.45463662 150.53703258 117.45463662 152.9375 119.3125 C154.91646255 121.84557207 155.02200593 124.051852 155.12890625 127.21484375 C153.82618118 131.55995781 149.99677769 134.00871941 146.27368164 136.28540039 C145.07399909 136.91953421 143.86921786 137.54409299 142.66015625 138.16015625 C141.6932914 138.66801918 141.6932914 138.66801918 140.70689392 139.18614197 C138.66321786 140.25789908 136.61336461 141.31707373 134.5625 142.375 C132.51636357 143.43854629 130.47169869 144.50478337 128.42881775 145.5745697 C127.16317791 146.23650845 125.89552561 146.89461953 124.62550354 147.54811096 C117.93009249 151.03196449 113.35863518 153.63023914 109.84375 160.4765625 C109.53352905 161.06867523 109.22330811 161.66078796 108.90368652 162.27084351 C107.92122651 164.15259378 106.95996662 166.04419215 106 167.9375 C104.72402205 170.41159744 103.44056971 172.88178668 102.15625 175.3515625 C101.8463916 175.94890198 101.5365332 176.54624146 101.21728516 177.16168213 C93.75412886 191.47641409 93.75412886 191.47641409 89.5 194.3125 C86.40234375 194.96484375 86.40234375 194.96484375 82.5 194.3125 C78.96319847 191.87927251 76.05698581 188.93704875 73.0625 185.875 C72.23556641 185.09189453 71.40863281 184.30878906 70.55664062 183.50195312 C63.97208397 176.89564732 63.97208397 176.89564732 63.7734375 171.859375 C64.31001889 166.73297618 65.91931996 161.86395867 67.5625 157 C68.14605268 155.25700349 68.72066383 153.51098113 69.28515625 151.76171875 C69.54176025 151.00205811 69.79836426 150.24239746 70.06274414 149.4597168 C70.55902907 147.02262802 70.35328125 145.63241674 69.5 143.3125 C68.00012825 141.66801924 68.00012825 141.66801924 66.0625 140.1875 C62.69343809 137.37894392 59.57575726 134.44054988 56.5 131.3125 C51.48838754 126.24683317 46.44330745 121.27470497 40.5 117.3125 C40.26539063 118.12976563 40.03078125 118.94703125 39.7890625 119.7890625 C38.23266343 124.04321995 36.13830042 127.77623396 33.875 131.6875 C33.24464844 132.79158203 33.24464844 132.79158203 32.6015625 133.91796875 C31.57247236 135.7188765 30.53689244 137.51607318 29.5 139.3125 C29.90089844 139.93253906 30.30179687 140.55257812 30.71484375 141.19140625 C32.65991491 144.2214831 34.5831133 147.2645092 36.5 150.3125 C36.85835938 150.87984863 37.21671875 151.44719727 37.5859375 152.03173828 C50.64402379 172.81701658 60.6447034 195.93427115 64.5 220.3125 C64.80357422 222.07787109 64.80357422 222.07787109 65.11328125 223.87890625 C71.96200666 270.79500478 61.05095019 320.64915022 33.12695312 359.20849609 C1.47256369 401.6178306 -42.17561848 427.68030632 -94.44140625 435.60693359 C-142.97295328 441.94653765 -191.99939223 427.76390577 -230.75732422 398.39257812 C-237.91570706 392.87034175 -244.24944651 386.83746803 -250.5 380.3125 C-251.31984375 379.50296875 -252.1396875 378.6934375 -252.984375 377.859375 C-286.91664214 343.50558901 -302.13455914 295.98354375 -302.52294922 248.45166016 C-302.20918514 205.53273903 -285.3387378 162.82843276 -256.87792969 130.86230469 C-255.52291462 129.33827286 -254.18692057 127.79906715 -252.8515625 126.2578125 C-227.58259727 97.47280069 -192.54647447 79.57529699 -155.5 71.3125 C-154.82018066 71.14878906 -154.14036133 70.98507813 -153.43994141 70.81640625 C-103.73824749 59.15307541 -53.81652005 74.67354205 -11.5 100.3125 C-10.29590683 96.56762292 -9.11464949 92.81592524 -7.9375 89.0625 C-7.59525391 87.99902344 -7.25300781 86.93554688 -6.90039062 85.83984375 C-6.58134766 84.81503906 -6.26230469 83.79023437 -5.93359375 82.734375 C-5.63509521 81.79174805 -5.33659668 80.84912109 -5.02905273 79.87792969 C-4.46720173 77.15345792 -4.43606337 75.85991187 -5.5 73.3125 C-6.85459124 71.53136571 -6.85459124 71.53136571 -8.59765625 69.88671875 C-9.23050537 69.25846191 -9.86335449 68.63020508 -10.51538086 67.98291016 C-11.19093018 67.3285498 -11.86647949 66.67418945 -12.5625 66 C-13.24771729 65.32501465 -13.93293457 64.6500293 -14.63891602 63.95458984 C-18.55863612 60.11723831 -22.54633028 56.41657451 -26.7734375 52.91796875 C-28.80161942 51.03203488 -30.364223 48.93607996 -32.0625 46.75 C-36.07653845 42.02146271 -40.53464882 40.26418655 -46.30883789 38.42749023 C-49.53747242 37.35487763 -51.31622824 36.5389589 -53.484375 33.8671875 C-54.98481453 30.09300499 -54.05864791 27.97193422 -52.5 24.3125 C-50.11422074 21.67110153 -48.94177985 21.34784239 -45.375 21.0625 C-42.5 21.3125 -42.5 21.3125 -40.5 22.3125 C-40.190625 20.58 -40.190625 20.58 -39.875 18.8125 C-37.9248149 11.1471891 -32.81063315 6.15251389 -26.625 1.5390625 C-19.02401669 -2.84826978 -8.02968196 -3.82882518 0 0 Z M-21.5 18.3125 C-23.94434406 21.22994291 -24.4556259 22.96384635 -24.9375 26.75 C-24.06448969 33.85879825 -18.8735238 38.12362981 -13.8125 42.6875 C-12.48138107 43.9097319 -11.15066888 45.13240688 -9.8203125 46.35546875 C-9.12196289 46.99403809 -8.42361328 47.63260742 -7.70410156 48.29052734 C-3.84096637 51.83444467 -0.01289989 55.41545104 3.8125 59 C4.54750732 59.68304199 5.28251465 60.36608398 6.03979492 61.06982422 C7.06617065 62.03106201 7.06617065 62.03106201 8.11328125 63.01171875 C8.71954346 63.57721436 9.32580566 64.14270996 9.95043945 64.7253418 C11.5 66.3125 11.5 66.3125 13.5 69.3125 C13.27353417 77.63918263 10.57774477 85.38410403 8.1328125 93.27734375 C7.69232219 94.72004662 7.25254636 96.16296782 6.81344604 97.60609436 C5.6609512 101.38713007 4.49902144 105.1651995 3.33496094 108.94268799 C2.15910626 112.76411461 0.99195465 116.58819565 -0.17578125 120.41210938 C-1.6956636 125.38698511 -3.21763105 130.36119665 -4.74728584 135.33307743 C-5.32062421 137.20046608 -5.88960382 139.06919125 -6.45843506 140.93795776 C-7.11456609 143.06374156 -7.78902915 145.1840364 -8.48931885 147.29568481 C-8.77402039 148.16949799 -9.05872192 149.04331116 -9.35205078 149.94360352 C-9.72440353 151.04443016 -9.72440353 151.04443016 -10.10427856 152.16749573 C-10.59428906 154.82359296 -10.23339139 156.72758617 -9.5 159.3125 C-8.14466636 160.9398855 -8.14466636 160.9398855 -6.4375 162.125 C-5.468125 162.846875 -4.49875 163.56875 -3.5 164.3125 C2.28737713 155.36042421 7.37985792 146.09268136 12.41845703 136.70336914 C17.11678586 127.96692527 21.99074414 119.34152106 26.94140625 110.74609375 C27.37469238 109.99312012 27.80797852 109.24014648 28.25439453 108.46435547 C29.07131866 107.05307179 29.89499941 105.64567304 30.72607422 104.24267578 C32.80592243 100.99821875 32.80592243 100.99821875 33.5 97.3125 C40.73809313 95.96302501 40.73809313 95.96302501 43.81640625 97.375 C47.41435924 99.97264874 50.55034164 102.93221732 53.75 106 C55.1718092 107.34902769 56.59368656 108.69798354 58.015625 110.046875 C58.74974609 110.74619141 59.48386719 111.44550781 60.24023438 112.16601562 C62.50038777 114.31286833 64.77144525 116.44747754 67.046875 118.578125 C67.79163086 119.27591064 68.53638672 119.97369629 69.30371094 120.69262695 C70.72321028 122.02234249 72.14310484 123.35163629 73.56347656 124.68041992 C74.88410563 125.92121126 76.19902181 127.16811451 77.5078125 128.42138672 C78.89879636 129.7417986 80.31233066 131.03867974 81.7421875 132.31689453 C84.91079999 135.24800204 87.16542953 137.43358014 88.71484375 141.50390625 C88.38565621 147.33950358 86.74573715 152.67407882 85.0625 158.25 C84.72412109 159.41080078 84.38574219 160.57160156 84.03710938 161.76757812 C83.20375145 164.61977498 82.35777284 167.46756931 81.5 170.3125 C83.48 171.3025 83.48 171.3025 85.5 172.3125 C87.60070814 168.54113794 89.70028392 164.76914843 91.79882812 160.99658203 C92.51238678 159.71418374 93.22625063 158.43195522 93.94042969 157.14990234 C94.96890919 155.30350948 95.9962774 153.4565021 97.0234375 151.609375 C97.64138184 150.49916992 98.25932617 149.38896484 98.89599609 148.24511719 C100.47746527 145.47180885 100.47746527 145.47180885 101.43994141 143.08056641 C102.88035086 140.67811472 104.44422662 139.96970861 106.9375 138.7265625 C107.83339844 138.27023438 108.72929687 137.81390625 109.65234375 137.34375 C111.06193359 136.64765625 111.06193359 136.64765625 112.5 135.9375 C119.68560419 132.32940939 126.66084702 128.54617306 133.5 124.3125 C132.84 123.3225 132.18 122.3325 131.5 121.3125 C125.06639031 121.93788999 119.49028962 123.45632822 113.41210938 125.58398438 C108.99053679 127.0578419 105.22171959 127.78524153 100.5 127.3125 C98.453125 126.203125 98.453125 126.203125 96.75 124.5625 C96.07453125 123.91539062 95.3990625 123.26828125 94.703125 122.6015625 C91.30501244 119.07089945 87.98251778 115.47673275 84.703125 111.8359375 C80.30110278 106.96327654 75.7669658 102.21377757 71.24609375 97.45166016 C57.69705236 83.12538167 57.69705236 83.12538167 57.1875 78.4375 C57.58737037 74.43879629 58.43736815 73.86309809 61.5 71.3125 C64.19926698 69.68953021 66.9983256 68.28685895 69.8125 66.875 C77.24381653 63.05812022 84.55563822 59.07634292 91.8125 54.9375 C102.96461356 48.58570167 114.21257964 42.42006536 125.5 36.3125 C123.27608224 31.69042565 123.27608224 31.69042565 119.5 28.3125 C111.57743513 29.59486993 103.92969966 32.23312389 96.27364922 34.59827042 C93.89028758 35.33367495 91.50525597 36.06340342 89.11964417 36.79147339 C82.34312571 38.85998343 75.56812144 40.9332761 68.7980957 43.02294922 C64.64090906 44.30568664 60.48050584 45.57747699 56.31785774 46.84237289 C54.74066134 47.32390671 53.16469639 47.80949447 51.59005547 48.29932022 C49.3852304 48.98477312 47.17655704 49.65617285 44.96655273 50.32470703 C43.0886631 50.90189987 43.0886631 50.90189987 41.1728363 51.49075317 C36.08833644 52.62834039 31.52536303 52.98762101 26.5 51.3125 C25.79925439 49.99675769 25.13623734 48.66061879 24.5 47.3125 C23.0120868 45.56782961 23.0120868 45.56782961 21.26953125 43.921875 C20.6348291 43.29877441 20.00012695 42.67567383 19.34619141 42.03369141 C18.33951416 41.05795166 18.33951416 41.05795166 17.3125 40.0625 C8.96467506 31.85626361 8.96467506 31.85626361 5.625 27.9375 C-1.16684855 19.03438318 -1.16684855 19.03438318 -10.625 14 C-15.55970919 14.39796042 -17.53605556 15.35897277 -21.5 18.3125 Z M-129.79638672 84.44287109 C-168.88098132 86.81030094 -205.45199351 104.44641923 -233.5 131.3125 C-234.42941406 132.16714844 -235.35882813 133.02179688 -236.31640625 133.90234375 C-265.69704605 161.48988972 -282.27398283 202.47446865 -284.5 242.3125 C-283.90574219 242.38726562 -283.31148437 242.46203125 -282.69921875 242.5390625 C-266.28510604 245.14285643 -253.58164189 257.35319248 -241.82617188 268.32470703 C-236.91029712 272.90511098 -231.76445657 277.14148627 -226.5 281.3125 C-225.47003906 282.1375 -224.44007813 282.9625 -223.37890625 283.8125 C-199.58219616 302.6657932 -174.96986815 312.04873589 -144.5 310.3125 C-140.05315876 309.74434408 -135.76642453 308.68823766 -131.5 307.3125 C-131.16618551 304.38829999 -131.16618551 304.38829999 -132.6875 302.98828125 C-139.06834504 298.18889565 -146.1495007 294.8781206 -153.29296875 291.39648438 C-181.43614068 277.57395303 -181.43614068 277.57395303 -188.8125 263.875 C-191.65775827 253.26994645 -189.83128086 244.18853914 -184.6875 234.5 C-175.18223955 219.17928485 -160.1070252 206.74010565 -146.21484375 195.55859375 C-142.42788912 192.42550179 -138.8423783 189.08953161 -135.23046875 185.7578125 C-132.66139519 183.4570399 -130.02278292 181.31845488 -127.3125 179.1875 C-111.17727498 166.08051922 -90.51546089 146.8335248 -88.12890625 124.90234375 C-87.88639828 111.56440515 -91.37768266 101.13384549 -100.5 91.3125 C-100.98138428 90.72057861 -101.46276855 90.12865723 -101.95874023 89.51879883 C-105.00875758 86.02883691 -107.18016514 83.89233348 -111.92578125 83.55859375 C-113.55575433 83.58296656 -115.18549219 83.64874844 -116.8125 83.75 C-117.69131836 83.78077637 -118.57013672 83.81155273 -119.47558594 83.84326172 C-122.92004577 83.98755498 -126.35480443 84.24748464 -129.79638672 84.44287109 Z M-81.5 87.3125 C-80.18037931 90.73984817 -78.68914467 93.99015678 -77 97.25 C-70.11545177 110.93810177 -70.41031601 123.95177411 -74.81542969 138.32421875 C-82.51938765 160.69976569 -103.51645614 180.61799355 -121.75390625 195.0703125 C-125.32098868 197.98283784 -128.67233391 201.10731685 -132.03735352 204.24682617 C-135.08752263 207.07337155 -138.21696468 209.70051789 -141.5 212.25 C-147.26527928 216.90949365 -152.53320464 222.05122819 -157.8125 227.25 C-158.67294922 228.0845874 -159.53339844 228.9191748 -160.41992188 229.77905273 C-166.66545446 236.00572216 -171.97797209 242.40818784 -174.625 250.9375 C-174.43363884 256.1042513 -172.78159682 259.95742449 -169.16577148 263.68969727 C-164.19735987 268.25536474 -158.56389183 271.12901397 -152.5625 274.125 C-150.50954882 275.17538887 -148.45746908 276.22748265 -146.40625 277.28125 C-145.40335938 277.79429687 -144.40046875 278.30734375 -143.3671875 278.8359375 C-117.48810811 292.16331081 -117.48810811 292.16331081 -113.5 301.3125 C-112.00700842 306.00475926 -112.60314879 309.69397666 -114.328125 314.203125 C-117.56442725 320.02846905 -123.96444836 321.70852936 -130 323.625 C-147.8998624 328.20212362 -171.07658858 327.30363922 -188.5 321.3125 C-189.61246094 320.95027344 -190.72492188 320.58804688 -191.87109375 320.21484375 C-210.1699449 313.73445829 -227.08535751 302.71644031 -241.18359375 289.453125 C-243.68447589 287.14202313 -246.28451589 285.00932758 -248.9375 282.875 C-252.78133816 279.77286019 -256.447393 276.5531137 -260.0625 273.1875 C-270.91225433 262.86921947 -270.91225433 262.86921947 -284.5 258.3125 C-283.20608671 304.63459593 -262.18234933 345.35814429 -229.00634766 376.91113281 C-216.52962165 388.51833011 -201.89191143 397.19677936 -186.5 404.3125 C-185.33726562 404.85777344 -184.17453125 405.40304687 -182.9765625 405.96484375 C-168.6768873 412.39478923 -153.95865315 416.02232916 -138.5 418.3125 C-137.26378906 418.49941406 -136.02757812 418.68632812 -134.75390625 418.87890625 C-129.35054472 419.53007216 -123.93573767 419.50412298 -118.5 419.5 C-117.3965625 419.49919434 -116.293125 419.49838867 -115.15625 419.49755859 C-103.33998331 419.40955778 -91.98768747 418.18442187 -80.5 415.3125 C-80.53480469 414.2709375 -80.56960938 413.229375 -80.60546875 412.15625 C-81.20947757 386.09188951 -72.69193825 365.54118544 -54.75390625 346.6730957 C-53.34252622 345.2131653 -51.92161481 343.7624661 -50.5 342.3125 C-49.86320313 341.63703125 -49.22640625 340.9615625 -48.5703125 340.265625 C-45.43623363 336.99658579 -42.09631802 334.14374886 -38.5625 331.3125 C-24.62932343 320.06616188 -11.19022846 307.56105307 -1.125 292.6875 C-0.71975098 292.09001953 -0.31450195 291.49253906 0.10302734 290.87695312 C5.1263608 283.19001649 7.97280923 275.58245812 9.5625 266.5625 C9.89885727 264.79931062 10.23609743 263.03628944 10.57421875 261.2734375 C11.12364286 258.34206228 11.66642351 255.40958348 12.20703125 252.4765625 C14.85195146 239.45303725 20.62763693 231.87588301 31.5 224.3125 C36.40773495 221.15439449 41.43248963 218.20528932 46.5 215.3125 C41.64482756 193.83550193 33.83141262 173.07968101 20.5 155.3125 C18.16727065 158.27602505 16.30810449 161.31933281 14.50390625 164.62890625 C13.94509766 165.64017578 13.38628906 166.65144531 12.81054688 167.69335938 C11.64443669 169.8158102 10.48297876 171.94082365 9.32617188 174.06835938 C8.76607422 175.07833984 8.20597656 176.08832031 7.62890625 177.12890625 C7.12431885 178.05131104 6.61973145 178.97371582 6.09985352 179.92407227 C4.36912648 182.5078816 3.2919818 183.92578226 0.5 185.3125 C-4.98797749 185.23529242 -7.67398442 183.902616 -11.5234375 180.0859375 C-12.39871094 179.21839844 -13.27398437 178.35085937 -14.17578125 177.45703125 C-15.06652344 176.54308594 -15.95726562 175.62914062 -16.875 174.6875 C-17.78894531 173.79675781 -18.70289063 172.90601563 -19.64453125 171.98828125 C-20.94583984 170.67537109 -20.94583984 170.67537109 -22.2734375 169.3359375 C-23.45558838 168.14363525 -23.45558838 168.14363525 -24.66162109 166.92724609 C-27.03207462 163.55572455 -27.40124024 161.43045803 -27.5 157.3125 C-26.96830435 154.34482112 -26.09294249 151.53825302 -25.15625 148.67578125 C-24.90830688 147.87391891 -24.66036377 147.07205658 -24.40490723 146.24589539 C-23.61679585 143.70113061 -22.81019174 141.16281357 -22 138.625 C-21.19133187 136.07608383 -20.38706724 133.52612464 -19.59509277 130.9719696 C-19.10332755 129.38726515 -18.60181609 127.80554435 -18.08947754 126.22737122 C-16.51693728 121.25381706 -16.51693728 121.25381706 -17.5 116.3125 C-19.68266542 114.55440786 -21.77202285 113.05650473 -24.125 111.5625 C-24.79942139 111.12639404 -25.47384277 110.69028809 -26.16870117 110.2409668 C-43.42899834 99.24291806 -61.49948073 91.69953488 -81.5 87.3125 Z M34.32421875 242.2734375 C28.07771359 248.82758638 26.83548434 255.93809061 25.53710938 264.62524414 C20.73690402 296.37297102 -0.12836689 319.52004128 -24.02294922 339.59179688 C-41.60893535 354.39143196 -59.00725357 370.02908813 -64.5 393.3125 C-64.71823321 396.298974 -64.6916649 399.25777168 -64.625 402.25 C-64.61597656 403.02923828 -64.60695313 403.80847656 -64.59765625 404.61132812 C-64.57433691 406.51185447 -64.53847586 408.41222008 -64.5 410.3125 C-59.16933021 409.71364311 -54.82986071 407.94365426 -50 405.75 C-49.20972412 405.39357422 -48.41944824 405.03714844 -47.60522461 404.66992188 C-36.10168582 399.39074972 -25.51830248 393.08301099 -15.5 385.3125 C-14.64277344 384.66023437 -13.78554688 384.00796875 -12.90234375 383.3359375 C18.42749344 358.69656628 38.85362043 324.01646683 47.5 285.3125 C47.74991699 284.1999585 47.74991699 284.1999585 48.00488281 283.06494141 C51.47117459 266.88532482 52.5280967 248.60748329 49.5 232.3125 C44.13948278 232.3125 38.14268965 238.8320149 34.32421875 242.2734375 Z " fill="#000000" transform="translate(357.5,10.6875)"/>
<path d="M0 0 C2.50989481 0.8366316 3.62631 1.44145979 5.09765625 3.640625 C8.11064681 11.5187475 7.27086643 27.52711689 4.06640625 35.25 C2.62311151 37.61848367 1.6660709 38.20738433 -1 39 C-4.79065979 38.86461929 -7.16141753 38.64494886 -10.19921875 36.30859375 C-12.49215345 33.36906141 -12.44719862 31.88010019 -12.3125 28.1875 C-12.27511719 27.04796875 -12.23773438 25.9084375 -12.19921875 24.734375 C-12.10060547 22.88585937 -12.10060547 22.88585937 -12 21 C-11.94384841 19.6510484 -11.88786162 18.30208993 -11.83203125 16.953125 C-11.25362167 5.31910946 -11.25362167 5.31910946 -9 2 C-5.51195905 -0.32536063 -4.09859246 -0.33457898 0 0 Z " fill="#000000" transform="translate(476,253)"/>
<path d="M0 0 C1.41149329 2.32481248 1.86816 4.02924002 2.0625 6.75 C1.33257099 9.53700166 0.56984784 11.2308228 -1.4453125 13.29296875 C-5.14861757 15.45806717 -8.91711552 15.84102993 -13.125 16.4375 C-13.93775391 16.56705078 -14.75050781 16.69660156 -15.58789062 16.83007812 C-29.1422783 18.86808868 -29.1422783 18.86808868 -34.4375 16.75 C-36.36453211 14.18062385 -36.75862363 12.01533683 -37.25 8.8828125 C-36.75931103 5.53386026 -35.3582279 4.07050668 -32.9375 1.75 C-29.546875 0.640625 -29.546875 0.640625 -25.6875 0 C-25.01581787 -0.11504883 -24.34413574 -0.23009766 -23.65209961 -0.34863281 C-21.75037777 -0.66838931 -19.8440014 -0.96009905 -17.9375 -1.25 C-16.70966797 -1.4665625 -16.70966797 -1.4665625 -15.45703125 -1.6875 C-10.36917304 -2.49993245 -4.48003429 -2.89034471 0 0 Z " fill="#000000" transform="translate(223.9375,24.25)"/>
<path d="M0 0 C0.928125 0.19658203 1.85625 0.39316406 2.8125 0.59570312 C8.32155307 1.87825488 11.83635382 3.10163149 15.375 7.8125 C16.08735686 11.6117366 15.68763988 13.24974821 13.8125 16.625 C10.75699071 19.36712372 8.365133 19.84828793 4.375 19.8125 C0.40394114 19.17939039 -3.43384486 18.17613269 -7.3125 17.125 C-8.34439453 16.86783203 -9.37628906 16.61066406 -10.43945312 16.34570312 C-11.43267578 16.08337891 -12.42589844 15.82105469 -13.44921875 15.55078125 C-14.34729248 15.31399658 -15.24536621 15.07721191 -16.1706543 14.83325195 C-19.05939439 13.63183722 -20.61092673 12.18475201 -22.625 9.8125 C-23.40810284 7.04733688 -23.27716817 4.60423745 -22.625 1.8125 C-16.846606 -5.19161394 -7.69722436 -1.8057214 0 0 Z " fill="#000000" transform="translate(190.625,480.1875)"/>
<path d="M0 0 C4.39180279 6.58770419 1.76959201 15.99463358 0.3125 23.375 C0.16361328 24.25027344 0.01472656 25.12554687 -0.13867188 26.02734375 C-0.94573787 30.17344748 -1.48825236 32.45110938 -4.421875 35.59765625 C-7 37 -7 37 -10.5625 37.0625 C-14.69575288 35.78494911 -15.706557 34.60613735 -18 31 C-18.43289167 26.62230679 -17.64160354 22.33998965 -17 18 C-16.90267578 17.3395166 -16.80535156 16.6790332 -16.70507812 15.99853516 C-14.64676167 2.63545895 -14.64676167 2.63545895 -10 -1 C-6.00471255 -2.33176248 -3.90144863 -1.41870859 0 0 Z " fill="#000000" transform="translate(19,205)"/>
<path d="M0 0 C2.35644485 1.86835271 3.75205467 3.06655877 4.53125 6 C4.5209375 6.66 4.510625 7.32 4.5 8 C4.5103125 8.66 4.520625 9.32 4.53125 10 C3.74405713 12.96354963 2.42113179 14.1588043 0 16 C-8.41110851 17.43219452 -24.66805949 16.84280597 -32 12 C-34.32536063 8.51195905 -34.33457898 7.09859246 -34 3 C-33.3125 0.75 -33.3125 0.75 -32 -1 C-23.83966534 -5.28864303 -8.52907543 -2.71805701 0 0 Z " fill="#000000" transform="translate(280,24)"/>
<path d="M0 0 C2.08120112 2.5614783 2.47651643 4.66599304 3.03515625 7.8671875 C2.35981864 11.37894305 0.31747656 12.72281546 -2.375 15 C-5.19765963 16.88456607 -8.11040022 18.57739385 -11.0625 20.25 C-11.83400391 20.69601562 -12.60550781 21.14203125 -13.40039062 21.6015625 C-21.95317459 26.53155151 -21.95317459 26.53155151 -27.375 26 C-30.25 24.5 -30.25 24.5 -32.375 22 C-33.22077114 16.67164179 -33.22077114 16.67164179 -32.375 14 C-28.5226487 9.29831141 -23.73588881 6.58916252 -18.5 3.6875 C-17.72269531 3.23310547 -16.94539063 2.77871094 -16.14453125 2.31054688 C-10.74850833 -0.7048777 -6.07295616 -2.55703417 0 0 Z " fill="#000000" transform="translate(371.375,452)"/>
<path d="M0 0 C2.875 2.0625 2.875 2.0625 5 5 C5.5625 8.5625 5.5625 8.5625 5 12 C1.65051953 16.4899202 -3.22909199 18.1257558 -8.25 20.1875 C-9.48169922 20.72020508 -9.48169922 20.72020508 -10.73828125 21.26367188 C-15.8788386 23.410323 -20.41863507 24.7318995 -26 25 C-29 23.5625 -29 23.5625 -31 21 C-31.64574807 18.2055681 -31.78364192 15.76706664 -31 13 C-26.71174073 7.6320365 -20.1491451 5.62903569 -14 3 C-13.20207031 2.65324219 -12.40414062 2.30648437 -11.58203125 1.94921875 C-7.61327674 0.32947561 -4.26391337 -0.75802904 0 0 Z " fill="#000000" transform="translate(164,35)"/>
<path d="M0 0 C0.55494141 0.52529297 1.10988281 1.05058594 1.68164062 1.59179688 C3.23747646 3.06993342 4.77525868 4.56508494 6.3125 6.0625 C7.08335938 6.78695313 7.85421875 7.51140625 8.6484375 8.2578125 C10.99402442 10.80161803 11.2426086 12.63782149 11.3125 16.0625 C9.9276712 19.64676279 8.88612219 20.7756889 5.4375 22.5 C1.68935947 23.17466529 0.67820192 22.77647054 -2.6875 21.0625 C-5.15376984 19.2496894 -7.44972287 17.26731621 -9.75 15.25 C-10.36166016 14.72857422 -10.97332031 14.20714844 -11.60351562 13.66992188 C-20.0264724 6.3760966 -20.0264724 6.3760966 -21.6875 0.5625 C-21.6875 -2.9375 -21.6875 -2.9375 -20 -5.8125 C-12.82606619 -12.40476351 -5.6304891 -5.48354869 0 0 Z " fill="#000000" transform="translate(89.6875,427.9375)"/>
<path d="M0 0 C3.87595033 0.72674069 5.20768627 1.74880561 8 4.5625 C9.60410174 7.68512668 10.70830929 10.92280284 11.8125 14.25 C12.12380859 15.11044922 12.43511719 15.97089844 12.75585938 16.85742188 C14.60145484 22.24007063 16.21592422 27.8610687 15 33.5625 C12.94073565 36.22511081 12.01576718 36.55841221 8.625 37.4375 C4.4015955 37.58313464 3.25078488 37.1867513 0 34.5625 C-1.2796272 31.91370058 -2.27232582 29.51558114 -3.1875 26.75 C-3.43435547 26.05068359 -3.68121094 25.35136719 -3.93554688 24.63085938 C-4.64301764 22.61409605 -5.32323149 20.5897328 -6 18.5625 C-6.37898437 17.47710937 -6.75796875 16.39171875 -7.1484375 15.2734375 C-8.24411497 11.78536337 -8.46263163 9.19746284 -8 5.5625 C-5.54999553 2.17572911 -4.13607554 0.77551416 0 0 Z " fill="#000000" transform="translate(17,319.4375)"/>
<path d="M0 0 C4.14866582 0.66674986 5.81886615 1.31264078 8.5 4.5625 C9.08335817 9.34000228 9.11539595 12.24202455 6.26953125 16.1953125 C5.30342633 17.37566926 4.31711277 18.53973958 3.3125 19.6875 C2.58836914 20.55955078 2.58836914 20.55955078 1.84960938 21.44921875 C0.887863 22.6033144 -0.08323173 23.7496903 -1.06396484 24.88769531 C-2.48544615 26.54552628 -3.86190612 28.23436536 -5.23828125 29.9296875 C-7.81079929 32.924294 -8.46275926 33.44725103 -12.3125 33.875 C-16.29519718 33.48453949 -17.76967749 32.44884094 -20.5 29.5625 C-21.58832269 26.732861 -21.70242321 25.2400224 -20.8359375 22.33984375 C-19.07276063 18.67429183 -16.72855523 15.72110251 -14.1875 12.5625 C-13.4769043 11.65757813 -13.4769043 11.65757813 -12.75195312 10.734375 C-4.84097483 0.77801381 -4.84097483 0.77801381 0 0 Z " fill="#000000" transform="translate(64.5,100.4375)"/>
<path d="M0 0 C2.4375 1.5 2.4375 1.5 4 4 C4.56497865 11.49996881 1.15421127 16.92199138 -2.875 22.9375 C-3.41769531 23.78634766 -3.96039063 24.63519531 -4.51953125 25.50976562 C-8.54622365 31.69748244 -8.54622365 31.69748244 -12 34 C-15.74276552 34.48818681 -17.52076055 34.2768939 -20.8125 32.375 C-23.4964452 29.46100236 -23.74474873 27.91545817 -24 24 C-23.03125 21.39453125 -23.03125 21.39453125 -21.5 18.8125 C-20.94441406 17.87019531 -20.38882812 16.92789062 -19.81640625 15.95703125 C-19.21699219 14.98121094 -18.61757813 14.00539063 -18 13 C-17.41089844 11.99324219 -16.82179688 10.98648437 -16.21484375 9.94921875 C-8.57054331 -2.73527978 -8.57054331 -2.73527978 0 0 Z " fill="#000000" transform="translate(449,367)"/>
<path d="M0 0 C4.59065626 1.23001847 8.59190733 3.60327717 12.70214844 5.93603516 C13.60320312 6.42265625 14.50425781 6.90927734 15.43261719 7.41064453 C22.90372237 11.5718373 22.90372237 11.5718373 24.32714844 15.62353516 C24.14897365 19.00885614 23.97356638 21.60287525 22.13964844 24.49853516 C19.4550012 26.16486792 17.49840284 26.43289327 14.32714844 26.62353516 C11.52789734 25.73321524 9.02696992 24.39990841 6.45214844 22.99853516 C5.74687012 22.62607666 5.0415918 22.25361816 4.31494141 21.86987305 C2.92914966 21.13181964 1.54760189 20.3857297 0.17089844 19.63085938 C-1.34652921 18.80181985 -2.88244515 18.00671115 -4.42285156 17.22119141 C-8.01172058 15.26182726 -9.56764797 13.84173519 -11.36035156 10.12353516 C-11.72283799 6.06368713 -11.2423775 4.72468715 -8.67285156 1.62353516 C-5.33360661 -0.60262815 -3.87823559 -0.60614071 0 0 Z " fill="#000000" transform="translate(125.6728515625,455.37646484375)"/>
<path d="M0 0 C2.4375 2.0625 2.4375 2.0625 4 5 C3.69316347 10.93634749 2.25714243 15.40690021 -0.375 20.6875 C-0.67921875 21.32494141 -0.9834375 21.96238281 -1.296875 22.61914062 C-5.66649513 31.66649513 -5.66649513 31.66649513 -9 35 C-15.88888889 35.66666667 -15.88888889 35.66666667 -19.5 33.5 C-21.58405178 30.02658037 -21.49175229 26.91296728 -21 23 C-20.02023317 19.80122737 -18.67826423 16.83363337 -17.25 13.8125 C-16.90195312 13.03197266 -16.55390625 12.25144531 -16.1953125 11.44726562 C-14.24543584 7.19003491 -12.2695814 3.42242769 -9 0 C-5.39297148 -1.20234284 -3.64185324 -1.0405295 0 0 Z " fill="#000000" transform="translate(37,150)"/>
<path d="M0 0 C2.03974393 1.5558977 2.86834532 2.5378652 3.57421875 5.015625 C3.75014781 8.48567414 3.76630141 10.97826479 1.62890625 13.828125 C-0.48763366 15.7114495 -2.6990235 17.34639304 -5 19 C-5.98742187 19.79148437 -6.97484375 20.58296875 -7.9921875 21.3984375 C-17.17717684 28.65938917 -17.17717684 28.65938917 -23 29 C-26.52906067 27.39588152 -27.82772908 26.25840638 -30 23 C-29.92460862 18.92886575 -29.6396659 16.72864199 -26.921875 13.6328125 C-23.54051112 10.58596858 -20.00333645 7.90625669 -16.3125 5.25 C-15.63638672 4.75628906 -14.96027344 4.26257813 -14.26367188 3.75390625 C-8.95087211 -0.10514233 -6.81094841 -1.43388388 0 0 Z " fill="#000000" transform="translate(113,63)"/>
<path d="M0 0 C0.66 -0.0103125 1.32 -0.020625 2 -0.03125 C5.1119222 0.79535433 6.12600915 1.85719239 8 4.5 C8.78040769 7.72487537 9.01880151 10.94578832 9.25 14.25 C9.32734375 15.11882812 9.4046875 15.98765625 9.484375 16.8828125 C10.71062014 31.46637071 10.71062014 31.46637071 7.9375 35.5 C4.26914026 37.99760663 2.35802608 38.1338947 -2 37.5 C-4.4631126 36.05905661 -5.74137451 35.13436441 -6.828125 32.46875 C-7.90302222 26.17861071 -8.25640477 19.93275808 -8.375 13.5625 C-8.40110352 12.73363281 -8.42720703 11.90476562 -8.45410156 11.05078125 C-8.46503566 7.22696954 -8.46144931 5.1596489 -6.2265625 1.96484375 C-3.89106443 0.42833186 -2.7623927 -0.04316239 0 0 Z " fill="#000000" transform="translate(8,262.5)"/>
<path d="M0 0 C3.99710527 0.08812516 4.62649818 0.33724841 7.8125 3.125 C8.84524029 4.56033397 9.83925505 6.02367674 10.8125 7.5 C11.60006036 8.58962896 12.38925413 9.67807837 13.1796875 10.765625 C20.39123996 20.97440454 20.39123996 20.97440454 20.625 26.6875 C19.8125 30.5 19.8125 30.5 18.125 32.5 C14.51823924 34.05968033 12.25298699 35.03070573 8.4375 33.625 C1.48643658 27.99794866 -5.43937924 18.54558429 -7.9375 9.90625 C-8.29713866 6.44472786 -6.92185801 4.4350674 -5.1875 1.5 C-3.63817598 -0.04932402 -2.15061911 0.14409508 0 0 Z " fill="#000000" transform="translate(40.1875,373.5)"/>
<path d="M0 0 C2.875 1.4375 2.875 1.4375 5 4 C5.60420743 11.24338078 4.1403907 17.05037633 1.8125 23.875 C1.52052734 24.81085938 1.22855469 25.74671875 0.92773438 26.7109375 C-1.31104628 33.41283571 -1.31104628 33.41283571 -4.51171875 36.140625 C-8.02511276 37.35404208 -10.43518746 36.92421066 -14 36 C-15.97990439 34.46892744 -16.87287656 33.5866884 -17.40722656 31.12060547 C-17.35704459 24.68698183 -15.84502244 19.17918729 -13.75 13.125 C-13.44964844 12.18914062 -13.14929688 11.25328125 -12.83984375 10.2890625 C-12.38544922 8.94328125 -12.38544922 8.94328125 -11.921875 7.5703125 C-11.64956055 6.76352051 -11.37724609 5.95672852 -11.09667969 5.12548828 C-8.62148637 0.32828591 -5.17030469 -0.73861496 0 0 Z " fill="#000000" transform="translate(469,312)"/>
<path d="M0 0 C2.04824124 3.07236186 2.70251905 5.04233623 2.60205078 8.73095703 C1.28238 13.70460678 -2.94585466 16.9956263 -6.5625 20.4375 C-7.36236328 21.25154297 -8.16222656 22.06558594 -8.98632812 22.90429688 C-15.60689404 29.38434466 -15.60689404 29.38434466 -19.91015625 30.1171875 C-23.49926075 29.9810647 -25.20419043 29.22020172 -28 27 C-29.63023814 23.73952371 -29.4673535 21.62198965 -29 18 C-25.58259319 12.68634917 -20.57546906 8.58625569 -15.7890625 4.5390625 C-13.85556732 2.9215091 -13.85556732 2.9215091 -11.6875 0.625 C-7.82949611 -3.09011486 -4.60754774 -1.67547191 0 0 Z " fill="#000000" transform="translate(416,415)"/>
<path d="M0 0 C5.21266834 4.35414074 5.61239444 9.47830557 6.875 15.875 C7.1121875 16.95136719 7.349375 18.02773437 7.59375 19.13671875 C9.63508321 29.10973822 9.63508321 29.10973822 7 34 C4.16771232 36.43891439 2.680574 37 -1.0625 37 C-4.87071045 35.70358793 -5.79693196 34.35956883 -8 31 C-9.01933807 28.13250621 -9.64621338 25.22934055 -10.25 22.25 C-10.42273438 21.48945313 -10.59546875 20.72890625 -10.7734375 19.9453125 C-13.59632102 6.72704841 -13.59632102 6.72704841 -10.5 1.4375 C-7.08273462 -0.52742759 -3.84435972 -1.02115805 0 0 Z " fill="#000000" transform="translate(470,196)"/>
<path d="M0 0 C1.78412942 2.20226905 2.09878544 3.78704889 2.30004883 6.60473633 C1.24541032 10.6315379 -0.14422412 12.48846412 -3.69995117 14.60473633 C-8.3431919 15.23835798 -13.01818731 15.06808944 -17.69995117 15.04223633 C-18.98385742 15.0622168 -20.26776367 15.08219727 -21.59057617 15.1027832 C-22.82291992 15.10213867 -24.05526367 15.10149414 -25.32495117 15.10083008 C-26.4515918 15.10268311 -27.57823242 15.10453613 -28.73901367 15.10644531 C-32.32489279 14.49884459 -33.49078819 13.43448407 -35.69995117 10.60473633 C-36.23120117 8.60473633 -36.23120117 8.60473633 -36.19995117 6.60473633 C-36.21541992 5.61473633 -36.21541992 5.61473633 -36.23120117 4.60473633 C-35.39710112 1.46459497 -34.39477111 0.46727305 -31.69995117 -1.39526367 C-28.31291147 -2.06314148 -24.95748388 -2.13833633 -21.51245117 -2.20776367 C-20.60430664 -2.24579102 -19.69616211 -2.28381836 -18.76049805 -2.32299805 C-3.45755056 -2.83784309 -3.45755056 -2.83784309 0 0 Z " fill="#000000" transform="translate(261.699951171875,488.395263671875)"/>
<path d="M0 0 C2.64508959 2.64508959 2.78233633 4.29971764 3 8 C1.12364194 12.74608216 -1.47157907 13.97440656 -6 16 C-13.72795121 18.54197735 -21.83394458 21.20482785 -30 20 C-33.06018871 17.46228253 -33.83450185 15.88265681 -34.5625 12 C-33.96953168 8.83750231 -33.12368309 7.42278716 -30.80786133 5.22607422 C-26.86543217 2.55235657 -22.13120636 1.68820633 -17.5625 0.5625 C-16.53833984 0.28212891 -15.51417969 0.00175781 -14.45898438 -0.28710938 C-5.03874037 -2.69552127 -5.03874037 -2.69552127 0 0 Z " fill="#000000" transform="translate(318,477)"/>
</svg>
