<?xml version="1.0" encoding="UTF-8"?>
<svg version="1.1" xmlns="http://www.w3.org/2000/svg" width="512" height="512">
<path d="M0 0 C0.89994053 -0.00367669 1.79988105 -0.00735338 2.7270925 -0.01114148 C5.76099947 -0.02220804 8.79487223 -0.02602718 11.82879639 -0.02983093 C13.99666961 -0.03609333 16.16454176 -0.04273992 18.33241272 -0.04974365 C24.23539772 -0.06717394 30.1383746 -0.07771088 36.04137897 -0.08594918 C39.72698674 -0.09109489 43.41259196 -0.0971708 47.09819794 -0.10346031 C58.62267546 -0.12251778 70.14714656 -0.13674791 81.67163682 -0.14507228 C94.98760662 -0.15484868 108.30336038 -0.18117642 121.61927533 -0.22157317 C131.90297758 -0.25170356 142.18663214 -0.26653822 152.47037768 -0.26985329 C158.6164274 -0.27220724 164.76229983 -0.28121253 170.90830231 -0.30631447 C176.68997915 -0.32954634 182.47136137 -0.33384799 188.25307274 -0.32355309 C190.37591467 -0.32305643 192.49877086 -0.32941486 194.62156868 -0.34310913 C197.51865692 -0.36075356 200.4146793 -0.35375838 203.31176758 -0.34057617 C204.15282586 -0.35154542 204.99388415 -0.36251466 205.86042905 -0.37381631 C213.61513987 -0.288565 217.75749326 3.24609477 223.14208984 8.6254425 C224.03934784 9.51706085 224.93660583 10.4086792 225.86105347 11.32731628 C226.83738131 12.30753182 227.81360465 13.28785145 228.78973389 14.26826477 C229.83128259 15.30710061 230.87325568 16.3455111 231.9156189 17.38352966 C234.73404052 20.19286254 237.54613402 23.00844992 240.35683537 25.8255043 C243.3023963 28.77614074 246.25284742 31.72188085 249.20251465 34.66841125 C254.15218284 39.61444547 259.09762922 44.56467158 264.04071045 49.51728821 C269.75488639 55.24235963 275.47624783 60.96017433 281.20137143 66.67429638 C286.12066858 71.58451882 291.03605911 76.49862645 295.94820285 81.41600513 C298.88040868 84.3513281 301.813947 87.28528509 304.75101471 90.21574402 C307.51016048 92.96911391 310.26437041 95.72732767 313.01484299 98.48936081 C314.02494994 99.50211251 315.03676319 100.51316566 316.05039597 101.52238846 C317.43340334 102.89993227 318.80965461 104.2842491 320.18554688 105.66889954 C321.3436128 106.82809654 321.3436128 106.82809654 322.52507401 108.01071167 C325.90981643 111.84743311 326.65928355 114.54766569 326.68832397 119.63941956 C326.7050692 121.31367004 326.7050692 121.31367004 326.72215271 123.02174377 C326.7243129 124.24166016 326.72647308 125.46157654 326.72869873 126.71846008 C326.73874435 128.0065155 326.74878998 129.29457092 326.75914001 130.62165833 C326.7864366 134.15022191 326.80158835 137.67874558 326.81456804 141.20738697 C326.83020011 144.89632558 326.85699008 148.5851827 326.88259888 152.27406311 C326.92938535 159.257928 326.96613007 166.24180822 326.99927175 173.22574973 C327.03749408 181.17737394 327.08690394 189.1289163 327.13725591 197.08047152 C327.2405738 213.43597923 327.32983464 229.79153236 327.40985107 246.14717102 C328.46043701 245.35310852 329.51102295 244.55904602 330.59344482 243.74092102 C332.01060145 242.70855527 333.42861652 241.67736721 334.84735107 240.64717102 C335.53506592 240.12252258 336.22278076 239.59787415 336.93133545 239.05732727 C341.50397164 235.78204368 344.80521637 234.54961116 350.44915771 234.72187805 C353.80578404 235.44996211 355.39796152 237.50656598 357.40985107 240.14717102 C359.00771492 243.34289871 358.55782388 246.80934005 358.55702209 250.31971741 C358.56069878 251.17473886 358.56437547 252.02976031 358.56816357 252.9106915 C358.57922833 255.79258388 358.58304897 258.67444024 358.58685303 261.55635071 C358.59311556 263.61585099 358.59976217 265.67535013 358.60676575 267.73484802 C358.62419485 273.3423877 358.63473268 278.94991884 358.64297128 284.5574789 C358.6481173 288.05882606 358.65419321 291.56017054 358.66048241 295.06151581 C358.67953967 306.01041024 358.69376976 316.95929791 358.70209438 327.90820575 C358.71187025 340.55799808 358.73819679 353.20761559 358.77859527 365.8573463 C358.80872876 375.62725245 358.82356062 385.39710841 358.82687539 395.16706014 C358.82922901 401.00571136 358.83823001 406.84417592 358.86333656 412.6827774 C358.88657385 418.17554571 358.89086793 423.66800389 358.88057518 429.16080856 C358.88007865 431.17722224 358.88643333 433.19365095 358.90013123 435.21001816 C358.91778473 437.96261567 358.91077625 440.71409237 358.89759827 443.46669006 C358.91405214 444.66407684 358.91405214 444.66407684 358.93083841 445.88565326 C358.87087229 451.07257407 357.83447207 454.02691469 354.40985107 458.14717102 C350.38247147 460.16086082 346.75952946 460.20359848 342.40985107 459.14717102 C336.9913347 456.11487802 332.19383161 452.0764137 327.40985107 448.14717102 C327.39567139 449.16037415 327.3814917 450.17357727 327.36688232 451.21748352 C327.00368724 463.4202304 327.00368724 463.4202304 323.97235107 467.02217102 C320.35486802 470.02203502 318.67847461 470.27333402 314.05801773 470.28418541 C312.34376425 470.29179722 312.34376425 470.29179722 310.59487939 470.29956281 C309.32856675 470.30006057 308.06225411 470.30055833 306.75756836 470.30107117 C305.40718259 470.3050845 304.05679804 470.3095225 302.70641494 470.31435072 C298.98280197 470.32633652 295.25920197 470.3319693 291.53557348 470.33653188 C287.52454112 470.34248036 283.51352432 470.35409206 279.50250244 470.36482239 C269.80949612 470.38936334 260.11648463 470.40397584 250.42345679 470.41688246 C247.68685378 470.42059309 244.95025129 470.42456643 242.2136488 470.42863512 C225.22870195 470.45386985 208.24375433 470.47592835 191.25879288 470.48836327 C187.32314298 470.49129308 183.3874931 470.49425473 179.45184326 470.49726868 C178.47362648 470.49801473 177.4954097 470.49876078 176.48754999 470.49952944 C160.63575284 470.51218707 144.78406775 470.54541462 128.93232301 470.58707051 C112.66683146 470.62946415 96.40139733 470.65305531 80.13585067 470.65828383 C70.99961183 470.66170083 61.86354813 470.67348992 52.72736359 470.70638657 C44.94756798 470.73435295 37.1679834 470.74540147 29.38814142 470.7341911 C25.41769312 470.72899567 21.44768696 470.73194793 17.47730255 470.75665665 C13.8425883 470.77908788 10.20863534 470.77845803 6.5739083 470.75945278 C4.63583448 470.7553132 2.69775651 470.7758438 0.75979638 470.79723966 C-8.64678941 470.71100993 -8.64678941 470.71100993 -12.35016251 467.73417091 C-15.8363856 463.70787027 -15.7356332 460.92029563 -15.72716331 455.79631424 C-15.72981514 455.02590573 -15.73246697 454.25549722 -15.73519915 453.461743 C-15.7429228 450.85298772 -15.74345249 448.24427928 -15.74404907 445.63551331 C-15.74806167 443.75715346 -15.75249955 441.87879447 -15.75732863 440.00043654 C-15.76932246 434.81742189 -15.77494907 429.63441656 -15.77950978 424.45139074 C-15.7854552 418.869794 -15.79706763 413.28820846 -15.80780029 407.70661926 C-15.83234786 394.21676596 -15.84695449 380.72690894 -15.85986036 367.23704016 C-15.86357044 363.42919905 -15.86754382 359.62135831 -15.87161303 355.81351757 C-15.89684662 332.18525877 -15.91892363 308.55699916 -15.93134117 284.92873001 C-15.93426259 279.45304105 -15.93723009 273.97735212 -15.94024658 268.50166321 C-15.94061749 267.82136527 -15.9409884 267.14106733 -15.94137055 266.4401543 C-15.95352862 244.37859491 -15.98447636 222.31711525 -16.02616811 200.25559332 C-16.07014919 176.94018972 -16.09587286 153.62484029 -16.10126173 130.30938888 C-16.10468049 117.59612488 -16.11649037 104.88298668 -16.14936447 92.16976166 C-16.17730879 81.34504438 -16.18838902 70.52047865 -16.17716901 59.69572809 C-16.17196806 54.16992266 -16.17496231 48.6444349 -16.19963455 43.11867523 C-16.2220205 38.06290607 -16.22147039 33.00768473 -16.20243068 27.95190665 C-16.19961567 26.12010121 -16.20531188 24.28825946 -16.22024362 22.45651272 C-16.23927197 19.97080073 -16.22761531 17.48705792 -16.20818138 15.00139236 C-16.2210306 14.28614462 -16.23387982 13.57089688 -16.24711841 12.83397496 C-16.15059262 7.23519782 -14.4094546 4.94467789 -10.59014893 1.14717102 C-7.29337503 -0.50121593 -3.62425151 -0.00078611 0 0 Z " fill="#00D9F2" transform="translate(36.59014892578125,20.852828979492188)"/>
<path d="M0 0 C2.75569447 2.18159145 4.43588747 3.87177494 6 7 C6.10451512 9.73237151 6.14779523 12.439631 6.14717102 15.17254639 C6.15084771 16.02756784 6.1545244 16.88258929 6.1583125 17.76352048 C6.16937726 20.64541286 6.1731979 23.52726922 6.17700195 26.40917969 C6.18326449 28.46867997 6.1899111 30.52817911 6.19691467 32.587677 C6.21434377 38.19521668 6.22488161 43.80274782 6.2331202 49.41030788 C6.23826623 52.91165504 6.24434213 56.41299952 6.25063133 59.91434479 C6.26968859 70.86323922 6.28391868 81.81212689 6.2922433 92.76103473 C6.30201918 105.41082706 6.32834572 118.06044456 6.36874419 130.71017528 C6.39887769 140.48008143 6.41370954 150.24993739 6.41702431 160.01988912 C6.41937793 165.85854034 6.42837893 171.6970049 6.45348549 177.53560638 C6.47672277 183.02837469 6.48101685 188.52083287 6.47072411 194.01363754 C6.47022758 196.03005122 6.47658225 198.04647993 6.49028015 200.06284714 C6.50793366 202.81544465 6.50092518 205.56692135 6.48774719 208.31951904 C6.49871644 209.1177769 6.50968568 209.91603475 6.52098733 210.73848224 C6.46102121 215.92540305 5.424621 218.87974367 2 223 C-1.75029803 224.87514901 -5.91712373 224.54306514 -10 224 C-12.88306337 222.71539807 -15.10469274 220.91058406 -17.5 218.875 C-18.17377686 218.3372998 -18.84755371 217.79959961 -19.54174805 217.24560547 C-20.97606469 216.09966733 -22.40262424 214.94396117 -23.82177734 213.77929688 C-27.43392581 210.82868737 -31.12744541 207.98360177 -34.8125 205.125 C-35.56168701 204.53944336 -36.31087402 203.95388672 -37.08276367 203.35058594 C-43.19200579 198.58499969 -49.40866838 193.97907881 -55.66308594 189.40649414 C-62.72455249 184.23334069 -69.68559073 178.93385228 -76.62036133 173.59228516 C-78.26258116 172.33217639 -79.91434442 171.08440176 -81.57568359 169.84960938 C-84 168 -84 168 -86.27197266 165.99414062 C-93.7393089 159.82526775 -101.06041484 160.1374461 -110.25 160.375 C-112.40417087 160.41949567 -114.55622957 160.45307849 -116.71087646 160.45645142 C-118.65416743 160.46069416 -120.59726428 160.50335192 -122.54003906 160.54833984 C-127.17528983 159.81373829 -128.73504845 158.32541362 -132 155 C-133.20260015 151.39219955 -133.17115985 148.07629259 -133.19287109 144.3190918 C-133.20104858 143.53825226 -133.20922607 142.75741272 -133.21765137 141.95291138 C-133.24246767 139.36835492 -133.25901114 136.78385323 -133.2734375 134.19921875 C-133.27876118 133.31582132 -133.28408485 132.4324239 -133.28956985 131.52225685 C-133.31628428 126.84695936 -133.33566517 122.17168843 -133.35009766 117.49633789 C-133.36344147 113.62891004 -133.39130429 109.76200924 -133.43212891 105.89477539 C-133.48144683 101.22283735 -133.50621745 96.55137769 -133.51332474 91.87919044 C-133.52003621 90.10059195 -133.53525564 88.32200408 -133.55921555 86.54355431 C-133.59087557 84.05150207 -133.59090338 81.56129278 -133.58349609 79.0690918 C-133.59990143 78.33796677 -133.61630676 77.60684174 -133.63320923 76.8535614 C-133.56406431 71.15588588 -131.89750398 68.85180696 -128 65 C-125.10154364 63.55077182 -122.66927768 64.01810533 -119.4375 64.140625 C-102.71249777 64.5327361 -90.89296721 63.87676703 -78.16210938 51.95605469 C-74.19411087 48.36621683 -69.84589943 45.26213841 -65.5625 42.0625 C-63.79679546 40.71274298 -62.03246699 39.36118389 -60.26953125 38.0078125 C-54.3952365 33.52190835 -48.44850357 29.13733207 -42.47875977 24.77954102 C-37.24173801 20.94890308 -32.10587309 17.00344195 -27 13 C-24.75313214 11.24593407 -22.50271399 9.49654862 -20.25 7.75 C-19.71246094 7.32976562 -19.17492187 6.90953125 -18.62109375 6.4765625 C-12.48921095 1.73218603 -7.93520028 -1.58128991 0 0 Z " fill="#FE6C00" transform="translate(389,256)"/>
<path d="M0 0 C6.47408551 0.16185214 9.6111654 3.72372606 14 8 C14.77164867 8.74576986 15.54329735 9.49153973 16.33832932 10.25990868 C18.99075253 12.8532566 21.61734176 15.47078893 24.23974609 18.09448242 C25.2423978 19.09413542 26.24525194 20.09358541 27.24829102 21.09284973 C29.94862666 23.78442184 32.64577812 26.47916222 35.3420558 29.17479873 C37.02871398 30.86074299 38.7160835 32.54597195 40.4037056 34.23095131 C46.29590935 40.11393287 52.18555432 45.99946195 58.07275391 51.88745117 C63.55553898 57.37083889 69.04389907 62.84860271 74.53485429 68.3238079 C79.25874529 73.03463225 83.978782 77.74929487 88.69582427 82.46697694 C91.50926047 85.28066802 94.32422582 88.09278626 97.14307785 90.90105247 C99.78888073 93.5371871 102.42985699 96.17806268 105.06718445 98.8226757 C106.49710332 100.25414067 107.93197142 101.68065638 109.36697388 103.10702515 C110.21640564 103.9606514 111.0658374 104.81427765 111.94100952 105.69377136 C112.68095846 106.43317554 113.4209074 107.17257971 114.18327904 107.93439007 C117.27088468 111.44499462 118 113.25583595 118 118 C103.89185524 118.09352161 89.78375867 118.16375132 75.67536736 118.20724869 C69.1242892 118.22812505 62.57341926 118.25644436 56.02246094 118.30175781 C49.70065387 118.34521266 43.3790471 118.36913673 37.0571022 118.37950897 C34.64494803 118.3869009 32.23280485 118.40133548 29.82073593 118.42292023 C26.44258668 118.45194837 23.06526559 118.4559561 19.68701172 118.45410156 C18.68935287 118.46848267 17.69169403 118.48286377 16.6638031 118.49768066 C10.95713542 118.46377174 7.41100978 117.9988183 3 114 C-1.04343889 109.44299761 -0.40270674 104.19412706 -0.34057617 98.42651367 C-0.34101425 97.36264435 -0.34145233 96.29877502 -0.34190369 95.20266724 C-0.33981591 91.69091353 -0.31648466 88.17963892 -0.29296875 84.66796875 C-0.28737278 82.23131064 -0.28310268 79.79464915 -0.28010559 77.35798645 C-0.26865702 70.94803532 -0.2391894 64.53828845 -0.20599365 58.12841797 C-0.17529324 51.58629113 -0.16160029 45.04413125 -0.14648438 38.50195312 C-0.11431999 25.66788166 -0.06370076 12.8339517 0 0 Z " fill="#008A9A" transform="translate(245,21)"/>
<path d="M0 0 C0.859105 -0.00438225 1.71821001 -0.00876451 2.60334849 -0.01327956 C5.49905659 -0.026697 8.39473423 -0.03285301 11.29046631 -0.03897095 C13.35981892 -0.04686958 15.42917014 -0.05513838 17.4985199 -0.06375122 C24.30903808 -0.08999843 31.1195625 -0.1052813 37.93011475 -0.11953735 C40.27208205 -0.12489588 42.61404932 -0.13027338 44.95601654 -0.13566971 C54.69594922 -0.15730216 64.43588021 -0.17603992 74.17583084 -0.1872921 C88.14751671 -0.20353761 102.11892473 -0.23672607 116.09050584 -0.29369295 C125.90711928 -0.33235779 135.7236583 -0.35192069 145.54034591 -0.35721266 C151.40699014 -0.36087077 157.27333822 -0.37294108 163.13990021 -0.4053154 C168.65897946 -0.43533506 174.17758242 -0.44172949 179.69672585 -0.42993164 C181.72282242 -0.4297104 183.74894071 -0.43805723 185.77496147 -0.45558548 C188.54089873 -0.47821324 191.30509957 -0.470012 194.07104492 -0.45410156 C195.27426813 -0.47492469 195.27426813 -0.47492469 196.50179887 -0.49616849 C200.57058215 -0.43848525 203.05662893 -0.02962077 206.27531052 2.56519127 C209.27334822 5.65210199 209.79794326 7.03629702 210.03167725 11.1578064 C209.61935974 14.55610065 207.96940893 16.61066109 205.78948975 19.15390015 C201.97570235 21.69642508 198.90908924 21.43534483 194.48995972 21.41459656 C193.20508756 21.42033488 193.20508756 21.42033488 191.89425838 21.42618912 C189.01308235 21.43653919 186.13210486 21.43252316 183.25091553 21.42855835 C181.18964452 21.43290374 179.12837513 21.43808631 177.06710815 21.44404602 C171.45967278 21.45746657 165.85230467 21.45801124 160.24485636 21.45548272 C155.5677838 21.45441497 150.89072497 21.45929139 146.21365535 21.46408814 C135.18114315 21.47519412 124.14866499 21.47561475 113.1161499 21.46957397 C101.72642406 21.46353357 90.33682173 21.47584443 78.94711697 21.49714404 C69.17635055 21.51474574 59.4056235 21.52076362 49.6348418 21.5175063 C43.79572308 21.51569085 37.95669244 21.5183556 32.11758804 21.53222084 C26.62647712 21.54477109 21.13555901 21.54288162 15.64445114 21.52980995 C13.6276264 21.52743842 11.61078821 21.53019941 9.59397888 21.53843307 C6.84342281 21.54885355 4.09351934 21.54083768 1.34298706 21.52812195 C0.54249848 21.53549623 -0.25799009 21.54287052 -1.0827359 21.55046827 C-5.63983473 21.50606572 -8.57608053 20.96226802 -12.21051025 18.15390015 C-14.55164035 15.14387574 -14.62267633 11.87648472 -14.53863525 8.12265015 C-14.01998258 5.01073411 -12.42496251 3.30322145 -10.21051025 1.15390015 C-7.00578999 -0.44845998 -3.52072305 0.00216068 0 0 Z " fill="#FEFEFE" transform="translate(89.21051025390625,266.8460998535156)"/>
<path d="M0 0 C0.85572702 -0.00367669 1.71145403 -0.00735338 2.59311217 -0.01114148 C5.47733852 -0.02220617 8.36152889 -0.02602685 11.24577332 -0.02983093 C13.30689611 -0.03609343 15.36801777 -0.04274003 17.42913818 -0.04974365 C23.04074282 -0.06717207 28.65233893 -0.0777102 34.26396394 -0.08594918 C37.76731341 -0.09109489 41.27066021 -0.09717078 44.7740078 -0.10346031 C55.72770559 -0.12251658 66.68139662 -0.13674741 77.63510782 -0.14507228 C90.29340014 -0.15485063 102.95151788 -0.18118403 115.60974866 -0.22157317 C125.38473468 -0.25169603 135.15967055 -0.26653747 144.9347021 -0.26985329 C150.77723373 -0.27220795 156.61957894 -0.28122246 162.46206093 -0.30631447 C167.95728843 -0.32953348 173.45220594 -0.33385326 178.94746971 -0.32355309 C180.96591597 -0.32305613 182.98437717 -0.32942343 185.0027771 -0.34310913 C187.75572552 -0.36073305 190.50754996 -0.35376892 193.26049805 -0.34057617 C194.06166874 -0.35154542 194.86283944 -0.36251466 195.68828803 -0.37381631 C200.70583813 -0.31565226 203.29204635 0.56365317 206.82072449 4.14717102 C208.8719708 6.85108662 208.82153673 8.1248343 208.69572449 11.58467102 C207.74717982 15.44660288 206.56659175 17.31809566 203.82072449 20.14717102 C200.61413792 21.7504643 197.12608576 21.29514208 193.60348511 21.29434204 C192.74367454 21.29801873 191.88386397 21.30169542 190.99799854 21.30548352 C188.09995268 21.31654838 185.20194264 21.32036892 182.30387878 21.32417297 C180.2329039 21.33043545 178.16193015 21.33708206 176.09095764 21.34408569 C170.45249434 21.36151423 164.81403952 21.37205227 159.17555594 21.38029122 C155.65545551 21.3854369 152.13535773 21.39151279 148.61525917 21.39780235 C137.60923564 21.41685864 126.60321884 21.43108947 115.59718198 21.43941432 C102.87832948 21.44919271 90.15965074 21.4755262 77.4408595 21.51591522 C67.61916474 21.54603783 57.7975199 21.56087949 47.97577983 21.56419533 C42.1053029 21.56655002 36.2350115 21.57556487 30.36458397 21.60065651 C24.84309207 21.6238751 19.3219087 21.62819548 13.80038071 21.61789513 C11.77225915 21.61739816 9.74412273 21.62376575 7.71604729 21.63745117 C4.94996343 21.65507436 2.1849983 21.6481113 -0.58108521 21.63491821 C-1.78867767 21.65137208 -1.78867767 21.65137208 -3.02066594 21.66815835 C-6.7859657 21.62471498 -8.95139871 21.29313141 -12.15416241 19.24168682 C-15.5087243 15.77216067 -15.56873258 13.0791305 -15.53865051 8.40888977 C-14.96870685 4.82196173 -12.97701503 3.27878208 -10.17927551 1.14717102 C-6.98191218 -0.45151064 -3.51221806 -0.00080152 0 0 Z " fill="#FEFEFE" transform="translate(90.17927551269531,223.8528289794922)"/>
<path d="M0 0 C4.22922608 2.84646476 6.73348631 6.21370192 9.25 10.5625 C9.6313208 11.21452393 10.0126416 11.86654785 10.40551758 12.53833008 C31.63484927 49.55814564 37.79439678 90.39618797 27.04907227 131.9284668 C24.91827293 139.7291558 22.31369751 147.21152813 18.9375 154.5625 C18.46340698 155.60688232 18.46340698 155.60688232 17.97973633 156.67236328 C15.95776116 160.82619795 13.95760181 163.57845369 10 166 C6.5819062 166.77441188 3.43636261 166.67147315 0 166 C-2.82424288 163.80977082 -4.41508603 162.16982793 -6 159 C-6.46326451 153.40625385 -5.22582702 149.50053837 -2.8125 144.5625 C11.69275991 112.95073296 12.78967058 78.67208112 0.95703125 45.9921875 C-2.70516505 36.38975031 -7.26308194 27.46191252 -13 18.9375 C-15.725856 14.78648185 -17.0147354 12.07367698 -16 7 C-14.58599386 3.54354054 -13.34227609 2.23337006 -10.25 0.125 C-6.2620465 -1.25544544 -4.05847606 -1.10685711 0 0 Z " fill="#FF6C00" transform="translate(459,282)"/>
<path d="M0 0 C1.84643852 -0.0129007 1.84643852 -0.0129007 3.73017883 -0.02606201 C5.10183674 -0.03049738 6.47349509 -0.03479573 7.84515381 -0.03897095 C9.28397317 -0.04687115 10.72279055 -0.05514005 12.16160583 -0.06375122 C16.89431869 -0.08998269 21.62704044 -0.10528081 26.35980225 -0.11953735 C27.98855342 -0.12489673 29.61730454 -0.13027424 31.2460556 -0.13566971 C38.02130491 -0.15730084 44.79655183 -0.17603744 51.57182693 -0.1872921 C61.28352867 -0.20353017 70.99483022 -0.23670148 80.70638108 -0.29369295 C87.53363497 -0.3323926 94.36078184 -0.35192485 101.18814254 -0.35721266 C105.26631908 -0.36086638 109.34406893 -0.37288892 113.42212677 -0.4053154 C117.26031712 -0.43539658 121.09782263 -0.44170816 124.93610573 -0.42993164 C126.34298824 -0.4297109 127.74990251 -0.43801679 129.15667534 -0.45558548 C141.10701451 -0.59667588 141.10701451 -0.59667588 145.04406738 2.56365967 C147.65756825 5.67596027 148.23854379 7.22873026 148.46136475 11.1578064 C148.04904724 14.55610065 146.39909643 16.61066109 144.21917725 19.15390015 C140.75277078 21.46483779 139.43762769 21.40673374 135.34933472 21.41459656 C134.12397003 21.42168137 132.89860535 21.42876617 131.6361084 21.43606567 C130.27593957 21.43377177 128.9157711 21.43126206 127.55560303 21.42855835 C126.12486505 21.432905 124.6941294 21.438088 123.26339722 21.44404602 C119.37490724 21.45745363 115.48651436 21.45801265 111.59800577 21.45548272 C108.35247986 21.45441401 105.10697368 21.4592939 101.86145198 21.46408814 C94.20414883 21.47518982 86.54689472 21.47561729 78.8895874 21.46957397 C70.98986099 21.46353516 63.09031274 21.47584127 55.19061673 21.49714404 C48.40920632 21.51475885 41.62785262 21.52076152 34.84642017 21.5175063 C30.7958097 21.5156928 26.74532625 21.518336 22.69473648 21.53222084 C18.88454578 21.54479235 15.07463267 21.54286166 11.26444626 21.52980995 C9.86684323 21.52744297 8.4692207 21.53018326 7.07164001 21.53843307 C5.16211457 21.54889104 3.25251014 21.53900249 1.34298706 21.52812195 C-0.25923612 21.52837356 -0.25923612 21.52837356 -1.89382744 21.52863026 C-5.8157048 21.01957313 -8.64671404 19.61203992 -11.09332275 16.46640015 C-12.12340614 13.00157422 -12.37229496 9.70273336 -11.78082275 6.15390015 C-8.35353997 0.78449045 -6.15557263 0.03192568 0 0 Z " fill="#FEFEFE" transform="translate(118.78082275390625,170.84609985351563)"/>
<path d="M0 0 C1.12157501 -0.0071553 2.24315002 -0.01431061 3.39871216 -0.02168274 C4.6350943 -0.02437164 5.87147644 -0.02706055 7.14532471 -0.02983093 C9.09177383 -0.03968773 9.09177383 -0.03968773 11.07754517 -0.04974365 C14.64382538 -0.06715924 18.21009218 -0.07770724 21.77640438 -0.08594918 C24.00467855 -0.0910989 26.23294856 -0.09717469 28.46121979 -0.10346031 C35.43335781 -0.12251524 42.40548524 -0.13674489 49.3776443 -0.14507228 C57.42488052 -0.15484235 65.4718415 -0.18115432 73.51898074 -0.22157317 C79.73902327 -0.25174221 85.95898695 -0.26654195 92.17910123 -0.26985329 C95.89392632 -0.27220319 99.60845747 -0.28115497 103.32320404 -0.30631447 C107.46981598 -0.33394452 111.61581405 -0.32976169 115.76251221 -0.32279968 C117.60494003 -0.34201477 117.60494003 -0.34201477 119.48458862 -0.36161804 C125.82476825 -0.32275599 129.97241973 -0.27072747 134.71270752 4.14717102 C137.17411999 7.83928972 137.39920959 10.86071907 136.71270752 15.14717102 C134.54219243 18.71301724 132.55392872 20.60664263 128.71270752 22.14717102 C126.15737247 22.40164661 126.15737247 22.40164661 123.21614075 22.40786743 C122.0987854 22.41495224 120.98143005 22.42203705 119.83021545 22.42933655 C118.60880356 22.42685913 117.38739166 22.42438171 116.12896729 22.42182922 C114.83918976 22.42694016 113.54941223 22.43205109 112.22055054 22.43731689 C108.68541162 22.4507034 105.15037963 22.45128597 101.61522031 22.4487536 C98.66291218 22.44768365 95.71062567 22.45256784 92.75832218 22.45735902 C85.79282414 22.46845297 78.82738004 22.46889223 71.86187744 22.46284485 C64.67841822 22.45680409 57.49515482 22.46911879 50.31172901 22.49041492 C44.14175721 22.50803329 37.97184772 22.51403192 31.80185169 22.51077718 C28.11789846 22.50896455 24.43408493 22.51159828 20.7501545 22.52549171 C16.64192117 22.54040572 12.53408623 22.53109792 8.42584229 22.51948547 C7.20645462 22.52712921 5.98706696 22.53477295 4.73072815 22.54264832 C3.61055298 22.535634 2.49037781 22.52861969 1.33625793 22.52139282 C0.36527444 22.52156056 -0.60570906 22.52172831 -1.60611629 22.52190113 C-5.57710327 21.96690277 -8.20348906 20.15622938 -11.09979248 17.45967102 C-12.85663675 14.03844797 -13.06949912 10.85198612 -12.28729248 7.14717102 C-9.13759375 1.72268988 -6.094502 0.02661631 0 0 Z " fill="#F7FDFE" transform="translate(87.28729248046875,308.8528289794922)"/>
<path d="M0 0 C1.68453026 -0.00856522 1.68453026 -0.00856522 3.40309143 -0.01730347 C4.64104462 -0.01842133 5.8789978 -0.01953918 7.15446472 -0.02069092 C9.10332329 -0.02813828 9.10332329 -0.02813828 11.09155273 -0.03573608 C14.66190357 -0.04886892 18.2322356 -0.05530689 21.80260682 -0.05974674 C24.03288352 -0.06267637 26.26315507 -0.066781 28.49342918 -0.07125092 C35.47037381 -0.0849289 42.44730667 -0.09459377 49.42426378 -0.09845281 C57.47994981 -0.10293283 65.5354661 -0.12047679 73.59110051 -0.1494534 C79.81622408 -0.17106863 86.0412999 -0.18115702 92.2664606 -0.18249393 C95.98510838 -0.18354218 99.70359667 -0.18945405 103.42220497 -0.20731354 C107.57134423 -0.22685251 111.72012832 -0.22250591 115.86930847 -0.21600342 C117.10118896 -0.2252182 118.33306946 -0.23443298 119.60227966 -0.243927 C120.73375931 -0.23835785 121.86523895 -0.2327887 123.03100586 -0.22705078 C124.50243907 -0.22925062 124.50243907 -0.22925062 126.00359821 -0.2314949 C129.98547604 0.31654304 132.58952403 2.17284811 135.58097839 4.76544189 C137.38368981 8.57116599 136.80719162 12.1467086 135.70597839 16.14044189 C133.80534157 18.5928765 132.44742985 19.76971617 129.70597839 21.14044189 C127.91822174 21.24228625 126.12666775 21.2799189 124.33602905 21.28761292 C122.62625633 21.29834587 122.62625633 21.29834587 120.88194275 21.30929565 C119.62528809 21.31198456 118.36863342 21.31467346 117.07389832 21.31744385 C115.09577904 21.32730064 115.09577904 21.32730064 113.07769775 21.33735657 C109.45363519 21.35477166 105.82958582 21.36531969 102.20549178 21.3735621 C99.94171338 21.37871117 97.67793909 21.38478694 95.41416359 21.39107323 C88.3325707 21.41012671 81.25098825 21.42435753 74.16937464 21.4326852 C65.99251933 21.44245934 57.8159346 21.46878255 49.63917464 21.50918609 C43.32063478 21.53933716 37.00217252 21.55415309 30.6835621 21.55746621 C26.90896724 21.55981786 23.1346614 21.56879271 19.36014366 21.59392738 C15.80846353 21.61719586 12.25726293 21.62144667 8.70552635 21.611166 C6.78250909 21.61043402 4.85951625 21.62953399 2.93659973 21.64923096 C1.2141378 21.63881523 1.2141378 21.63881523 -0.54312134 21.62818909 C-1.5388255 21.63057744 -2.53452967 21.63296579 -3.56040668 21.63542652 C-7.05834689 21.00204301 -8.74416969 19.56465365 -11.29402161 17.14044189 C-13.03033797 13.66780917 -12.89592563 9.92851176 -12.29402161 6.14044189 C-8.46155195 1.29942759 -5.99327376 0.01819506 0 0 Z " fill="#FEFEFE" transform="translate(87.29402160644531,351.85955810546875)"/>
<path d="M0 0 C1.14129364 -0.00426498 2.28258728 -0.00852997 3.45846558 -0.01292419 C5.34580414 -0.01224442 5.34580414 -0.01224442 7.27127075 -0.0115509 C8.60496108 -0.0145419 9.93865055 -0.01794429 11.27233887 -0.02172852 C14.90047709 -0.03057941 18.52859174 -0.0329071 22.15673971 -0.0335443 C25.18359538 -0.03449274 28.21044553 -0.03817033 31.23729908 -0.0417164 C38.3781831 -0.04986531 45.5190545 -0.05230026 52.65994263 -0.05158997 C60.02965039 -0.05098924 67.39928495 -0.06153897 74.76897418 -0.07733363 C81.09259507 -0.09040414 87.41619202 -0.09577406 93.73982632 -0.09513456 C97.51820581 -0.0948794 101.29652027 -0.09774029 105.07488632 -0.10831261 C108.62892558 -0.11798524 112.18283755 -0.11807856 115.73688126 -0.11079597 C117.66363388 -0.10924965 119.59038646 -0.11760298 121.51712036 -0.12623596 C123.23752029 -0.11994423 123.23752029 -0.11994423 124.99267578 -0.11352539 C125.98930174 -0.11407016 126.9859277 -0.11461493 128.01275444 -0.1151762 C131.86442762 0.25203864 133.8946519 1.30453698 136.43582153 4.19621277 C138.12067777 8.36401505 137.82098721 11.83336956 136.62332153 16.13371277 C134.37742828 19.1282371 133.17462786 19.94994399 129.62332153 21.13371277 C127.82055224 21.23050328 126.01440284 21.26866859 124.20904541 21.27415466 C123.08465057 21.27986481 121.96025574 21.28557495 120.80178833 21.29145813 C119.56743042 21.29257599 118.33307251 21.29369385 117.06130981 21.29484558 C115.76192474 21.29981049 114.46253967 21.30477539 113.1237793 21.30989075 C109.55761976 21.32300711 105.99147905 21.32945809 102.42529917 21.33390141 C100.1971947 21.33683308 97.96909538 21.34093805 95.7409935 21.34540558 C88.76939166 21.35907788 81.79780157 21.36874611 74.82618725 21.37260747 C66.7790013 21.37708911 58.73198513 21.39464295 50.68485081 21.42360806 C44.46395333 21.44522249 38.24310363 21.4553116 32.02216899 21.45664859 C28.3068895 21.4576967 24.59176965 21.46360581 20.87652969 21.4814682 C16.73228901 21.50100588 12.58840393 21.4966609 8.44412231 21.49015808 C6.59865814 21.50398026 6.59865814 21.50398026 4.71591187 21.51808167 C3.58587738 21.51251251 2.4558429 21.50694336 1.29156494 21.50120544 C-0.17792005 21.50340528 -0.17792005 21.50340528 -1.6770916 21.50564957 C-5.48990577 20.98033738 -8.31247357 19.5019762 -10.68917847 16.44621277 C-11.71926185 12.98138684 -11.96815067 9.68254598 -11.37667847 6.13371277 C-8.06644909 0.94768675 -5.95692814 0.01002426 0 0 Z " fill="#FEFEFE" transform="translate(86.37667846679688,394.8662872314453)"/>
<path d="M0 0 C4.93834628 3.4055349 7.68007762 7.07997736 10.5 12.3125 C10.88236816 13.01109131 11.26473633 13.70968262 11.65869141 14.42944336 C24.61412432 38.74198234 28.85805025 68.28262914 21 95 C20.68675781 96.08152344 20.37351562 97.16304688 20.05078125 98.27734375 C15.37908761 113.2156843 15.37908761 113.2156843 10.25 117.0625 C6.14879822 118.24553898 3.0633528 118.34609012 -1 117 C-4.75354553 114.36453186 -5.81840405 112.82687864 -6.8046875 108.3359375 C-7.29163865 103.58829923 -5.96178924 100.03385962 -4.1875 95.6875 C-3.62084533 94.18042588 -3.05961345 92.67130132 -2.50390625 91.16015625 C-2.10582764 90.07951904 -2.10582764 90.07951904 -1.69970703 88.97705078 C4.88928164 70.35959429 1.2911266 48.1914127 -6.30859375 30.51171875 C-7.92724388 27.15105717 -9.734893 24.15544677 -11.8125 21.0625 C-14.87479564 16.49282158 -16.19083048 13.53408382 -16 8 C-13.00366944 0.90342763 -7.48464794 -1.84088428 0 0 Z " fill="#FF6C00" transform="translate(424,307)"/>
</svg>
